<?xml version="1.0" encoding="utf-8"?>
<!-- Generator: Adobe Illustrator 21.1.0, SVG Export Plug-In . SVG Version: 6.00 Build 0)  -->
<svg version="1.1" id="图层_1" xmlns="http://www.w3.org/2000/svg" xmlns:xlink="http://www.w3.org/1999/xlink" x="0px" y="0px"
	 viewBox="0 0 200 200" style="enable-background:new 0 0 200 200;" xml:space="preserve">
<style type="text/css">
	.st0{fill:#D81E06;}
	.st1{fill:none;stroke:#D81E06;stroke-miterlimit:10;}
	.st2{fill:#FFFFFF;}
</style>
<path d="M159.4,32.1c5.2,0,9.5,4.3,9.5,9.5V75c0,5.2-4.3,9.5-9.5,9.5l-33.4,0c-5.2,0-9.5-4.3-9.5-9.5V41.6c0-5.2,4.3-9.5,9.5-9.5
	H159.4 M75.9,32.1c5.2,0,9.5,4.3,9.5,9.5V75c0,5.2-4.3,9.5-9.5,9.5l-33.4,0c-5.2,0-9.5-4.3-9.5-9.5V41.6c0-5.2,4.3-9.5,9.5-9.5H75.9
	 M159.4,115.5c5.2,0,9.5,4.3,9.5,9.5v33.4c0,5.2-4.3,9.5-9.5,9.5l-33.4,0c-5.2,0-9.5-4.3-9.5-9.5V125c0-5.2,4.3-9.5,9.5-9.5H159.4
	 M75.9,115.5c5.2,0,9.5,4.3,9.5,9.5v33.4c0,5.2-4.3,9.5-9.5,9.5l-33.4,0c-5.2,0-9.5-4.3-9.5-9.5V125c0-5.2,4.3-9.5,9.5-9.5H75.9
	 M159.4,24.9H126c-9.2,0-16.7,7.5-16.7,16.7V75c0,9.2,7.5,16.7,16.7,16.7h33.4c9.2,0,16.7-7.5,16.7-16.7V41.6
	C176.1,32.3,168.6,24.9,159.4,24.9L159.4,24.9z M75.9,24.9H42.5c-9.2,0-16.7,7.5-16.7,16.7V75c0,9.2,7.5,16.7,16.7,16.7l33.4,0
	c9.2,0,16.7-7.5,16.7-16.7V41.6C92.6,32.3,85.1,24.9,75.9,24.9L75.9,24.9z M159.4,108.3H126c-9.2,0-16.7,7.5-16.7,16.7v33.4
	c0,9.2,7.5,16.7,16.7,16.7h33.4c9.2,0,16.7-7.5,16.7-16.7V125C176.1,115.8,168.6,108.3,159.4,108.3L159.4,108.3z M75.9,108.3H42.5
	c-9.2,0-16.7,7.5-16.7,16.7v33.4c0,9.2,7.5,16.7,16.7,16.7l33.4,0c9.2,0,16.7-7.5,16.7-16.7V125C92.6,115.8,85.1,108.3,75.9,108.3
	L75.9,108.3z"/>
</svg>
