<?xml version="1.0" encoding="utf-8"?>
<!-- Generator: Adobe Illustrator 21.1.0, SVG Export Plug-In . SVG Version: 6.00 Build 0)  -->
<svg version="1.1" id="图层_1" xmlns="http://www.w3.org/2000/svg" xmlns:xlink="http://www.w3.org/1999/xlink" x="0px" y="0px"
	 viewBox="0 0 200 200" style="enable-background:new 0 0 200 200;" xml:space="preserve">
<style type="text/css">
	.st0{fill:#D81E06;}
	.st1{fill:none;stroke:#D81E06;stroke-miterlimit:10;}
	.st2{fill:#FFFFFF;}
</style>
<path d="M9.4,161.4c-0.1,1.6-0.2,3.2-0.2,4.9v0.1h5.1C12.6,164.8,10.9,163.1,9.4,161.4z"/>
<path d="M28.7,95.5c5.8,0,10.5,4.7,10.5,10.5s-4.7,10.5-10.5,10.5s-10.5-4.7-10.5-10.5S23,95.5,28.7,95.5 M28.7,88.5
	c-9.6,0-17.5,7.8-17.5,17.5s7.8,17.5,17.5,17.5c9.6,0,17.5-7.8,17.5-17.5S38.4,88.5,28.7,88.5L28.7,88.5z"/>
<path d="M100,95.5c5.8,0,10.5,4.7,10.5,10.5s-4.7,10.5-10.5,10.5s-10.5-4.7-10.5-10.5S94.2,95.5,100,95.5 M100,88.5
	c-9.6,0-17.5,7.8-17.5,17.5s7.8,17.5,17.5,17.5c9.6,0,17.5-7.8,17.5-17.5S109.6,88.5,100,88.5L100,88.5z"/>
<path d="M171.5,95.5c5.8,0,10.5,4.7,10.5,10.5s-4.7,10.5-10.5,10.5s-10.5-4.7-10.5-10.5S165.8,95.5,171.5,95.5 M171.5,88.5
	c-9.6,0-17.5,7.8-17.5,17.5s7.8,17.5,17.5,17.5S189,115.6,189,106S181.2,88.5,171.5,88.5L171.5,88.5z"/>
</svg>
