<?xml version="1.0" encoding="utf-8"?>
<!-- Generator: Adobe Illustrator 21.1.0, SVG Export Plug-In . SVG Version: 6.00 Build 0)  -->
<svg version="1.1" id="图层_1" xmlns="http://www.w3.org/2000/svg" xmlns:xlink="http://www.w3.org/1999/xlink" x="0px" y="0px"
	 viewBox="0 0 200 200" style="enable-background:new 0 0 200 200;" xml:space="preserve">
<style type="text/css">
	.st0{fill:#D81E06;}
	.st1{fill:none;stroke:#D81E06;stroke-miterlimit:10;}
	.st2{fill:#FFFFFF;}
</style>
<path d="M73.7,152.9c-10.5,0-18.9,8.5-18.9,18.9c0,10.5,8.5,18.9,18.9,18.9s18.9-8.5,18.9-18.9C92.6,161.3,84.1,152.9,73.7,152.9
	L73.7,152.9z M73.7,182.3c-5.8,0-10.5-4.7-10.5-10.5c0-5.8,4.7-10.5,10.5-10.5c5.8,0,10.5,4.7,10.5,10.5
	C84.2,177.6,79.5,182.3,73.7,182.3z M42.3,39.2L37.9,14H12.7v8.4h17.6l20.3,117.8h117.8v-8.4H58.2l-2.3-13.2l112.4-12l21-58.9v-8.4
	H42.3L42.3,39.2z M164.2,98.2L54.5,110.3L43.7,47.7h136L164.2,98.2L164.2,98.2z M145.2,152.9c-10.5,0-18.9,8.5-18.9,18.9
	c0,10.5,8.5,18.9,18.9,18.9c10.5,0,18.9-8.5,18.9-18.9C164.2,161.3,155.7,152.9,145.2,152.9L145.2,152.9z M145.2,182.3
	c-5.8,0-10.5-4.7-10.5-10.5c0-5.8,4.7-10.5,10.5-10.5c5.8,0,10.5,4.7,10.5,10.5C155.7,177.6,151,182.3,145.2,182.3z"/>
</svg>
