<?xml version="1.0" encoding="utf-8"?>
<!-- Generator: Adobe Illustrator 21.1.0, SVG Export Plug-In . SVG Version: 6.00 Build 0)  -->
<svg version="1.1" id="图层_1" xmlns="http://www.w3.org/2000/svg" xmlns:xlink="http://www.w3.org/1999/xlink" x="0px" y="0px"
	 viewBox="0 0 200 200" style="enable-background:new 0 0 200 200;" xml:space="preserve">
<style type="text/css">
	.st0{fill:#D81E06;}
	.st1{fill:none;stroke:#D81E06;stroke-miterlimit:10;}
	.st2{fill:#FFFFFF;}
</style>
<path d="M100,26.7c14.1,12.2,57,49.1,83,71c0,0,0.1,0.1,0.1,0.1c0.6,0.5,0.9,1,0.9,1.5c0,1.2-0.9,2.1-2.1,2.1h-18.2
	c-3.9,0-7,3.1-7,7v63.7c0,1.2-0.9,2.1-2.1,2.1h-27.3c-1.2,0-2.1-0.9-2.1-2.1v-36.4c0-3.9-3.1-7-7-7H81.8c-3.9,0-7,3.1-7,7v36.4
	c0,1.2-0.9,2.1-2.1,2.1H45.4c-1.2,0-2.1-0.9-2.1-2.1v-63.7c0-3.9-3.1-7-7-7H18.1c-1.2,0-2.1-0.9-2.1-2.1c0-0.8,0.6-1.4,0.9-1.7
	C43.1,75.7,85.9,38.9,100,26.7 M100,17.5L100,17.5C100,17.5,100,17.5,100,17.5C100,17.5,100,17.5,100,17.5L100,17.5L100,17.5z
	 M100,17.5c-0.7,0.6-56.5,48.7-87.7,74.9C10.4,94,9,96.5,9,99.3c0,5,4.1,9.1,9.1,9.1h18.2v63.7c0,5,4.1,9.1,9.1,9.1h27.3
	c5,0,9.1-4.1,9.1-9.1v-36.4h36.4v36.4c0,5,4.1,9.1,9.1,9.1h27.3c5,0,9.1-4.1,9.1-9.1v-63.7h18.2c5,0,9.1-4.1,9.1-9.1
	c0-2.9-1.4-5.3-3.5-7C156.4,66.2,100.7,18.1,100,17.5L100,17.5z"/>
</svg>
