<?xml version="1.0" encoding="utf-8"?>
<!-- Generator: Adobe Illustrator 21.1.0, SVG Export Plug-In . SVG Version: 6.00 Build 0)  -->
<svg version="1.1" id="图层_1" xmlns="http://www.w3.org/2000/svg" xmlns:xlink="http://www.w3.org/1999/xlink" x="0px" y="0px"
	 viewBox="0 0 36 36" style="enable-background:new 0 0 36 36;" xml:space="preserve">
<g>
	<g>
		<g>
			<path d="M6.6,30.8c0.2,0,0.2-0.1,0.4-0.2c0.2-0.2,0-0.6-0.2-0.8L1.9,25c0,0-1-1-1-2.6v-9c0-0.7,0.8-1.5,1.5-1.5
				c0.8,0,1.5,0.6,1.5,1.5v4.7c0,0.3,0.1,0.5,0.5,0.5c0.3,0,0.5-0.2,0.5-0.5v-4.7c0-1.3-1.1-2.4-2.4-2.4c-1.3,0-2.4,1.1-2.4,2.4v9
				c0,2.2,1.4,3.4,1.4,3.4l4.8,4.8C6.3,30.8,6.4,30.8,6.6,30.8z"/>
			<path d="M13.9,32.6H5.3c-0.3,0-0.6,0.2-0.6,0.6v2.1c0,0.3,0.1,0.5,0.4,0.5c0.3,0,0.4-0.2,0.4-0.6v-1.8h8v1.9
				c0,0.3,0.1,0.4,0.4,0.4c0.3,0,0.4-0.1,0.4-0.4v-2.2C14.4,32.8,14.2,32.6,13.9,32.6z"/>
			<path d="M3.9,21.8c0,0.6,0.3,1,0.7,1.5l2.9,2.9c0.2,0.2,0.5,0.4,0.8,0.1c0.2-0.2,0.2-0.5-0.1-0.7l-3-3c-0.2-0.2-0.4-0.5-0.4-0.8
				c0-0.3,0.1-0.6,0.3-0.8c0.2-0.2,0.5-0.3,0.8-0.3c0.3,0,0.6,0.1,0.8,0.4l4.2,4.2c0,0,1,0.9,1,2.5v3c0,0.3,0.2,0.6,0.5,0.6
				c0.3,0,0.5-0.3,0.5-0.6v-3c0-2.2-1.2-3.1-1.2-3.1l-4.1-4.1c-0.5-0.4-1-0.8-1.6-0.8c-0.6,0-1.1,0.1-1.5,0.5
				C4,20.7,3.9,21.2,3.9,21.8z"/>
			<path d="M24.2,24.7c-0.1,0-1.1,0.9-1.1,3.1v3c0,0.3,0.1,0.5,0.5,0.5s0.5-0.2,0.5-0.5v-3c0-1.6,1-2.5,1-2.6l4.2-4.2
				c0.2-0.2,0.5-0.4,0.8-0.4c0.3,0,0.6,0.1,0.8,0.3c0.2,0.2,0.3,0.5,0.3,0.7c0,0.3-0.1,0.6-0.4,0.9l-3,3c-0.2,0.2-0.3,0.5-0.1,0.8
				c0.2,0.2,0.5,0,0.8-0.3l3-3c0.5-0.5,0.6-0.9,0.6-1.6c0-0.6-0.2-0.9-0.6-1.3c-0.5-0.5-0.9-0.5-1.5-0.5c-0.6,0-1.1,0.3-1.6,0.7
				L24.2,24.7z"/>
			<path d="M31,8.1c0-4.3-3.5-7.8-7.8-7.8c-3,0-5.8,1.8-7.1,4.5c-0.2,0.4-0.2,0.6,0.2,0.8s0.6-0.1,0.8-0.4c1-2.3,3.7-3.9,6.2-3.9
				c3.5,0,6.8,3.3,6.8,6.8c0,4.2-4.7,11.3-11.8,15.4C11,19.4,6.3,12.3,6.3,8.1c0-3.5,3.3-6.8,6.8-6.8c0.9,0,1.8,0.2,2.6,0.5
				c0.4,0.2,0.8,0.2,0.9-0.1c0.2-0.4,0-0.6-0.4-0.8c-1-0.4-2.1-0.6-3.2-0.6c-4.3,0-7.8,3.5-7.8,7.8c0,4.6,4.4,11.9,12.5,16.3
				c0.1,0.1,0.2,0.1,0.3,0.1c0.1,0,0.2,0,0.3-0.1C26.6,20,31,12.7,31,8.1z"/>
			<path d="M33.6,11.1c-1.3,0-2.4,1.1-2.4,2.4v4.7c0,0.3,0.1,0.6,0.5,0.6s0.5-0.3,0.5-0.6v-4.7c0-0.7,0.8-1.6,1.5-1.6
				c0.7,0,1.5,0.9,1.5,1.6v9c0,1.7-1,2.6-1.1,2.7l-4.8,4.8c-0.2,0.2-0.4,0.5-0.1,0.8c0.1,0.1,0.3,0.1,0.4,0.1s0.2-0.1,0.4-0.2
				l4.8-4.8c0.1,0,1.4-1.2,1.4-3.5v-9C36,12.1,34.9,11.1,33.6,11.1z"/>
			<path d="M30.5,32.6h-8.7c-0.3,0-0.4,0.2-0.4,0.5v2.1c0,0.3,0.1,0.5,0.4,0.5c0.3,0,0.4-0.2,0.4-0.5v-1.8h7.9v1.8
				c0,0.3,0.1,0.5,0.4,0.5c0.3,0,0.4-0.2,0.4-0.5v-2.1C31,32.8,30.8,32.6,30.5,32.6z"/>
			<path d="M24.5,4.5c0,0,1.8,0.8,2.3,2.2C26.9,7,27,7.2,27.3,7.2c0.1,0,0.2,0,0.2,0c0.4-0.1,0.4-0.5,0.3-0.8c-0.5-1.4-1.5-2.5-3-3
				c-0.4-0.1-0.6,0-0.7,0.4C23.9,4.1,24.5,4.5,24.5,4.5z"/>
		</g>
	</g>
</g>
</svg>
