<?xml version="1.0" encoding="utf-8"?>
<!-- Generator: Adobe Illustrator 21.1.0, SVG Export Plug-In . SVG Version: 6.00 Build 0)  -->
<svg version="1.1" id="图层_1" xmlns="http://www.w3.org/2000/svg" xmlns:xlink="http://www.w3.org/1999/xlink" x="0px" y="0px"
	 viewBox="0 0 36 36" style="enable-background:new 0 0 36 36;" xml:space="preserve">
<g>
	<g>
		<path d="M27.4,23.8c-1.2-1.2-2.6-1.2-3.8,0c-0.9,0.9-1.8,1.8-2.7,2.7c-0.2,0.2-0.4,0.3-0.7,0.1c-0.6-0.3-1.2-0.6-1.7-0.9
			c-2.6-1.6-4.7-3.7-6.7-6.1c-1-1.2-1.8-2.4-2.4-3.8c-0.1-0.3-0.1-0.5,0.1-0.7c0.9-0.9,1.8-1.7,2.6-2.6c1.2-1.2,1.2-2.7,0-3.9
			c-0.7-0.7-1.4-1.4-2.1-2.1C9.3,5.8,8.6,5,7.9,4.3c-1.2-1.1-2.6-1.1-3.8,0C3.2,5.2,2.3,6.1,1.4,7C0.5,7.8,0.1,8.8,0,9.9
			c-0.1,1.9,0.3,3.6,1,5.3c1.3,3.6,3.3,6.7,5.8,9.6c3.3,3.9,7.2,7,11.8,9.2c2.1,1,4.2,1.8,6.5,1.9c1.6,0.1,3-0.3,4.1-1.6
			c0.8-0.9,1.6-1.6,2.4-2.4c1.2-1.2,1.2-2.7,0-3.9C30.2,26.7,28.8,25.2,27.4,23.8z"/>
		<path d="M25.9,17.8l2.8-0.5c-0.4-2.5-1.6-4.8-3.5-6.7c-1.9-1.9-4.4-3.1-7-3.5L17.8,10c2.1,0.3,4,1.2,5.5,2.7
			C24.7,14.1,25.6,15.9,25.9,17.8z"/>
		<path d="M30.3,5.8C27.1,2.6,23,0.6,18.6,0l-0.4,2.8c3.9,0.5,7.3,2.3,10.1,5c2.6,2.6,4.3,5.9,5,9.6l2.8-0.5
			C35.3,12.7,33.3,8.9,30.3,5.8z"/>
	</g>
</g>
</svg>
