<?xml version="1.0" encoding="utf-8"?>
<!-- Generator: Adobe Illustrator 21.1.0, SVG Export Plug-In . SVG Version: 6.00 Build 0)  -->
<svg version="1.1" id="图层_1" xmlns="http://www.w3.org/2000/svg" xmlns:xlink="http://www.w3.org/1999/xlink" x="0px" y="0px"
	 viewBox="0 0 36 36" style="enable-background:new 0 0 36 36;" xml:space="preserve">
<g>
	<path d="M12.4,22.1c-0.8,0-0.9,0.7-0.9,1.5c0,0.8,0.7,1.5,1.5,1.5c0.8,0,1.5-0.7,1.5-1.5S13.3,22.1,12.4,22.1L12.4,22.1L12.4,22.1z
		 M17.5,26.2c-0.4,0-0.7,0.3-0.7,0.7c0,0.4,0.3,0.7,0.7,0.7s0.7-0.3,0.7-0.7S17.9,26.2,17.5,26.2L17.5,26.2L17.5,26.2z M14.6,11.7
		c-0.1,0.1-0.2,0.2-0.2,0.4c0,0.3,0.3,0.6,0.6,0.6c0.1,0,0.1,0,0.2,0v-0.9h-0.6V11.7z M14.8,18.2c-0.5,0-0.8,0.4-0.8,0.8
		c0,0.5,0.4,0.8,0.8,0.8c0.5,0,0.8-0.4,0.8-0.8v-0.1c-0.1-0.1-0.2-0.3-0.2-0.4C15.2,18.3,15,18.2,14.8,18.2L14.8,18.2L14.8,18.2z
		 M13.5,14c-0.2,0-0.4,0.1-0.5,0.4v0.4c0.1,0.2,0.3,0.4,0.5,0.4c0.3,0,0.6-0.3,0.6-0.6C14.1,14.3,13.8,14,13.5,14L13.5,14L13.5,14z
		 M17,21.2l4.5,7.3H11.1C11,28,10.6,27.7,10,27.7c-0.5,0-0.9,0.4-1.1,0.8H6.7l4.5-7.4L17,21.2z"/>
	<path d="M23.9,3.8c0-1.1-0.5-2.4-1.6-2.6C21.6,0.9,21.7,0,22.4,0h10.5c0.7,0,0.8,1,0.1,1.1c-1.3,0.3-1.7,1.5-1.7,2.5v28.7
		c0,4.5-6.1,4.8-7.3,1.2c0.6-0.1,1.1-0.3,1.6-0.6c0.2,0.6,0.6,1,1.1,1.2c0.3,0.1,0.6,0.2,0.9,0.2s0.6-0.1,0.9-0.2
		c0.6-0.2,1.1-0.8,1.1-1.8l0,0V3.6c0-0.7,0.1-1.4,0.4-2h-4.9c0.3,0.7,0.4,1.4,0.4,2.1v7.1H28v1.1h-2.4v1.7h1.1v1.1h-1.1v1.7H28v1.1
		h-2.4v1.7h1.1v1.1h-1.1V22H28v1.1h-2.4v1.7h1.1V26h-0.8l-2-3.3L23.9,3.8z"/>
	<path d="M12.1,7.9v1.6c0,0.3,0.2,0.5,0.4,0.5h3.1c0.2,0,0.4-0.2,0.4-0.5V7.9h0.8v9.7c0,0.2,0,0.3,0.1,0.4l6.8,11.1
		c0.2,0.3,0.3,1.1-0.4,1.1H4.7c-0.7,0-0.6-0.9-0.4-1.2l6.9-11c0.1-0.1,0.1-0.3,0.1-0.4c0,0,0-9.1,0-9.7L12.1,7.9L12.1,7.9z
		 M23.4,31.9L23.4,31.9c2,0,2.8-2.2,1.8-3.7l-6.7-10.8V7.9h0.3c0.5,0,0.8-0.4,0.8-0.8c0-0.5-0.4-0.8-0.8-0.8H16V4.9
		c0-0.3-0.2-0.5-0.4-0.5h-3.1c-0.2,0-0.4,0.2-0.4,0.5v1.3H9.3C8.8,6.2,8.4,6.6,8.4,7c0,0.5,0.4,0.8,0.8,0.8h0.3c0,5.6,0-1,0,9.5
		L2.9,28.2c-0.9,1.5-0.2,3.7,1.8,3.7C4.7,31.9,23.4,31.9,23.4,31.9z"/>
</g>
</svg>
