<?xml version="1.0" encoding="utf-8"?>
<!-- Generator: Adobe Illustrator 21.1.0, SVG Export Plug-In . SVG Version: 6.00 Build 0)  -->
<svg version="1.1" id="图层_1" xmlns="http://www.w3.org/2000/svg" xmlns:xlink="http://www.w3.org/1999/xlink" x="0px" y="0px"
	 viewBox="0 0 36 36" style="enable-background:new 0 0 36 36;" xml:space="preserve">
<g>
	<path d="M16.1,28.5c6.8,0,12.4-5.5,12.4-12.4S22.9,3.7,16.1,3.7S3.7,9.3,3.7,16.1S9.3,28.5,16.1,28.5z M16.1,32.2
		C7.2,32.2,0,25,0,16.1S7.2,0,16.1,0s16.1,7.2,16.1,16.1S25,32.2,16.1,32.2z"/>
	<path d="M28.3,24.8l-3.5,3.5l7,7c1,1,2.5,1,3.5,0c0,0,0,0,0,0c1-1,1-2.5,0-3.5c0,0,0,0,0,0L28.3,24.8z"/>
</g>
</svg>
