<?xml version="1.0" standalone="no"?>
<!DOCTYPE svg PUBLIC "-//W3C//DTD SVG 1.1//EN" "http://www.w3.org/Graphics/SVG/1.1/DTD/svg11.dtd" >
<svg xmlns="http://www.w3.org/2000/svg" xmlns:xlink="http://www.w3.org/1999/xlink" version="1.1">
<metadata>
Created by FontForge 20161003 at Sun Oct 29 16:23:43 2017
 By www-data
Copyright (c) 1987, 1991, 1994, 1998 Adobe Systems Incorporated. All Rights Reserved.Univers is a trademark of Linotype-Hell AG and/or its subsidiaries.
</metadata>
<defs>
<font id="UniversLT57Condensed" horiz-adv-x="500" >
  <font-face 
    font-family="UniversLT57Condensed"
    font-weight="400"
    font-stretch="normal"
    units-per-em="1000"
    panose-1="2 0 5 3 5 0 0 2 0 3"
    ascent="800"
    descent="-200"
    x-height="505"
    cap-height="722"
    bbox="-166 -250 1000 989"
    underline-thickness="50"
    underline-position="-175"
    unicode-range="U+0020-FB02"
  />
<missing-glyph horiz-adv-x="222" 
 />
    <glyph glyph-name=".notdef" horiz-adv-x="222" 
 />
    <glyph glyph-name=".null" horiz-adv-x="0" 
 />
    <glyph glyph-name="nonmarkingreturn" horiz-adv-x="333" 
 />
    <glyph glyph-name="space" unicode=" " horiz-adv-x="222" 
 />
    <glyph glyph-name="space" unicode="&#xa0;" horiz-adv-x="222" 
 />
    <glyph glyph-name="exclam" unicode="!" horiz-adv-x="333" 
d="M214 0h-94v104h94v-104zM130 167l-18 555h109l-20 -555h-71z" />
    <glyph glyph-name="quotedbl" unicode="&#x22;" horiz-adv-x="250" 
d="M155 722h60v-207h-60v207zM35 722h60v-207h-60v207z" />
    <glyph glyph-name="numbersign" unicode="#" horiz-adv-x="444" 
d="M245 290l35 114h-81l-34 -114h80zM96 234h-99l17 56h99l35 114h-101l17 56h100l73 234h51l-73 -234h82l71 234h52l-72 -234h102l-17 -56h-102l-35 -114h103l-17 -56h-103l-72 -234h-51l72 234h-80l-74 -234h-51z" />
    <glyph glyph-name="dollar" unicode="$" horiz-adv-x="444" 
d="M200 625q-37 -5 -60.5 -30.5t-23.5 -67.5t24 -67t60 -44v209zM243 65q45 5 74 33t29 76q0 22 -8 39.5t-22.5 31.5t-33 26.5t-39.5 23.5v-230zM243 -74h-43v59q-53 0 -88.5 15.5t-57.5 39.5t-32.5 52t-14.5 53t-3.5 43.5t1.5 22.5h94q0 -27 5.5 -52.5t17.5 -45.5t31 -33
t47 -15v252q-32 16 -64 33.5t-57.5 40.5t-41 53.5t-15.5 72.5t13.5 76.5t37.5 59t56.5 38.5t70.5 14v59h43v-59q100 0 148 -53t48 -151h-101q1 55 -19.5 88t-75.5 36v-231q34 -16 69 -33.5t63.5 -41.5t46.5 -58.5t18 -83.5q0 -52 -18.5 -88.5t-47.5 -59.5t-63.5 -33.5
t-67.5 -10.5v-59z" />
    <glyph glyph-name="percent" unicode="%" horiz-adv-x="778" 
d="M579 311q-22 0 -33.5 -8.5t-17 -25t-6.5 -42t-1 -59.5t1 -59.5t6.5 -42t17 -25t33.5 -8.5t33.5 8.5t17 25t6.5 42t1 59.5t-1 59.5t-6.5 42t-17 25t-33.5 8.5zM198 681q-22 0 -33.5 -8.5t-17 -25t-6.5 -42t-1 -59.5t1 -59.5t6.5 -42t17 -25t33.5 -8.5t33.5 8.5t17 25
t6.5 42t1 59.5t-1 59.5t-6.5 42t-17 25t-33.5 8.5zM248 -36h-63l341 794h65zM579 367q45 0 71 -17t38.5 -44.5t15.5 -62t3 -69.5q0 -36 -3 -70t-15.5 -60.5t-38.5 -42.5t-71 -16t-71 16t-38.5 42.5t-15.5 60.5t-3 70q0 35 3 69.5t15.5 62t38.5 44.5t71 17zM198 737
q45 0 71 -17t38.5 -44.5t15.5 -62t3 -69.5q0 -36 -3 -70t-15.5 -60.5t-38.5 -42.5t-71 -16t-71 16t-38.5 42.5t-15.5 60.5t-3 70q0 35 3 69.5t15.5 62t38.5 44.5t71 17z" />
    <glyph glyph-name="ampersand" unicode="&#x26;" horiz-adv-x="667" 
d="M292 456q13 11 27 25t26 30.5t19.5 35t7.5 39.5q0 38 -21 59.5t-58 21.5q-35 0 -57.5 -22.5t-22.5 -58.5q0 -19 8.5 -36t21 -33.5t26 -31.5t23.5 -29zM265 359q-24 -16 -45 -32t-37 -35t-25.5 -43t-9.5 -55q0 -29 11 -53.5t30.5 -42t47 -27t59.5 -9.5q49 0 84 16t63 56z
M492 74q-41 -50 -89 -69.5t-112 -19.5q-49 0 -92 12.5t-75.5 38.5t-51 64.5t-18.5 91.5q0 45 12 76.5t33.5 56.5t50.5 45.5t64 41.5q-16 18 -32.5 39.5t-30.5 44.5t-23 48t-9 50q0 39 15 66.5t40 44.5t57 24.5t66 7.5t65 -8.5t54 -26.5t36.5 -45.5t13.5 -65.5
q0 -29 -11 -55.5t-28 -50.5t-38.5 -46t-43.5 -40l141 -179q5 18 8 37t4.5 43t1.5 54v71h82q0 -58 -3 -101t-8.5 -74.5t-14 -54t-18.5 -40.5l116 -155h-104z" />
    <glyph glyph-name="quotesingle" unicode="'" horiz-adv-x="250" 
d="M95 722h60v-207h-60v207z" />
    <glyph glyph-name="parenleft" unicode="(" horiz-adv-x="278" 
d="M149 -118q-17 53 -34.5 106t-31.5 107t-23.5 108.5t-9.5 110.5q0 58 9.5 114t24 110.5t32 109t34.5 108.5h61q-28 -110 -47.5 -221t-19.5 -225q0 -109 19 -215.5t44 -212.5h-58z" />
    <glyph glyph-name="parenright" unicode=")" horiz-adv-x="278" 
d="M71 -118q25 106 44 212.5t19 215.5q0 114 -19.5 225t-47.5 221h61q17 -54 34.5 -108.5t32 -109t24 -110.5t9.5 -114q0 -56 -9.5 -110.5t-23.5 -108.5t-32 -107t-34 -106h-58z" />
    <glyph glyph-name="asterisk" unicode="*" horiz-adv-x="444" 
d="M256 537l91 -130l-58 -32l-67 144l-67 -144l-58 32l91 130l-156 -15v66l156 -12l-90 127l59 34l65 -142l65 142l59 -34l-90 -127l156 12v-66z" />
    <glyph glyph-name="plus" unicode="+" 
d="M219 505h62v-221h176v-62h-176v-222h-62v222h-176v62h176v221z" />
    <glyph glyph-name="comma" unicode="," horiz-adv-x="222" 
d="M86 104h103l-91 -231h-64z" />
    <glyph glyph-name="hyphen" unicode="-" horiz-adv-x="333" 
d="M56 311h220v-77h-220v77z" />
    <glyph glyph-name="hyphen" unicode="&#xad;" horiz-adv-x="333" 
d="M56 311h220v-77h-220v77z" />
    <glyph glyph-name="period" unicode="." horiz-adv-x="222" 
d="M158 0h-94v104h94v-104z" />
    <glyph glyph-name="slash" unicode="/" horiz-adv-x="278" 
d="M43 -96h-67l235 818h67z" />
    <glyph glyph-name="zero" unicode="0" horiz-adv-x="444" 
d="M222 628q-35 0 -54.5 -21t-28.5 -60t-10.5 -95t-1.5 -126q0 -44 0.5 -90.5t8.5 -85t28 -63.5t58 -25t57.5 25t28 63.5t9 85t0.5 90.5q0 70 -1.5 126t-10.5 95t-28.5 60t-54.5 21zM222 705q71 0 109 -30t55.5 -80.5t20 -115.5t2.5 -135q0 -68 -3 -132.5t-20 -115
t-55.5 -81t-108.5 -30.5q-47 0 -79 14t-53 39t-32 59t-16 73.5t-6 84t-1 89.5q0 70 2.5 135t19.5 115.5t55.5 80.5t109.5 30z" />
    <glyph glyph-name="one" unicode="1" horiz-adv-x="444" 
d="M289 0h-92v593l-104 -70v88q9 4 24 14t32.5 22.5t33.5 25t27 21.5h79v-694z" />
    <glyph glyph-name="two" unicode="2" horiz-adv-x="444" 
d="M43 0v80q76 106 126.5 174t81 115.5t43 84.5t12.5 82q0 42 -20.5 67t-65.5 25q-26 0 -42 -10t-25 -25.5t-11.5 -36t-2.5 -41.5h-94q-6 87 36.5 138.5t131.5 51.5q94 0 139.5 -44t45.5 -138q0 -39 -6.5 -70.5t-20 -61t-34.5 -59.5t-49.5 -66.5t-65 -81.5t-81.5 -104h275
v-80h-373z" />
    <glyph glyph-name="three" unicode="3" horiz-adv-x="444" 
d="M169 404q31 -3 57 2.5t45 19t29.5 37t10.5 56.5q0 48 -22.5 78.5t-73.5 30.5q-29 0 -46 -10t-26.5 -25.5t-12 -36t-2.5 -41.5h-92q-5 89 38.5 139.5t140.5 50.5q89 0 138.5 -44.5t49.5 -135.5q0 -49 -16 -79t-37.5 -47t-45 -24t-38.5 -11v-2q82 -11 113 -55t31 -122
q0 -102 -53 -151t-153 -49q-48 0 -80.5 12.5t-52.5 32t-29.5 43.5t-13 47t-3.5 42v29h92q0 -26 3.5 -49.5t13.5 -41t28.5 -28t49.5 -10.5q30 0 50.5 9t33 25.5t17.5 39.5t5 51q0 42 -8 68.5t-26 41.5t-46.5 20.5t-68.5 5.5v81z" />
    <glyph glyph-name="four" unicode="4" horiz-adv-x="444" 
d="M257 249v361h-2l-150 -361h152zM25 169v80l196 445h122v-445h82v-80h-82v-169h-86v169h-232z" />
    <glyph glyph-name="five" unicode="5" horiz-adv-x="444" 
d="M383 694v-80h-232v-202l2 -2q11 23 43 37.5t67 14.5q75 0 110 -56.5t35 -177.5q0 -42 -5 -85t-24 -78t-56.5 -57.5t-102.5 -22.5q-54 0 -87.5 14t-52 37.5t-25 54.5t-6.5 66h92q0 -20 4 -39t14 -33.5t25.5 -23.5t38.5 -9q33 0 51.5 14.5t27.5 36.5t11.5 49t2.5 53
q0 38 -2 71t-10.5 57t-26.5 38t-50 14q-38 0 -58.5 -23t-26.5 -58h-83v390h324z" />
    <glyph glyph-name="six" unicode="6" horiz-adv-x="444" 
d="M130 225q0 -26 3 -54.5t13 -52.5t29.5 -40t52.5 -16q28 0 45.5 14t27 38t12.5 55.5t3 65.5q0 24 -3.5 48.5t-13.5 45t-28.5 33.5t-48.5 13t-48.5 -14.5t-28 -37t-12.5 -49t-3 -49.5zM223 -15q-47 0 -79 14t-53 39t-32 59t-16 73.5t-6 84t-1 89.5q0 70 2.5 135t19.5 115.5
t55.5 80.5t109.5 30q39 0 71.5 -11.5t55 -33.5t34.5 -53.5t11 -70.5h-92q0 18 -5 36t-15 33t-25 24t-36 9q-28 0 -46.5 -13t-29 -43t-14.5 -78t-4 -117h2q17 30 47 47.5t66 17.5q33 0 63 -11t52.5 -37.5t36 -71.5t13.5 -113q0 -47 -10 -89t-32 -74.5t-57 -51.5t-86 -19z" />
    <glyph glyph-name="seven" unicode="7" horiz-adv-x="444" 
d="M30 694h359v-80l-185 -614h-104l194 614h-264v80z" />
    <glyph glyph-name="eight" unicode="8" horiz-adv-x="444" 
d="M222 408q26 0 42.5 12.5t26.5 31.5t13.5 41t3.5 41t-5 38t-15.5 33.5t-27 23.5t-38.5 9t-38.5 -9t-27 -23.5t-15.5 -33.5t-5 -38t3.5 -41t13.5 -41t26.5 -31.5t42.5 -12.5zM222 62q26 0 43.5 11t28.5 28.5t16 39.5t5 45t-2.5 48t-12 46t-28 34.5t-50.5 13.5t-50.5 -13.5
t-28 -34.5t-12 -46t-2.5 -48t5 -45t16 -39.5t28.5 -28.5t43.5 -11zM279 367q38 -4 63 -20t39.5 -40t20 -55t5.5 -65q0 -94 -47 -148t-138 -54t-138 54t-47 148q0 34 5.5 65t20 55t39.5 40t63 20v1q-31 6 -53.5 21t-37.5 37t-22.5 48.5t-7.5 56.5q0 82 48 128t130 46t130 -46
t48 -128q0 -30 -7.5 -56.5t-22.5 -48.5t-37.5 -37t-53.5 -21v-1z" />
    <glyph glyph-name="nine" unicode="9" horiz-adv-x="444" 
d="M221 638q-30 0 -48 -13.5t-28 -34.5t-13.5 -46.5t-3.5 -49.5q0 -26 3.5 -51.5t13 -46t28 -33.5t48.5 -13t48.5 13t28 33.5t13 46t3.5 51.5q0 24 -3.5 49.5t-13.5 46.5t-28 34.5t-48 13.5zM221 705q71 0 109 -30t55.5 -80.5t20 -115.5t2.5 -135q0 -68 -3 -132.5t-20 -115
t-55.5 -81t-108.5 -30.5q-39 0 -71 13t-54.5 36.5t-34.5 57t-11 74.5h92q0 -19 4 -37.5t13.5 -33.5t24.5 -24t37 -9q33 0 52 18t28.5 53t12 86.5t2.5 118.5h-2q-17 -36 -48 -50.5t-71 -14.5q-21 0 -48 7.5t-52 30.5t-42 66.5t-17 114.5q0 58 16 99t42 66t59 36.5t68 11.5z
" />
    <glyph glyph-name="colon" unicode=":" horiz-adv-x="222" 
d="M158 0h-94v104h94v-104zM158 401h-94v104h94v-104z" />
    <glyph glyph-name="semicolon" unicode=";" horiz-adv-x="222" 
d="M158 401h-94v104h94v-104zM86 104h103l-91 -231h-64z" />
    <glyph glyph-name="less" unicode="&#x3c;" 
d="M459 60v-73l-417 234v64l417 230v-73l-339 -189z" />
    <glyph glyph-name="equal" unicode="=" 
d="M457 125h-414v62h414v-62zM457 322h-414v62h414v-62z" />
    <glyph glyph-name="greater" unicode="&#x3e;" 
d="M380 253l-339 189v73l417 -230v-64l-417 -234v73z" />
    <glyph glyph-name="question" unicode="?" horiz-adv-x="444" 
d="M266 0h-94v104h94v-104zM178 183v114q0 33 19 61.5t41.5 60t41.5 68t19 85.5q0 16 -4.5 33.5t-13.5 32t-23 23.5t-34 9q-27 0 -42 -14.5t-22.5 -35.5t-8.5 -45.5t-1 -43.5h-94q-2 46 6.5 84t29 65t54.5 42t84 15q78 0 120.5 -45.5t42.5 -121.5q0 -41 -10 -74t-24.5 -59
t-32 -47.5t-32 -40.5t-24.5 -36.5t-10 -36.5v-93h-82z" />
    <glyph glyph-name="at" unicode="@" horiz-adv-x="788" 
d="M431 536q-40 0 -72 -24.5t-54.5 -61.5t-35 -79t-12.5 -76q0 -18 5 -35.5t15 -31t24.5 -21.5t33.5 -8q29 0 53 16.5t42.5 42.5t32 57t22.5 60.5t13 53t4 34.5q0 29 -19.5 51t-51.5 22zM558 576h69l-103 -305q-4 -11 -8.5 -26t-4.5 -26q0 -13 8.5 -19.5t21.5 -6.5
q23 0 52 15t54.5 44.5t43 74t17.5 103.5q0 15 -3.5 39.5t-14.5 52.5t-31.5 56t-54.5 51t-84 37.5t-119 14.5q-67 0 -125.5 -25t-102 -68.5t-68.5 -102t-25 -124.5q0 -67 25 -125t68.5 -101.5t102 -68.5t125.5 -25q91 0 165 33.5t119 99.5h60q-24 -44 -60 -79t-80.5 -59.5
t-96 -37.5t-107.5 -13q-78 0 -146.5 29.5t-120 80.5t-81 119.5t-29.5 147.5q0 78 29.5 146.5t81 119t120 80t146.5 29.5q85 0 144.5 -20t100 -50.5t64 -68t35.5 -71.5t15.5 -60.5t3.5 -36.5q0 -85 -26.5 -141.5t-64 -90t-78 -47.5t-68.5 -14q-26 0 -52 12.5t-35 40.5
q-23 -24 -55.5 -37.5t-64.5 -13.5t-58 12t-44 32.5t-28 48t-10 58.5q0 51 18 105t51 98.5t79 73.5t102 29q35 0 66.5 -17t47.5 -50z" />
    <glyph glyph-name="A" unicode="A" horiz-adv-x="611" 
d="M300 637h-2l-113 -385h231zM244 722h117l235 -722h-103l-52 172h-279l-54 -172h-93z" />
    <glyph glyph-name="B" unicode="B" horiz-adv-x="611" 
d="M182 418h134q54 1 80.5 31.5t26.5 83.5q0 45 -26.5 77t-84.5 32h-130v-224zM182 80h130q37 0 62 12t41 30t23 39.5t7 41.5q0 43 -12.5 69.5t-34.5 41t-52.5 19.5t-65.5 5h-98v-258zM90 0v722h235q37 0 63.5 -6t44.5 -16t30.5 -23.5t22.5 -28.5q9 -15 15 -29.5t9 -27.5
t4 -23.5t1 -15.5q0 -68 -27 -111.5t-97 -59.5v-5q78 -9 113 -53.5t35 -119.5q0 -69 -22.5 -109.5t-55.5 -61.5t-70.5 -26.5t-68.5 -5.5h-232z" />
    <glyph glyph-name="C" unicode="C" horiz-adv-x="556" 
d="M399 523q1 31 -3 59.5t-18 45.5q-7 9 -18 14.5t-22.5 9.5t-22.5 5.5t-18 1.5q-29 0 -49 -7.5t-33 -17t-19.5 -18.5t-7.5 -13q-1 -3 -4.5 -9.5t-7 -22t-6.5 -44t-3 -74.5v-193q0 -66 10 -105.5t27.5 -60t41 -26.5t50.5 -6q10 0 29 4t38 19t33 45t14 83h95q1 -57 -10.5 -96
t-30 -64.5t-42 -39t-46.5 -20t-43 -7.5t-32 -1q-34 0 -73.5 5.5t-74 32.5t-57.5 85t-23 163v204q0 76 16.5 126.5t46.5 80.5t73 42.5t96 12.5q107 0 151.5 -54.5t37.5 -159.5h-95z" />
    <glyph glyph-name="D" unicode="D" horiz-adv-x="611" 
d="M175 80h87q48 0 81.5 10t54 35t30 66.5t9.5 104.5v146q0 109 -34.5 154.5t-106.5 45.5h-121v-562zM83 722h222q69 0 118 -26t76 -84q11 -23 17.5 -58t9.5 -70t4 -63t1 -37q0 -116 -10.5 -185.5t-33.5 -105.5q-29 -47 -86 -70t-152 -23h-166v722z" />
    <glyph glyph-name="E" unicode="E" 
d="M81 0v722h372v-80h-280v-232h260v-80h-260v-250h286v-80h-378z" />
    <glyph glyph-name="F" unicode="F" horiz-adv-x="444" 
d="M74 0v722h358v-80h-266v-232h252v-80h-252v-330h-92z" />
    <glyph glyph-name="G" unicode="G" horiz-adv-x="611" 
d="M427 529q0 64 -29 97.5t-99 33.5q-11 0 -33 -3t-44.5 -18t-39 -46.5t-16.5 -88.5v-244q0 -59 8.5 -97.5t25.5 -61t41.5 -31t57.5 -8.5q50 0 82.5 10.5t46.5 21.5v216h-133v80h225v-351q-45 -24 -98 -39t-123 -15q-115 0 -171 64.5t-56 214.5v237q0 108 56 172t171 64
q117 0 172.5 -47.5t51.5 -160.5h-96z" />
    <glyph glyph-name="H" unicode="H" horiz-adv-x="611" 
d="M87 0v722h92v-312h253v312h92v-722h-92v330h-253v-330h-92z" />
    <glyph glyph-name="I" unicode="I" horiz-adv-x="278" 
d="M185 0h-92v722h92v-722z" />
    <glyph glyph-name="J" unicode="J" 
d="M126 224q1 -24 1.5 -52.5t8 -53t25.5 -40.5t53 -16q37 0 57.5 14.5t31 38.5t13 55t2.5 64v488h92v-543q0 -10 -1 -28t-6.5 -39.5t-17.5 -44t-34.5 -41t-56.5 -30t-83 -11.5q-15 0 -35.5 3t-42 11t-41.5 22t-33 35q-22 36 -25.5 80t-3.5 88h96z" />
    <glyph glyph-name="K" unicode="K" horiz-adv-x="556" 
d="M81 0v722h92v-317h3l252 317h104l-262 -326l277 -396h-118l-253 377h-3v-377h-92z" />
    <glyph glyph-name="L" unicode="L" horiz-adv-x="444" 
d="M81 0v722h92v-642h265v-80h-357z" />
    <glyph glyph-name="M" unicode="M" horiz-adv-x="833" 
d="M168 0h-86v722h149l182 -606h2l184 606h152v-722h-92v642h-2l-202 -642h-87l-198 642h-2v-642z" />
    <glyph glyph-name="N" unicode="N" horiz-adv-x="667" 
d="M581 722v-722h-126l-285 626h-2v-626h-82v722h130l281 -618h2v618h82z" />
    <glyph glyph-name="O" unicode="O" horiz-adv-x="611" 
d="M305 62q33 0 57.5 8.5t41.5 31t25.5 61t8.5 97.5v244q0 57 -16.5 88.5t-39 46.5t-44.5 18t-33 3t-33 -3t-44.5 -18t-39 -46.5t-16.5 -88.5v-244q0 -59 8.5 -97.5t25.5 -61t41.5 -31t57.5 -8.5zM305 -15q-115 0 -171 64.5t-56 214.5v237q0 108 56 172t171 64t171 -64
t56 -172v-237q0 -150 -56 -214.5t-171 -64.5z" />
    <glyph glyph-name="P" unicode="P" horiz-adv-x="556" 
d="M185 398h101q14 0 36 3.5t42.5 16t35 37t14.5 66.5q0 41 -13 65t-30.5 36.5t-34.5 16t-24 3.5h-127v-244zM93 0v722h214q36 0 72 -8.5t64.5 -31t46.5 -62.5t18 -104q0 -62 -21 -100.5t-52 -60t-66 -29.5t-63 -8h-121v-318h-92z" />
    <glyph glyph-name="Q" unicode="Q" horiz-adv-x="611" 
d="M300 74q40 0 66 12t40.5 36t20 58.5t5.5 79.5v244q0 57 -16.5 88.5t-39 46.5t-44.5 18t-33 3t-33 -3t-44.5 -18t-39 -46.5t-16.5 -88.5v-244q0 -45 5.5 -79.5t20.5 -58.5t41 -36t67 -12zM72 501q0 108 56 172t171 64t171 -64t56 -172v-237q0 -20 -4 -50.5t-12 -61
t-20 -55t-27 -31.5l2 -2q5 1 13.5 4t17.5 5.5t17.5 4.5t14.5 2h72v-80h-300q-24 0 -50.5 1.5t-52 9.5t-48.5 24.5t-40 45.5t-27 73.5t-10 109.5v237z" />
    <glyph glyph-name="R" unicode="R" horiz-adv-x="556" 
d="M171 412h138q25 0 43.5 10t30.5 26.5t18 38t6 45.5q0 19 -5 39t-16.5 35.5t-30 25.5t-45.5 10h-139v-230zM171 332v-332h-92v722h249q48 0 81 -15.5t53.5 -41t29.5 -57.5t9 -66q0 -64 -34 -109t-98 -56v-2q31 -5 52.5 -14t35.5 -29.5t21 -54.5t9 -88q0 -12 2 -36.5
t5.5 -53t8 -55.5t9.5 -44h-96q-10 19 -14.5 45t-6.5 57.5t-3 66.5t-4 71q-3 33 -16 51.5t-29.5 27.5t-34 11t-29.5 2h-108z" />
    <glyph glyph-name="S" unicode="S" horiz-adv-x="556" 
d="M152 215v-21q0 -37 10.5 -61.5t28 -39.5t39 -21.5t43.5 -6.5q27 0 51 6t41 20t27 36.5t10 54.5q0 40 -24 67t-60 49t-78 42t-78 47t-60 63.5t-24 90.5q0 48 16 84.5t44.5 61.5t67.5 37.5t84 12.5q99 0 151.5 -50.5t48.5 -160.5h-96q1 59 -22.5 95t-88.5 36
q-21 0 -40.5 -5.5t-35.5 -18t-25.5 -33t-9.5 -49.5q0 -40 24 -66.5t60 -48t78 -42t78 -47.5t60 -65.5t24 -95.5t-18.5 -95.5t-49 -62t-71 -33.5t-85.5 -10q-53 -1 -89.5 11.5t-60 32t-36.5 45t-18.5 51t-6.5 49.5t0 41h91z" />
    <glyph glyph-name="T" unicode="T" 
d="M486 722v-80h-190v-642h-92v642h-190v80h472z" />
    <glyph glyph-name="U" unicode="U" horiz-adv-x="611" 
d="M78 722h92v-462q0 -59 9 -97.5t26 -61t42 -31t58 -8.5t58 8.5t42 31t26 61t9 97.5v462h92v-458q0 -150 -56 -214.5t-171 -64.5t-171 64.5t-56 214.5v458z" />
    <glyph glyph-name="V" unicode="V" horiz-adv-x="556" 
d="M332 0h-110l-209 722h100l165 -635h2l169 635h94z" />
    <glyph glyph-name="W" unicode="W" horiz-adv-x="889" 
d="M6 722h98l136 -626h2l145 626h119l131 -626h2l147 626h96l-191 -722h-112l-137 626h-2l-146 -626h-112z" />
    <glyph glyph-name="X" unicode="X" horiz-adv-x="556" 
d="M544 0h-111l-168 309l-159 -309h-100l208 374l-197 348h106l148 -280l150 280h101l-194 -348z" />
    <glyph glyph-name="Y" unicode="Y" 
d="M398 722h93l-197 -447v-275h-92v275l-194 447h103l141 -349z" />
    <glyph glyph-name="Z" unicode="Z" 
d="M467 630l-358 -550h366v-80h-451v104l350 536v2h-338v80h431v-92z" />
    <glyph glyph-name="bracketleft" unicode="[" horiz-adv-x="278" 
d="M70 -118v874h166v-56h-84v-762h87v-56h-169z" />
    <glyph glyph-name="backslash" unicode="\" horiz-adv-x="278" 
d="M-1 722h67l212 -737h-67z" />
    <glyph glyph-name="bracketright" unicode="]" horiz-adv-x="278" 
d="M39 -118v56h87v762h-84v56h166v-874h-169z" />
    <glyph glyph-name="asciicircum" unicode="^" 
d="M277 694l156 -417h-75l-112 318h-2l-110 -318h-68l151 417h60z" />
    <glyph glyph-name="underscore" unicode="_" 
d="M0 -125v50h500v-50h-500z" />
    <glyph glyph-name="grave" unicode="`" horiz-adv-x="278" 
d="M129 722l89 -141h-67l-131 141h109z" />
    <glyph glyph-name="a" unicode="a" 
d="M330 251q-29 0 -61.5 -1t-59.5 -10t-44.5 -29.5t-17.5 -60.5q0 -37 19 -65t60 -28q19 0 38.5 7.5t35 28.5t24.5 59t6 99zM332 73h-2q-19 -44 -49 -63.5t-78 -19.5q-40 0 -66.5 12.5t-42.5 34.5t-22.5 52.5t-6.5 66.5q0 57 25 89.5t64 47.5t86 18t90 2q1 25 0 50t-9 45
t-25.5 32.5t-50.5 12.5q-42 0 -62.5 -25t-16.5 -65h-89q3 85 46.5 118.5t124.5 33.5q49 0 80.5 -12t50 -32.5t26 -48t7.5 -59.5v-243q0 -30 2.5 -60.5t7.5 -59.5h-90v73z" />
    <glyph glyph-name="b" unicode="b" 
d="M161 273v-67q0 -37 8 -70t27 -56t57 -23q39 0 59.5 18.5t30.5 46t11.5 60t1.5 61.5q0 51 -3.5 89t-14 64t-30 39t-52.5 13q-34 0 -53 -18t-28.5 -44.5t-11.5 -57t-2 -55.5zM161 0h-82v722h82v-268h3q21 30 48 45.5t63 15.5q61 0 95 -24.5t50 -63.5t19 -87.5t3 -95.5
q0 -83 -14 -133t-37 -77t-52.5 -35.5t-59.5 -8.5q-40 0 -67.5 17.5t-48.5 52.5h-2v-60z" />
    <glyph glyph-name="c" unicode="c" 
d="M336 343q1 31 -5.5 51.5t-17 32.5t-23 16.5t-24.5 4.5q-24 0 -43.5 -7t-33.5 -25.5t-21.5 -51t-7.5 -84.5q0 -62 4.5 -104.5t16.5 -68.5t32.5 -38t52.5 -12q7 0 20 4.5t25 17t20.5 34t7.5 55.5h86q1 -53 -16 -87.5t-41.5 -54.5t-52.5 -28t-49 -8q-40 0 -75 8.5t-61 35.5
t-41 77t-15 134q0 55 5.5 104.5t25 86t57.5 58t104 21.5q76 0 117.5 -43.5t37.5 -128.5h-85z" />
    <glyph glyph-name="d" unicode="d" 
d="M339 273q0 25 -2 55.5t-11.5 57t-28.5 44.5t-53 18q-33 0 -53 -13t-30.5 -39t-13.5 -64t-3 -89q0 -29 1.5 -61.5t11.5 -60t30.5 -46t59.5 -18.5q34 0 53 19.5t27.5 50.5t10 69.5t1.5 76.5zM339 722h82v-722h-82v60h-2q-21 -35 -48.5 -52.5t-67.5 -17.5q-30 0 -59.5 8.5
t-52.5 35.5t-37 77t-14 133q0 47 3 95.5t19 87.5t50 63.5t95 24.5q36 0 63 -15.5t48 -45.5h3v268z" />
    <glyph glyph-name="e" unicode="e" 
d="M349 288q0 55 -7.5 87.5t-20.5 50t-32 22.5t-41 5q-20 0 -37 -6t-30 -24t-21 -50.5t-8 -84.5h197zM152 226q0 -53 7 -86t20 -51.5t32 -25t43 -6.5q21 0 37 8t27 21t17 30.5t7 36.5h90q-1 -85 -48.5 -124t-127.5 -39q-40 0 -75 8.5t-61 35.5t-41 77t-15 134
q0 55 5.5 104.5t25 86t57.5 58t104 21.5q54 0 89 -15t55 -45.5t28 -76.5t8 -109v-43h-284z" />
    <glyph glyph-name="f" unicode="f" horiz-adv-x="278" 
d="M87 505v98q0 38 12.5 62t32.5 37.5t46.5 18t53.5 4.5q13 0 21.5 -0.5t17.5 -2.5v-59q-33 2 -53 -3t-31 -15.5t-14.5 -24.5t-3.5 -29v-86h102v-62h-102v-443h-82v443h-78v62h78z" />
    <glyph glyph-name="g" unicode="g" 
d="M341 255q0 28 -1 61.5t-9.5 62.5t-28.5 48.5t-59 19.5q-35 0 -54.5 -18.5t-28.5 -46t-11 -58.5t-2 -56q0 -61 6.5 -99.5t19.5 -61t31 -31t41 -8.5q37 0 56.5 19.5t28.5 48t10 61t1 58.5zM339 505h82v-556q0 -42 -13.5 -69.5t-38 -43t-58.5 -21.5t-76 -6q-32 0 -60.5 8
t-50 24.5t-33.5 42t-9 60.5h92q1 -35 22 -54t55 -19q43 0 65.5 24t22.5 63v105h-3q-16 -30 -47 -46.5t-64 -16.5q-51 0 -83 21t-50 57t-24.5 85t-6.5 105q0 87 19 136.5t44.5 74t52.5 30.5t42 6q40 0 70.5 -17.5t47.5 -54.5h2v62z" />
    <glyph glyph-name="h" unicode="h" 
d="M346 0v342q0 23 -4 42.5t-14.5 33.5t-28 22t-43.5 8q-31 0 -51 -11.5t-31.5 -32t-16 -48t-4.5 -59.5v-297h-82v722h82v-282h4q25 44 56 59.5t81 15.5q65 0 99.5 -35.5t34.5 -121.5v-358h-82z" />
    <glyph glyph-name="i" unicode="i" horiz-adv-x="222" 
d="M65 722h92v-88h-92v88zM152 0h-82v505h82v-505z" />
    <glyph glyph-name="j" unicode="j" horiz-adv-x="222" 
d="M65 722h92v-88h-92v88zM70 505h82v-575q0 -30 -5.5 -52.5t-21 -38t-43.5 -23t-73 -7.5v70q13 0 24 1.5t19.5 6.5t13 14t4.5 25v579z" />
    <glyph glyph-name="k" unicode="k" horiz-adv-x="444" 
d="M154 0h-82v722h82v-435h2l154 218h100l-168 -217l198 -288h-104l-180 283h-2v-283z" />
    <glyph glyph-name="l" unicode="l" horiz-adv-x="222" 
d="M152 0h-82v722h82v-722z" />
    <glyph glyph-name="m" unicode="m" horiz-adv-x="722" 
d="M320 0v350q0 19 -3 37t-12 31.5t-24.5 21.5t-40.5 8q-19 0 -40.5 -10t-30.5 -24q-11 -19 -15 -39.5t-4 -34.5v-340h-82v400q0 26 -1.5 52.5t-3.5 52.5h87v-63h2q18 41 49.5 57t76.5 16q17 0 35 -3.5t34 -11.5t29 -20.5t20 -29.5q21 40 53 52.5t67 12.5q20 0 44 -3.5
t45 -17t35 -39.5t14 -71v-384h-82v350q0 19 -3 37t-12 31.5t-24.5 21.5t-40.5 8q-23 0 -34.5 -3t-27.5 -16q-9 -8 -14.5 -20t-8.5 -25t-4 -25t-1 -19v-340h-82z" />
    <glyph glyph-name="n" unicode="n" 
d="M346 0v350q0 20 -4 38t-14 31.5t-27.5 21t-43.5 7.5q-34 0 -54 -13.5t-31 -35t-14.5 -48t-3.5 -52.5v-299h-82v400q0 26 -1.5 52.5t-3.5 52.5h87v-65h4q24 43 55 59t80 16q40 0 66.5 -11.5t41.5 -33.5t21 -52.5t6 -67.5v-350h-82z" />
    <glyph glyph-name="o" unicode="o" 
d="M250 57q32 0 52.5 12t32.5 38t16.5 68.5t4.5 104.5q0 52 -7.5 84.5t-21.5 51t-33.5 25.5t-43.5 7t-43.5 -7t-33.5 -25.5t-21.5 -51t-7.5 -84.5q0 -62 4.5 -104.5t16.5 -68.5t32.5 -38t52.5 -12zM250 -10q-40 0 -75 8.5t-61 35.5t-41 77t-15 134q0 55 5.5 104.5t25 86
t57.5 58t104 21.5t104 -21.5t57.5 -58t25 -86t5.5 -104.5q0 -84 -15 -134t-41 -77t-61 -35.5t-75 -8.5z" />
    <glyph glyph-name="p" unicode="p" 
d="M256 57q33 0 52.5 13t30 38.5t14 63.5t3.5 89q0 28 -1.5 61t-11.5 61t-30.5 46.5t-59.5 18.5q-38 0 -57 -23t-27 -56.5t-8 -71.5v-66q0 -25 2 -55.5t11.5 -56.5t28.5 -44t53 -18zM161 445h2q21 35 48.5 52.5t67.5 17.5q30 0 59.5 -8.5t52.5 -35.5t37 -77t14 -133
q0 -47 -3 -95.5t-19 -87.5t-50 -63.5t-95 -24.5q-36 0 -63 15.5t-48 45.5h-3v-242h-82v696h82v-60z" />
    <glyph glyph-name="q" unicode="q" 
d="M244 57q34 0 53 18t28.5 44t11.5 56.5t2 55.5v66t-8 70t-27 56t-57 23q-39 0 -59.5 -18t-30.5 -46t-11.5 -60.5t-1.5 -60.5q0 -51 3 -89t13.5 -63.5t30.5 -38.5t53 -13zM339 505h82v-696h-82v242h-3q-21 -30 -48 -45.5t-63 -15.5q-61 0 -95 24.5t-50 63.5t-19 87.5
t-3 95.5q0 83 14 133t37 77t52.5 35.5t59.5 8.5q40 0 67.5 -17.5t48.5 -52.5h2v60z" />
    <glyph glyph-name="r" unicode="r" horiz-adv-x="333" 
d="M157 429h2q13 29 27.5 46t33 26t42 11.5t53.5 2.5v-85q-5 1 -11 1.5t-11 1.5t-10.5 1.5t-11.5 0.5q-34 0 -56 -12t-35 -31t-18 -44t-5 -50v-298h-82v505h82v-76z" />
    <glyph glyph-name="s" unicode="s" horiz-adv-x="444" 
d="M397 144q0 -42 -13.5 -71t-37 -47.5t-56 -27t-69.5 -8.5q-82 0 -129 38.5t-45 125.5h93q0 -11 1.5 -27.5t9.5 -32t25 -26.5t48 -11q37 0 62 19t25 58q0 22 -18.5 38.5t-46.5 31t-61 29t-61 34t-46.5 46t-18.5 64.5q0 20 7 44t26.5 45t53.5 35t87 14q34 0 64 -8.5
t52.5 -25.5t34.5 -44.5t9 -64.5h-91q1 40 -19.5 60.5t-59.5 20.5q-33 0 -55.5 -17.5t-22.5 -50.5q0 -22 18.5 -38t46.5 -30t61 -28t61 -33.5t46.5 -46.5t18.5 -65z" />
    <glyph glyph-name="t" unicode="t" horiz-adv-x="278" 
d="M81 505v97l82 37v-134h110v-62h-110v-309q0 -12 1 -25t8 -23.5t22.5 -17.5t43.5 -7q5 0 14 1t23 3v-63q-20 -2 -40.5 -5t-40.5 -3q-59 0 -86 23t-27 67v359h-83v62h83z" />
    <glyph glyph-name="u" unicode="u" 
d="M342 505h82v-400q0 -26 1.5 -52.5t3.5 -52.5h-87v61h-3q-20 -35 -54 -53t-74 -18q-66 0 -101 32.5t-35 97.5v385h82v-350q0 -46 21 -74t65 -28q16 0 34 6.5t32 20.5t23.5 36t9.5 54v335z" />
    <glyph glyph-name="v" unicode="v" horiz-adv-x="444" 
d="M14 505h92l113 -428h2l122 428h86l-158 -505h-107z" />
    <glyph glyph-name="w" unicode="w" horiz-adv-x="722" 
d="M9 505h91l91 -435h2l112 435h116l103 -435h2l100 435h87l-135 -505h-110l-108 430h-2l-113 -430h-110z" />
    <glyph glyph-name="x" unicode="x" horiz-adv-x="444" 
d="M437 0h-108l-117 207l-109 -207h-97l157 264l-144 241h105l96 -181l102 181h99l-151 -241z" />
    <glyph glyph-name="y" unicode="y" horiz-adv-x="444" 
d="M224 94h2l121 411h89l-229 -696h-85l57 191l-171 505h95z" />
    <glyph glyph-name="z" unicode="z" horiz-adv-x="389" 
d="M347 430l-223 -363h230v-67h-319v77l220 359v2h-209v67h301v-75z" />
    <glyph glyph-name="braceleft" unicode="{" horiz-adv-x="274" 
d="M179 24q0 -21 3.5 -37.5t13.5 -28t27 -17.5t43 -6v-56q-50 -2 -83 5.5t-52 25.5t-26.5 46.5t-7.5 69.5v197q0 25 -6.5 38.5t-18.5 21t-28.5 12t-36.5 12.5v56q42 9 66 24t24 53v186q0 53 19.5 80t46.5 38t56 11.5t47 0.5v-56q-54 0 -70.5 -23.5t-16.5 -66.5v-153
q0 -24 -4 -43.5t-15.5 -35t-31.5 -26t-51 -16.5v-2q33 -7 53 -19.5t31 -30t14.5 -39.5t3.5 -49v-172z" />
    <glyph glyph-name="bar" unicode="|" horiz-adv-x="250" 
d="M94 750h62v-1000h-62v1000z" />
    <glyph glyph-name="braceright" unicode="}" horiz-adv-x="274" 
d="M94 196q0 27 3.5 49t14.5 39.5t31 30t53 19.5v2q-32 6 -51.5 16.5t-31 26t-15.5 35t-4 43.5v153q0 43 -16.5 66.5t-70.5 23.5v56q18 0 47 -0.5t56 -11.5t46.5 -38t19.5 -80v-186q0 -38 24 -53t66 -24v-56q-20 -8 -36.5 -12.5t-28.5 -12t-18.5 -21t-6.5 -38.5v-197
q0 -41 -7.5 -69.5t-26.5 -46.5t-52 -25.5t-83 -5.5v56q52 0 69.5 24t17.5 65v172z" />
    <glyph glyph-name="asciitilde" unicode="~" 
d="M161 332q22 0 47 -10.5t49 -24.5q25 -13 47 -24t38 -11q14 0 26 8t22.5 20t18.5 26.5t14 28.5l34 -47q-9 -20 -20.5 -40t-26 -36t-31.5 -25.5t-38 -9.5q-11 0 -26 5t-30.5 12t-30 14.5t-24.5 12.5q-16 8 -33.5 16.5t-35.5 8.5q-16 0 -28.5 -8.5t-22.5 -21.5t-17.5 -29
t-14.5 -31l-34 48q9 21 20.5 42t25.5 38t31.5 27.5t39.5 10.5z" />
    <glyph glyph-name="Euro" horiz-adv-x="444" 
d="M64 314v66h-57l11 67h48v49q0 106 44 160t138 54q82 0 128.5 -43.5t46.5 -137.5h-89q0 46 -20.5 73t-65.5 27q-48 0 -68.5 -32.5t-20.5 -90.5v-59h160l-11 -67h-150v-66h138l-11 -67h-126v-59q0 -63 21.5 -95t72.5 -32q45 0 64.5 23.5t19.5 77.5h87q0 -180 -176 -180
q-94 0 -138.5 52.5t-44.5 152.5v60h-58l11 67h46z" />
    <glyph glyph-name="Euro" unicode="&#x20ac;" horiz-adv-x="444" 
d="M64 314v66h-57l11 67h48v49q0 106 44 160t138 54q82 0 128.5 -43.5t46.5 -137.5h-89q0 46 -20.5 73t-65.5 27q-48 0 -68.5 -32.5t-20.5 -90.5v-59h160l-11 -67h-150v-66h138l-11 -67h-126v-59q0 -63 21.5 -95t72.5 -32q45 0 64.5 23.5t19.5 77.5h87q0 -180 -176 -180
q-94 0 -138.5 52.5t-44.5 152.5v60h-58l11 67h46z" />
    <glyph glyph-name="exclamdown" unicode="&#xa1;" horiz-adv-x="333" 
d="M214 427h-94v104h94v-104zM203 364l18 -555h-109l20 555h71z" />
    <glyph glyph-name="cent" unicode="&#xa2;" horiz-adv-x="444" 
d="M271 439q-12 9 -33 9q-24 0 -43.5 -7t-33.5 -25.5t-21.5 -51t-7.5 -84.5q0 -48 2.5 -84t8.5 -62h2zM397 168q0 -42 -14 -75.5t-36.5 -56.5t-51 -35t-57.5 -12q-28 0 -53.5 4t-48.5 16l-28 -67l-37 16l31 75q-26 28 -41 78t-15 134q0 55 5.5 104.5t25 86t57.5 58t104 21.5
q34 0 61 -9l26 63l35 -15l-26 -64q64 -41 59 -147h-85q0 18 -1.5 34t-6.5 29l-133 -321q23 -29 71 -29q19 0 33 9.5t22.5 25.5t13 36t4.5 41h86z" />
    <glyph glyph-name="sterling" unicode="&#xa3;" horiz-adv-x="444" 
d="M-4 418h80v81q0 7 -1 25t2 41t12.5 47.5t29.5 45t53.5 34t84.5 13.5q86 0 133 -46t42 -134h-96q1 21 -2.5 39.5t-12.5 33t-24.5 22.5t-40.5 8q-35 0 -53 -11.5t-25.5 -29.5t-8.5 -40t-1 -44v-85h138v-80h-138v-258h260v-80h-426v80h74v258h-80v80z" />
    <glyph glyph-name="currency" unicode="&#xa4;" horiz-adv-x="444" 
d="M226 486q-35 0 -62.5 -14.5t-46.5 -39.5t-28.5 -59t-9.5 -73q0 -36 10 -69.5t28.5 -58.5t44.5 -40t58 -15q34 0 61 14.5t46 40t29 59.5t10 72q0 36 -9.5 69t-27.5 58.5t-44 40.5t-59 15zM40 152q-22 35 -32.5 70t-10.5 78q0 45 10 80t33 71l-39 43l47 53l39 -43
q31 26 66 37.5t73 11.5q37 0 69 -13t62 -36l40 43l47 -53l-38 -43q22 -37 32 -73.5t10 -82.5q0 -42 -11 -75t-31 -68l38 -42l-47 -53l-40 43q-61 -50 -139 -50q-38 0 -69.5 13.5t-61.5 36.5l-39 -43l-47 53z" />
    <glyph glyph-name="yen" unicode="&#xa5;" horiz-adv-x="444" 
d="M66 199h114v66h-114v67h89l-157 362h97l130 -321l134 321h88l-160 -362h91v-67h-116v-66h116v-67h-116v-132h-82v132h-114v67z" />
    <glyph glyph-name="brokenbar" unicode="&#xa6;" horiz-adv-x="250" 
d="M156 675v-350h-62v350h62zM156 175v-350h-62v350h62z" />
    <glyph glyph-name="section" unicode="&#xa7;" horiz-adv-x="444" 
d="M217 284q8 2 22 9t27.5 18t23.5 26.5t10 35.5q0 21 -10 34.5t-23.5 21.5t-28.5 12.5t-24 8.5q-6 -2 -18.5 -8t-25.5 -16.5t-23 -25.5t-10 -36t6.5 -33.5t17.5 -20.5t25.5 -13.5t30.5 -12.5zM69 91q7 -2 19 -6.5t28 -9.5t36.5 -9t45.5 -4q17 0 34 3.5t31 12t22.5 21
t8.5 30.5q0 27 -17.5 43t-44.5 27t-57.5 20.5t-57.5 24.5t-44.5 38t-17.5 61q0 25 8.5 44.5t22.5 35t32.5 27.5t39.5 22q-40 19 -65 45t-25 73q0 39 15.5 67t40 45.5t55.5 26t62 8.5q60 0 114 -19v-84q-26 9 -53.5 17.5t-55.5 8.5q-14 0 -29 -4t-27 -11.5t-20 -19.5t-8 -28
q0 -26 16.5 -41t40.5 -26t53 -20.5t53 -23.5t40.5 -36.5t16.5 -58.5q0 -48 -30 -82.5t-73 -48.5v-2q22 -5 42 -15.5t35 -25.5t23.5 -35t8.5 -44q0 -41 -15.5 -70t-41.5 -47.5t-59.5 -27t-70.5 -8.5q-33 0 -66.5 5.5t-65.5 14.5v86z" />
    <glyph glyph-name="dieresis" unicode="&#xa8;" horiz-adv-x="278" 
d="M274 590h-94v104h94v-104zM98 590h-94v104h94v-104z" />
    <glyph glyph-name="copyright" unicode="&#xa9;" horiz-adv-x="800" 
d="M317 310q0 -32 6 -52t16.5 -31t25.5 -15.5t33 -4.5q44 0 60 23t17 58h70q2 -60 -32.5 -98.5t-105.5 -38.5q-12 0 -28.5 0.5t-34.5 4.5t-35 14t-31 29t-22.5 49t-8.5 75v101q0 37 7 68.5t25 54t48 35.5t76 13q73 0 105 -31.5t30 -96.5h-70q0 28 -7.5 43t-18 21.5t-22.5 7
t-21 0.5q-38 0 -60 -18.5t-22 -68.5v-142zM401 681q-67 0 -125.5 -25t-102 -68.5t-68.5 -102t-25 -124.5q0 -67 25 -125t68.5 -101.5t102 -68.5t125.5 -25t125 25t101 68.5t68 101.5t25 125q0 66 -25 124.5t-68 102t-101 68.5t-125 25zM401 737q78 0 146 -29.5t119 -80
t80.5 -119t29.5 -146.5q0 -79 -29.5 -147.5t-80.5 -119.5t-119 -80.5t-146 -29.5t-146.5 29.5t-120 80.5t-81 119.5t-29.5 147.5q0 78 29.5 146.5t81 119t120 80t146.5 29.5z" />
    <glyph glyph-name="ordfeminine" unicode="&#xaa;" horiz-adv-x="300" 
d="M205 579q-21 0 -42.5 -1t-39 -6t-28.5 -17.5t-11 -36.5q0 -22 11 -38.5t37 -16.5q12 0 26 4.5t25 17t17.5 35t4.5 59.5zM206 472h-2q-11 -26 -33.5 -38t-53.5 -12q-52 0 -75.5 27.5t-23.5 72.5q0 34 18 54t45.5 30t60.5 12.5t63 1.5q0 13 -1 27t-7 24.5t-18.5 17.5
t-33.5 7q-27 0 -43 -13t-14 -37h-63q2 51 35.5 71t86.5 20q35 0 59 -7t38.5 -19.5t20.5 -29t6 -35.5v-146q0 -18 2 -36.5t5 -35.5h-72v44z" />
    <glyph glyph-name="guillemotleft" unicode="&#xab;" horiz-adv-x="444" 
d="M203 270l93 196h76l-79 -196l78 -193h-78zM31 270l93 196h76l-79 -196l78 -193h-78z" />
    <glyph glyph-name="logicalnot" unicode="&#xac;" 
d="M395 322h-352v62h414v-267h-62v205z" />
    <glyph glyph-name="registered" unicode="&#xae;" horiz-adv-x="800" 
d="M330 393h90q32 0 47.5 20.5t15.5 49.5q0 12 -3 23.5t-10.5 21t-19.5 15.5t-30 6h-90v-136zM330 144h-70v433h172q31 0 54 -9.5t38 -24.5t22 -34.5t7 -39.5q0 -38 -26 -65t-68 -35v-2q20 -2 34 -7.5t23 -17.5t13.5 -32t5.5 -53q0 -7 1.5 -22t3.5 -31.5t5 -33t7 -26.5h-69
q-13 23 -13.5 61.5t-4.5 82.5q-2 17 -9.5 27t-17.5 15t-20.5 6t-17.5 1h-70v-193zM401 681q-67 0 -125.5 -25t-102 -68.5t-68.5 -102t-25 -124.5q0 -67 25 -125t68.5 -101.5t102 -68.5t125.5 -25t125 25t101 68.5t68 101.5t25 125q0 66 -25 124.5t-68 102t-101 68.5t-125 25
zM401 737q78 0 146 -29.5t119 -80t80.5 -119t29.5 -146.5q0 -79 -29.5 -147.5t-80.5 -119.5t-119 -80.5t-146 -29.5t-146.5 29.5t-120 80.5t-81 119.5t-29.5 147.5q0 78 29.5 146.5t81 119t120 80t146.5 29.5z" />
    <glyph glyph-name="macron" unicode="&#xaf;" horiz-adv-x="278" 
d="M277 664v-56h-276v56h276z" />
    <glyph glyph-name="macron" unicode="&#x2c9;" horiz-adv-x="278" 
d="M277 664v-56h-276v56h276z" />
    <glyph glyph-name="degree" unicode="&#xb0;" horiz-adv-x="400" 
d="M288 555q0 18 -7 34t-19 28t-28.5 19t-34.5 7t-34 -7t-28 -19t-18.5 -28t-6.5 -34q0 -37 25.5 -62.5t62.5 -25.5q36 0 62 25.5t26 62.5zM350 555q0 -31 -12 -58.5t-32.5 -47.5t-47.5 -32t-58 -12t-58.5 12t-47.5 32t-32 47.5t-12 58.5t11.5 58t32 47.5t48 32.5t58.5 12
t58 -12t47.5 -32.5t32.5 -47.5t12 -58z" />
    <glyph glyph-name="plusminus" unicode="&#xb1;" 
d="M43 62h414v-62h-414v62zM219 505h62v-162h176v-62h-176v-162h-62v162h-176v62h176v162z" />
    <glyph glyph-name="twosuperior" unicode="&#xb2;" horiz-adv-x="266" 
d="M13 282v53q49 62 82 101.5t53 67t28 49t8 46.5q0 21 -13.5 35.5t-42.5 14.5q-26 0 -34.5 -20.5t-7.5 -42.5h-71q-2 24 4 45.5t19.5 38t35 26t50.5 9.5q69 0 99.5 -26t30.5 -83q0 -35 -9.5 -61t-29.5 -53t-50 -61.5t-70 -85.5h161v-53h-243z" />
    <glyph glyph-name="threesuperior" unicode="&#xb3;" horiz-adv-x="266" 
d="M95 524q41 -3 64 15t23 54q0 25 -12 43.5t-45 18.5q-34 0 -44 -19.5t-9 -44.5h-63q-4 54 24.5 84t91.5 30q58 0 92.5 -26.5t34.5 -81.5q0 -30 -11 -48t-26 -28t-31 -14.5t-26 -6.5v-2q104 -12 104 -105q0 -61 -39.5 -90.5t-104.5 -29.5q-47 0 -71.5 16t-34.5 37
t-10.5 41.5t-0.5 29.5h64q0 -14 2.5 -26.5t8.5 -21.5t17.5 -14.5t29.5 -5.5q40 0 54.5 18t14.5 47q0 47 -22 64.5t-75 17.5v48z" />
    <glyph glyph-name="acute" unicode="&#xb4;" horiz-adv-x="278" 
d="M258 722l-131 -141h-67l89 141h109z" />
    <glyph glyph-name="mu" unicode="&#xb5;" 
d="M342 61h-3q-20 -35 -54 -53t-74 -18q-13 0 -31 3.5t-23 6.5v-191h-82v696h82v-350q0 -46 21 -74t65 -28q16 0 34 6.5t32 20.5t23.5 36t9.5 54v335h82v-400q0 -26 1.5 -52.5t3.5 -52.5h-87v61z" />
    <glyph glyph-name="mu" unicode="&#x3bc;" 
d="M342 61h-3q-20 -35 -54 -53t-74 -18q-13 0 -31 3.5t-23 6.5v-191h-82v696h82v-350q0 -46 21 -74t65 -28q16 0 34 6.5t32 20.5t23.5 36t9.5 54v335h82v-400q0 -26 1.5 -52.5t3.5 -52.5h-87v61z" />
    <glyph glyph-name="paragraph" unicode="&#xb6;" horiz-adv-x="440" 
d="M165 338q-31 0 -59.5 15t-50 41t-34.5 60.5t-13 73.5q0 23 6 56.5t25 64t55.5 52t96.5 21.5h196v-843h-70v776h-82v-776h-70v459z" />
    <glyph glyph-name="periodcentered" unicode="&#xb7;" horiz-adv-x="222" 
d="M158 201h-94v104h94v-104z" />
    <glyph glyph-name="periodcentered" unicode="&#x2219;" horiz-adv-x="222" 
d="M158 201h-94v104h94v-104z" />
    <glyph glyph-name="cedilla" unicode="&#xb8;" horiz-adv-x="278" 
d="M65 -86l63 86h48l-46 -60l2 -2q6 2 14 4t16 2q34 0 58.5 -19.5t24.5 -56.5q0 -26 -11 -43.5t-27.5 -28.5t-37.5 -16t-40 -5q-28 0 -53.5 7t-45.5 15l17 40q17 -6 32 -10.5t33 -4.5q9 0 19.5 2t18.5 6.5t13.5 12.5t5.5 19q0 21 -14.5 31t-34.5 10q-10 0 -19.5 -3t-18.5 -5
z" />
    <glyph glyph-name="onesuperior" unicode="&#xb9;" horiz-adv-x="266" 
d="M188 282h-70v349l-68 -42v59q6 2 16 8t21 13.5t21.5 15.5t17.5 13h62v-416z" />
    <glyph glyph-name="ordmasculine" unicode="&#xba;" horiz-adv-x="300" 
d="M150 463q21 0 33.5 7t19 22.5t9 41t2.5 62.5q0 31 -4 50.5t-12.5 30.5t-20.5 15t-27 4t-27 -4t-20.5 -15t-12.5 -30.5t-4 -50.5q0 -37 2.5 -62.5t9 -41t19 -22.5t33.5 -7zM150 422q-26 0 -49.5 5t-41.5 21t-28.5 46.5t-10.5 80.5q0 33 4.5 62.5t18 51.5t39 35t68.5 13
t68.5 -13t39 -35t18 -51.5t4.5 -62.5q0 -50 -10.5 -80.5t-28.5 -46.5t-41.5 -21t-49.5 -5z" />
    <glyph glyph-name="guillemotright" unicode="&#xbb;" horiz-adv-x="444" 
d="M245 77l78 193l-79 196h76l93 -196l-90 -193h-78zM73 77l78 193l-79 196h76l93 -196l-90 -193h-78z" />
    <glyph glyph-name="onequarter" unicode="&#xbc;" horiz-adv-x="666" 
d="M508 154v200h-2l-91 -200h93zM188 282h-70v349l-68 -42v59q6 2 16 8t21 13.5t21.5 15.5t17.5 13h62v-416zM65 -27l437 749h62l-436 -749h-63zM351 98v51l128 267h99v-262h53v-56h-53v-98h-70v98h-157z" />
    <glyph glyph-name="onehalf" unicode="&#xbd;" horiz-adv-x="666" 
d="M158 282h-70v349l-68 -42v59q6 2 16 8t21 13.5t21.5 15.5t17.5 13h62v-416zM35 -27l437 749h62l-436 -749h-63zM385 0v53q49 62 82 101.5t53 67t28 49t8 46.5q0 21 -13.5 35.5t-42.5 14.5q-26 0 -34.5 -20.5t-7.5 -42.5h-71q-2 24 4 45.5t19.5 38t35 26t50.5 9.5
q69 0 99.5 -26t30.5 -83q0 -35 -9.5 -61t-29.5 -53t-50 -61.5t-70 -85.5h161v-53h-243z" />
    <glyph glyph-name="threequarters" unicode="&#xbe;" horiz-adv-x="666" 
d="M523 154v200h-2l-91 -200h93zM100 -27l437 749h62l-436 -749h-63zM100 524q41 -3 64 15t23 54q0 25 -12 43.5t-45 18.5q-34 0 -44 -19.5t-9 -44.5h-63q-4 54 24.5 84t91.5 30q58 0 92.5 -26.5t34.5 -81.5q0 -30 -11 -48t-26 -28t-31 -14.5t-26 -6.5v-2q104 -12 104 -105
q0 -61 -39.5 -90.5t-104.5 -29.5q-47 0 -71.5 16t-34.5 37t-10.5 41.5t-0.5 29.5h64q0 -14 2.5 -26.5t8.5 -21.5t17.5 -14.5t29.5 -5.5q40 0 54.5 18t14.5 47q0 47 -22 64.5t-75 17.5v48zM366 98v51l128 267h99v-262h53v-56h-53v-98h-70v98h-157z" />
    <glyph glyph-name="questiondown" unicode="&#xbf;" horiz-adv-x="444" 
d="M272 427h-94v104h94v-104zM266 234q0 -33 -19 -61.5t-41.5 -60t-41.5 -68t-19 -85.5q0 -17 4.5 -34t13.5 -31.5t23 -23.5t34 -9q27 0 42 14.5t22.5 35.5t8.5 45t1 44h94q2 -46 -6.5 -84t-29 -65t-54.5 -42t-84 -15q-78 0 -120.5 45.5t-42.5 121.5q0 42 10 74.5t24.5 58.5
t32 47.5t32 40.5t24.5 36.5t10 36.5v93h82v-114z" />
    <glyph glyph-name="Agrave" unicode="&#xc0;" horiz-adv-x="611" 
d="M296 939l89 -141h-67l-131 141h109zM300 637h-2l-113 -385h231zM244 722h117l235 -722h-103l-52 172h-279l-54 -172h-93z" />
    <glyph glyph-name="Aacute" unicode="&#xc1;" horiz-adv-x="611" 
d="M425 939l-131 -141h-67l89 141h109zM300 637h-2l-113 -385h231zM244 722h117l235 -722h-103l-52 172h-279l-54 -172h-93z" />
    <glyph glyph-name="Acircumflex" unicode="&#xc2;" horiz-adv-x="611" 
d="M306 892l-66 -94h-80l100 141h92l100 -141h-80zM300 637h-2l-113 -385h231zM244 722h117l235 -722h-103l-52 172h-279l-54 -172h-93z" />
    <glyph glyph-name="Atilde" unicode="&#xc3;" horiz-adv-x="611" 
d="M476 911q-2 -21 -10 -41t-21 -35t-31 -24t-42 -9q-17 0 -35 6t-37 13q-19 8 -37 13.5t-35 5.5t-30.5 -14t-15.5 -31h-46q5 46 29.5 77t74.5 31q20 0 39 -5.5t36 -12.5q17 -8 32 -13.5t27 -5.5q47 0 51 45h51zM300 637h-2l-113 -385h231zM244 722h117l235 -722h-103
l-52 172h-279l-54 -172h-93z" />
    <glyph glyph-name="Adieresis" unicode="&#xc4;" horiz-adv-x="611" 
d="M441 807h-94v104h94v-104zM265 807h-94v104h94v-104zM300 637h-2l-113 -385h231zM244 722h117l235 -722h-103l-52 172h-279l-54 -172h-93z" />
    <glyph glyph-name="Aring" unicode="&#xc5;" horiz-adv-x="611" 
d="M366 888q0 25 -18 42.5t-42 17.5q-25 0 -42.5 -17.5t-17.5 -42.5q0 -24 17.5 -42t42.5 -18q24 0 42 18t18 42zM306 787q-21 0 -39 8t-32 21.5t-22 32t-8 39.5t8 39.5t21.5 32t32 21.5t39.5 8t39.5 -8t32 -22t21.5 -32t8 -39t-8 -39.5t-21.5 -32t-32 -21.5t-39.5 -8z
M300 637h-2l-113 -385h231zM244 722h117l235 -722h-103l-52 172h-279l-54 -172h-93z" />
    <glyph glyph-name="AE" unicode="&#xc6;" horiz-adv-x="833" 
d="M393 648h-2l-169 -396h226zM15 0l317 722h448v-80h-297l31 -232h258v-80h-244l35 -250h227v-80h-306l-25 172h-274l-73 -172h-97z" />
    <glyph glyph-name="Ccedilla" unicode="&#xc7;" horiz-adv-x="556" 
d="M399 523q1 31 -3 59.5t-18 45.5q-7 9 -18 14.5t-22.5 9.5t-22.5 5.5t-18 1.5q-29 0 -49 -7.5t-33 -17t-19.5 -18.5t-7.5 -13q-1 -3 -4.5 -9.5t-7 -22t-6.5 -44t-3 -74.5v-193q0 -66 10 -105.5t27.5 -60t41 -26.5t50.5 -6q10 0 29 4t38 19t33 45t14 83h95q1 -56 -10 -94.5
t-29 -64t-41 -39.5t-45.5 -20.5t-42.5 -8t-33 -1.5l-35 -45l2 -2q6 2 14 4t16 2q34 0 58.5 -19.5t24.5 -56.5q0 -26 -11 -43.5t-27.5 -28.5t-37.5 -16t-40 -5q-28 0 -53.5 7t-45.5 15l17 40q17 -6 32 -10.5t33 -4.5q9 0 19.5 2t18.5 6.5t13.5 12.5t5.5 19q0 21 -14.5 31
t-34.5 10q-10 0 -19.5 -3t-18.5 -5l-17 19l53 73q-32 2 -64.5 13.5t-59 41.5t-43.5 85t-17 144v204q0 76 16.5 126.5t46.5 80.5t73 42.5t96 12.5q107 0 151.5 -54.5t37.5 -159.5h-95z" />
    <glyph glyph-name="Egrave" unicode="&#xc8;" 
d="M240 939l89 -141h-67l-131 141h109zM81 0v722h372v-80h-280v-232h260v-80h-260v-250h286v-80h-378z" />
    <glyph glyph-name="Eacute" unicode="&#xc9;" 
d="M369 939l-131 -141h-67l89 141h109zM81 0v722h372v-80h-280v-232h260v-80h-260v-250h286v-80h-378z" />
    <glyph glyph-name="Ecircumflex" unicode="&#xca;" 
d="M250 892l-66 -94h-80l100 141h92l100 -141h-80zM81 0v722h372v-80h-280v-232h260v-80h-260v-250h286v-80h-378z" />
    <glyph glyph-name="Edieresis" unicode="&#xcb;" 
d="M209 807h-94v104h94v-104zM385 807h-94v104h94v-104zM81 0v722h372v-80h-280v-232h260v-80h-260v-250h286v-80h-378z" />
    <glyph glyph-name="Igrave" unicode="&#xcc;" horiz-adv-x="278" 
d="M129 939l89 -141h-67l-131 141h109zM185 0h-92v722h92v-722z" />
    <glyph glyph-name="Iacute" unicode="&#xcd;" horiz-adv-x="278" 
d="M258 939l-131 -141h-67l89 141h109zM185 0h-92v722h92v-722z" />
    <glyph glyph-name="Icircumflex" unicode="&#xce;" horiz-adv-x="278" 
d="M139 892l-66 -94h-80l100 141h92l100 -141h-80zM185 0h-92v722h92v-722z" />
    <glyph glyph-name="Idieresis" unicode="&#xcf;" horiz-adv-x="278" 
d="M98 807h-94v104h94v-104zM274 807h-94v104h94v-104zM185 0h-92v722h92v-722z" />
    <glyph glyph-name="Eth" unicode="&#xd0;" horiz-adv-x="611" 
d="M175 80h87q48 0 81.5 10t54 35t30 66.5t9.5 104.5v146q0 109 -34.5 154.5t-106.5 45.5h-121v-220h151v-56h-151v-286zM83 366h-70v56h70v300h222q69 0 118 -26t76 -84q11 -23 17.5 -58t9.5 -70t4 -63t1 -37q0 -116 -10.5 -185.5t-33.5 -105.5q-29 -47 -86 -70t-152 -23
h-166v366z" />
    <glyph glyph-name="Ntilde" unicode="&#xd1;" horiz-adv-x="667" 
d="M504 911q-2 -21 -10 -41t-21 -35t-31 -24t-42 -9q-17 0 -35 6t-37 13q-19 8 -37 13.5t-35 5.5t-30.5 -14t-15.5 -31h-46q5 46 29.5 77t74.5 31q20 0 39 -5.5t36 -12.5q17 -8 32 -13.5t27 -5.5q47 0 51 45h51zM581 722v-722h-126l-285 626h-2v-626h-82v722h130l281 -618h2
v618h82z" />
    <glyph glyph-name="Ograve" unicode="&#xd2;" horiz-adv-x="611" 
d="M296 939l89 -141h-67l-131 141h109zM305 62q33 0 57.5 8.5t41.5 31t25.5 61t8.5 97.5v244q0 57 -16.5 88.5t-39 46.5t-44.5 18t-33 3t-33 -3t-44.5 -18t-39 -46.5t-16.5 -88.5v-244q0 -59 8.5 -97.5t25.5 -61t41.5 -31t57.5 -8.5zM305 -15q-115 0 -171 64.5t-56 214.5
v237q0 108 56 172t171 64t171 -64t56 -172v-237q0 -150 -56 -214.5t-171 -64.5z" />
    <glyph glyph-name="Oacute" unicode="&#xd3;" horiz-adv-x="611" 
d="M425 939l-131 -141h-67l89 141h109zM305 62q33 0 57.5 8.5t41.5 31t25.5 61t8.5 97.5v244q0 57 -16.5 88.5t-39 46.5t-44.5 18t-33 3t-33 -3t-44.5 -18t-39 -46.5t-16.5 -88.5v-244q0 -59 8.5 -97.5t25.5 -61t41.5 -31t57.5 -8.5zM305 -15q-115 0 -171 64.5t-56 214.5
v237q0 108 56 172t171 64t171 -64t56 -172v-237q0 -150 -56 -214.5t-171 -64.5z" />
    <glyph glyph-name="Ocircumflex" unicode="&#xd4;" horiz-adv-x="611" 
d="M306 892l-66 -94h-80l100 141h92l100 -141h-80zM305 62q33 0 57.5 8.5t41.5 31t25.5 61t8.5 97.5v244q0 57 -16.5 88.5t-39 46.5t-44.5 18t-33 3t-33 -3t-44.5 -18t-39 -46.5t-16.5 -88.5v-244q0 -59 8.5 -97.5t25.5 -61t41.5 -31t57.5 -8.5zM305 -15q-115 0 -171 64.5
t-56 214.5v237q0 108 56 172t171 64t171 -64t56 -172v-237q0 -150 -56 -214.5t-171 -64.5z" />
    <glyph glyph-name="Otilde" unicode="&#xd5;" horiz-adv-x="611" 
d="M476 911q-2 -21 -10 -41t-21 -35t-31 -24t-42 -9q-17 0 -35 6t-37 13q-19 8 -37 13.5t-35 5.5t-30.5 -14t-15.5 -31h-46q5 46 29.5 77t74.5 31q20 0 39 -5.5t36 -12.5q17 -8 32 -13.5t27 -5.5q47 0 51 45h51zM305 62q33 0 57.5 8.5t41.5 31t25.5 61t8.5 97.5v244
q0 57 -16.5 88.5t-39 46.5t-44.5 18t-33 3t-33 -3t-44.5 -18t-39 -46.5t-16.5 -88.5v-244q0 -59 8.5 -97.5t25.5 -61t41.5 -31t57.5 -8.5zM305 -15q-115 0 -171 64.5t-56 214.5v237q0 108 56 172t171 64t171 -64t56 -172v-237q0 -150 -56 -214.5t-171 -64.5z" />
    <glyph glyph-name="Odieresis" unicode="&#xd6;" horiz-adv-x="611" 
d="M441 807h-94v104h94v-104zM265 807h-94v104h94v-104zM305 62q33 0 57.5 8.5t41.5 31t25.5 61t8.5 97.5v244q0 57 -16.5 88.5t-39 46.5t-44.5 18t-33 3t-33 -3t-44.5 -18t-39 -46.5t-16.5 -88.5v-244q0 -59 8.5 -97.5t25.5 -61t41.5 -31t57.5 -8.5zM305 -15
q-115 0 -171 64.5t-56 214.5v237q0 108 56 172t171 64t171 -64t56 -172v-237q0 -150 -56 -214.5t-171 -64.5z" />
    <glyph glyph-name="multiply" unicode="&#xd7;" 
d="M43 416l44 44l163 -163l163 163l44 -44l-163 -163l163 -163l-44 -44l-163 163l-163 -163l-44 44l163 163z" />
    <glyph glyph-name="Oslash" unicode="&#xd8;" horiz-adv-x="611" 
d="M188 140q15 -44 44 -61t73 -17q33 0 57.5 8.5t41.5 31t25.5 61t8.5 97.5v244q0 11 -1 16zM426 579q-11 29 -27.5 45.5t-34.5 24.5t-34 9.5t-25 1.5q-11 0 -33 -3t-44.5 -18t-39 -46.5t-16.5 -88.5v-244q0 -18 1 -34t3 -30zM108 92q-30 61 -30 172v237q0 108 56 172
t171 64q62 0 106.5 -19t71.5 -52l51 79l35 -23l-62 -95q25 -50 25 -126v-237q0 -150 -56 -214.5t-171 -64.5q-116 0 -173 69l-57 -87l-34 23z" />
    <glyph glyph-name="Ugrave" unicode="&#xd9;" horiz-adv-x="611" 
d="M296 939l89 -141h-67l-131 141h109zM78 722h92v-462q0 -59 9 -97.5t26 -61t42 -31t58 -8.5t58 8.5t42 31t26 61t9 97.5v462h92v-458q0 -150 -56 -214.5t-171 -64.5t-171 64.5t-56 214.5v458z" />
    <glyph glyph-name="Uacute" unicode="&#xda;" horiz-adv-x="611" 
d="M425 939l-131 -141h-67l89 141h109zM78 722h92v-462q0 -59 9 -97.5t26 -61t42 -31t58 -8.5t58 8.5t42 31t26 61t9 97.5v462h92v-458q0 -150 -56 -214.5t-171 -64.5t-171 64.5t-56 214.5v458z" />
    <glyph glyph-name="Ucircumflex" unicode="&#xdb;" horiz-adv-x="611" 
d="M306 892l-66 -94h-80l100 141h92l100 -141h-80zM78 722h92v-462q0 -59 9 -97.5t26 -61t42 -31t58 -8.5t58 8.5t42 31t26 61t9 97.5v462h92v-458q0 -150 -56 -214.5t-171 -64.5t-171 64.5t-56 214.5v458z" />
    <glyph glyph-name="Udieresis" unicode="&#xdc;" horiz-adv-x="611" 
d="M265 807h-94v104h94v-104zM441 807h-94v104h94v-104zM78 722h92v-462q0 -59 9 -97.5t26 -61t42 -31t58 -8.5t58 8.5t42 31t26 61t9 97.5v462h92v-458q0 -150 -56 -214.5t-171 -64.5t-171 64.5t-56 214.5v458z" />
    <glyph glyph-name="Yacute" unicode="&#xdd;" 
d="M369 939l-131 -141h-67l89 141h109zM398 722h93l-197 -447v-275h-92v275l-194 447h103l141 -349z" />
    <glyph glyph-name="Thorn" unicode="&#xde;" horiz-adv-x="556" 
d="M185 276h101q14 0 36 3.5t42.5 16t35 37t14.5 66.5q0 41 -13 65t-30.5 36.5t-34.5 16t-24 3.5h-127v-244zM93 722h92v-122h122q36 0 72 -8.5t64.5 -31t46.5 -62.5t18 -104q0 -62 -21 -100.5t-52 -60t-66 -29.5t-63 -8h-121v-196h-92v722z" />
    <glyph glyph-name="germandbls" unicode="&#xdf;" horiz-adv-x="556" 
d="M501 155q0 -19 -4 -47.5t-19.5 -54.5t-46 -45t-84.5 -19q-67 0 -108 30.5t-41 105.5h86q-2 -31 14 -50t48 -19q21 0 34 8t21 21t11 29.5t3 33.5q0 29 -12 50t-30.5 38t-40 32t-40 32.5t-30.5 40.5t-12 56q0 24 16 46t36 44q19 22 35 44.5t16 46.5q0 46 -25 69t-68 23
q-40 0 -61.5 -12t-32 -30t-12.5 -40t-2 -42v-546h-82v579q0 48 21.5 78.5t51.5 48t62 24.5t53 7q37 0 71 -7.5t59.5 -24.5t41 -46.5t15.5 -72.5q0 -37 -16.5 -61.5t-36.5 -44.5q-10 -10 -20 -19t-18 -18t-13 -19t-5 -22q0 -18 12 -32.5t30.5 -29.5t40 -31.5t40 -37.5
t30.5 -49.5t12 -66.5z" />
    <glyph glyph-name="agrave" unicode="&#xe0;" 
d="M240 722l89 -141h-67l-131 141h109zM330 251q-29 0 -61.5 -1t-59.5 -10t-44.5 -29.5t-17.5 -60.5q0 -37 19 -65t60 -28q19 0 38.5 7.5t35 28.5t24.5 59t6 99zM332 73h-2q-19 -44 -49 -63.5t-78 -19.5q-40 0 -66.5 12.5t-42.5 34.5t-22.5 52.5t-6.5 66.5q0 57 25 89.5
t64 47.5t86 18t90 2q1 25 0 50t-9 45t-25.5 32.5t-50.5 12.5q-42 0 -62.5 -25t-16.5 -65h-89q3 85 46.5 118.5t124.5 33.5q49 0 80.5 -12t50 -32.5t26 -48t7.5 -59.5v-243q0 -30 2.5 -60.5t7.5 -59.5h-90v73z" />
    <glyph glyph-name="aacute" unicode="&#xe1;" 
d="M369 722l-131 -141h-67l89 141h109zM330 251q-29 0 -61.5 -1t-59.5 -10t-44.5 -29.5t-17.5 -60.5q0 -37 19 -65t60 -28q19 0 38.5 7.5t35 28.5t24.5 59t6 99zM332 73h-2q-19 -44 -49 -63.5t-78 -19.5q-40 0 -66.5 12.5t-42.5 34.5t-22.5 52.5t-6.5 66.5q0 57 25 89.5
t64 47.5t86 18t90 2q1 25 0 50t-9 45t-25.5 32.5t-50.5 12.5q-42 0 -62.5 -25t-16.5 -65h-89q3 85 46.5 118.5t124.5 33.5q49 0 80.5 -12t50 -32.5t26 -48t7.5 -59.5v-243q0 -30 2.5 -60.5t7.5 -59.5h-90v73z" />
    <glyph glyph-name="acircumflex" unicode="&#xe2;" 
d="M250 675l-66 -94h-80l100 141h92l100 -141h-80zM330 251q-29 0 -61.5 -1t-59.5 -10t-44.5 -29.5t-17.5 -60.5q0 -37 19 -65t60 -28q19 0 38.5 7.5t35 28.5t24.5 59t6 99zM332 73h-2q-19 -44 -49 -63.5t-78 -19.5q-40 0 -66.5 12.5t-42.5 34.5t-22.5 52.5t-6.5 66.5
q0 57 25 89.5t64 47.5t86 18t90 2q1 25 0 50t-9 45t-25.5 32.5t-50.5 12.5q-42 0 -62.5 -25t-16.5 -65h-89q3 85 46.5 118.5t124.5 33.5q49 0 80.5 -12t50 -32.5t26 -48t7.5 -59.5v-243q0 -30 2.5 -60.5t7.5 -59.5h-90v73z" />
    <glyph glyph-name="atilde" unicode="&#xe3;" 
d="M420 694q-2 -21 -10 -41t-21 -35t-31 -24t-42 -9q-17 0 -35 6t-37 13q-19 8 -37 13.5t-35 5.5t-30.5 -14t-15.5 -31h-46q5 46 29.5 77t74.5 31q20 0 39 -5.5t36 -12.5q17 -8 32 -13.5t27 -5.5q47 0 51 45h51zM330 251q-29 0 -61.5 -1t-59.5 -10t-44.5 -29.5t-17.5 -60.5
q0 -37 19 -65t60 -28q19 0 38.5 7.5t35 28.5t24.5 59t6 99zM332 73h-2q-19 -44 -49 -63.5t-78 -19.5q-40 0 -66.5 12.5t-42.5 34.5t-22.5 52.5t-6.5 66.5q0 57 25 89.5t64 47.5t86 18t90 2q1 25 0 50t-9 45t-25.5 32.5t-50.5 12.5q-42 0 -62.5 -25t-16.5 -65h-89
q3 85 46.5 118.5t124.5 33.5q49 0 80.5 -12t50 -32.5t26 -48t7.5 -59.5v-243q0 -30 2.5 -60.5t7.5 -59.5h-90v73z" />
    <glyph glyph-name="adieresis" unicode="&#xe4;" 
d="M385 590h-94v104h94v-104zM209 590h-94v104h94v-104zM330 251q-29 0 -61.5 -1t-59.5 -10t-44.5 -29.5t-17.5 -60.5q0 -37 19 -65t60 -28q19 0 38.5 7.5t35 28.5t24.5 59t6 99zM332 73h-2q-19 -44 -49 -63.5t-78 -19.5q-40 0 -66.5 12.5t-42.5 34.5t-22.5 52.5t-6.5 66.5
q0 57 25 89.5t64 47.5t86 18t90 2q1 25 0 50t-9 45t-25.5 32.5t-50.5 12.5q-42 0 -62.5 -25t-16.5 -65h-89q3 85 46.5 118.5t124.5 33.5q49 0 80.5 -12t50 -32.5t26 -48t7.5 -59.5v-243q0 -30 2.5 -60.5t7.5 -59.5h-90v73z" />
    <glyph glyph-name="aring" unicode="&#xe5;" 
d="M310 671q0 25 -18 42.5t-42 17.5q-25 0 -42.5 -17.5t-17.5 -42.5q0 -24 17.5 -42t42.5 -18q24 0 42 18t18 42zM330 251q-29 0 -61.5 -1t-59.5 -10t-44.5 -29.5t-17.5 -60.5q0 -37 19 -65t60 -28q19 0 38.5 7.5t35 28.5t24.5 59t6 99zM250 570q-21 0 -39 8t-32 21.5
t-22 32t-8 39.5t8 39.5t21.5 32t32 21.5t39.5 8t39.5 -8t32 -22t21.5 -32t8 -39t-8 -39.5t-21.5 -32t-32 -21.5t-39.5 -8zM332 73h-2q-19 -44 -49 -63.5t-78 -19.5q-40 0 -66.5 12.5t-42.5 34.5t-22.5 52.5t-6.5 66.5q0 57 25 89.5t64 47.5t86 18t90 2q1 25 0 50t-9 45
t-25.5 32.5t-50.5 12.5q-42 0 -62.5 -25t-16.5 -65h-89q3 85 46.5 118.5t124.5 33.5q49 0 80.5 -12t50 -32.5t26 -48t7.5 -59.5v-243q0 -30 2.5 -60.5t7.5 -59.5h-90v73z" />
    <glyph glyph-name="ae" unicode="&#xe6;" horiz-adv-x="778" 
d="M624 302q1 26 -2.5 53t-14 48.5t-30.5 35.5t-53 14q-12 0 -28.5 -4.5t-31.5 -20t-25.5 -45.5t-10.5 -81h196zM341 240q-29 0 -61.5 -0.5t-59.5 -9t-44.5 -29t-17.5 -60.5q0 -37 18.5 -60.5t60.5 -23.5q19 0 38.5 6t35 25t24.5 55.5t6 96.5zM428 240q1 -27 2 -58.5
t9.5 -59.5t28 -46.5t57.5 -18.5q51 0 71.5 29.5t22.5 75.5h89q0 -27 -5.5 -57.5t-25 -56t-56.5 -42t-101 -16.5q-23 0 -46 5.5t-42.5 16.5t-34.5 28t-22 41q-22 -50 -65.5 -70.5t-93.5 -20.5q-72 0 -110.5 39.5t-38.5 111.5q0 63 25.5 95t65.5 45.5t88.5 15.5t94.5 5v51
q0 50 -21 75t-73 25q-42 0 -62.5 -25t-16.5 -65h-89q3 85 46.5 118.5t124.5 33.5q22 0 44.5 -2.5t42 -10t34.5 -22t23 -38.5h2q6 20 19.5 34t31 22.5t37.5 12.5t40 4q30 0 65 -6t64.5 -32.5t46.5 -82t11 -154.5h-283z" />
    <glyph glyph-name="ccedilla" unicode="&#xe7;" 
d="M336 343q1 31 -5.5 51.5t-17 32.5t-23 16.5t-24.5 4.5q-24 0 -43.5 -7t-33.5 -25.5t-21.5 -51t-7.5 -84.5q0 -62 4.5 -104.5t16.5 -68.5t32.5 -38t52.5 -12q7 0 20 4.5t25 17t20.5 34t7.5 55.5h86q1 -50 -13.5 -83t-36.5 -53t-48 -29.5t-47 -11.5l-39 -51l2 -2q6 2 14 4
t16 2q34 0 58.5 -19.5t24.5 -56.5q0 -26 -11 -43.5t-27.5 -28.5t-37.5 -16t-40 -5q-28 0 -53.5 7t-45.5 15l17 40q17 -6 32 -10.5t33 -4.5q9 0 19.5 2t18.5 6.5t13.5 12.5t5.5 19q0 21 -14.5 31t-34.5 10q-10 0 -19.5 -3t-18.5 -5l-17 19l57 77q-34 3 -63 15t-50.5 40.5
t-33.5 76t-12 122.5q0 55 5.5 104.5t25 86t57.5 58t104 21.5q76 0 117.5 -43.5t37.5 -128.5h-85z" />
    <glyph glyph-name="egrave" unicode="&#xe8;" 
d="M240 722l89 -141h-67l-131 141h109zM349 288q0 55 -7.5 87.5t-20.5 50t-32 22.5t-41 5q-20 0 -37 -6t-30 -24t-21 -50.5t-8 -84.5h197zM152 226q0 -53 7 -86t20 -51.5t32 -25t43 -6.5q21 0 37 8t27 21t17 30.5t7 36.5h90q-1 -85 -48.5 -124t-127.5 -39q-40 0 -75 8.5
t-61 35.5t-41 77t-15 134q0 55 5.5 104.5t25 86t57.5 58t104 21.5q54 0 89 -15t55 -45.5t28 -76.5t8 -109v-43h-284z" />
    <glyph glyph-name="eacute" unicode="&#xe9;" 
d="M369 722l-131 -141h-67l89 141h109zM349 288q0 55 -7.5 87.5t-20.5 50t-32 22.5t-41 5q-20 0 -37 -6t-30 -24t-21 -50.5t-8 -84.5h197zM152 226q0 -53 7 -86t20 -51.5t32 -25t43 -6.5q21 0 37 8t27 21t17 30.5t7 36.5h90q-1 -85 -48.5 -124t-127.5 -39q-40 0 -75 8.5
t-61 35.5t-41 77t-15 134q0 55 5.5 104.5t25 86t57.5 58t104 21.5q54 0 89 -15t55 -45.5t28 -76.5t8 -109v-43h-284z" />
    <glyph glyph-name="ecircumflex" unicode="&#xea;" 
d="M250 675l-66 -94h-80l100 141h92l100 -141h-80zM349 288q0 55 -7.5 87.5t-20.5 50t-32 22.5t-41 5q-20 0 -37 -6t-30 -24t-21 -50.5t-8 -84.5h197zM152 226q0 -53 7 -86t20 -51.5t32 -25t43 -6.5q21 0 37 8t27 21t17 30.5t7 36.5h90q-1 -85 -48.5 -124t-127.5 -39
q-40 0 -75 8.5t-61 35.5t-41 77t-15 134q0 55 5.5 104.5t25 86t57.5 58t104 21.5q54 0 89 -15t55 -45.5t28 -76.5t8 -109v-43h-284z" />
    <glyph glyph-name="edieresis" unicode="&#xeb;" 
d="M385 590h-94v104h94v-104zM209 590h-94v104h94v-104zM349 288q0 55 -7.5 87.5t-20.5 50t-32 22.5t-41 5q-20 0 -37 -6t-30 -24t-21 -50.5t-8 -84.5h197zM152 226q0 -53 7 -86t20 -51.5t32 -25t43 -6.5q21 0 37 8t27 21t17 30.5t7 36.5h90q-1 -85 -48.5 -124t-127.5 -39
q-40 0 -75 8.5t-61 35.5t-41 77t-15 134q0 55 5.5 104.5t25 86t57.5 58t104 21.5q54 0 89 -15t55 -45.5t28 -76.5t8 -109v-43h-284z" />
    <glyph glyph-name="igrave" unicode="&#xec;" horiz-adv-x="222" 
d="M101 722l89 -141h-67l-131 141h109zM70 0v505h82v-505h-82z" />
    <glyph glyph-name="iacute" unicode="&#xed;" horiz-adv-x="222" 
d="M230 722l-131 -141h-67l89 141h109zM70 0v505h82v-505h-82z" />
    <glyph glyph-name="icircumflex" unicode="&#xee;" horiz-adv-x="222" 
d="M111 675l-66 -94h-80l100 141h92l100 -141h-80zM70 0v505h82v-505h-82z" />
    <glyph glyph-name="idieresis" unicode="&#xef;" horiz-adv-x="222" 
d="M70 590h-94v104h94v-104zM246 590h-94v104h94v-104zM70 0v505h82v-505h-82z" />
    <glyph glyph-name="eth" unicode="&#xf0;" 
d="M250 56q32 0 52.5 11.5t32.5 37.5t16.5 67.5t4.5 101.5q0 51 -7.5 83t-21.5 50.5t-33.5 25t-43.5 6.5t-43.5 -6.5t-33.5 -25t-21.5 -50.5t-7.5 -83q0 -60 4.5 -101.5t16.5 -67.5t32.5 -37.5t52.5 -11.5zM109 600l83 49q-23 20 -44 33.5t-40 23.5l55 47q50 -25 97 -64
l93 55l30 -33l-91 -53q37 -37 65 -76.5t47 -88.5t28.5 -110.5t9.5 -142.5q0 -82 -15 -131.5t-41 -75.5t-61 -34.5t-75 -8.5t-75 8.5t-61 34.5t-41 75.5t-15 131.5q0 54 5 102.5t23.5 84.5t54.5 57t97 21q32 0 51 -9t38 -28l2 2q-11 33 -33.5 68t-67.5 83l-88 -51z" />
    <glyph glyph-name="ntilde" unicode="&#xf1;" 
d="M420 694q-2 -21 -10 -41t-21 -35t-31 -24t-42 -9q-17 0 -35 6t-37 13q-19 8 -37 13.5t-35 5.5t-30.5 -14t-15.5 -31h-46q5 46 29.5 77t74.5 31q20 0 39 -5.5t36 -12.5q17 -8 32 -13.5t27 -5.5q47 0 51 45h51zM346 0v350q0 20 -4 38t-14 31.5t-27.5 21t-43.5 7.5
q-34 0 -54 -13.5t-31 -35t-14.5 -48t-3.5 -52.5v-299h-82v400q0 26 -1.5 52.5t-3.5 52.5h87v-65h4q24 43 55 59t80 16q40 0 66.5 -11.5t41.5 -33.5t21 -52.5t6 -67.5v-350h-82z" />
    <glyph glyph-name="ograve" unicode="&#xf2;" 
d="M240 722l89 -141h-67l-131 141h109zM250 57q32 0 52.5 12t32.5 38t16.5 68.5t4.5 104.5q0 52 -7.5 84.5t-21.5 51t-33.5 25.5t-43.5 7t-43.5 -7t-33.5 -25.5t-21.5 -51t-7.5 -84.5q0 -62 4.5 -104.5t16.5 -68.5t32.5 -38t52.5 -12zM250 -10q-40 0 -75 8.5t-61 35.5
t-41 77t-15 134q0 55 5.5 104.5t25 86t57.5 58t104 21.5t104 -21.5t57.5 -58t25 -86t5.5 -104.5q0 -84 -15 -134t-41 -77t-61 -35.5t-75 -8.5z" />
    <glyph glyph-name="oacute" unicode="&#xf3;" 
d="M369 722l-131 -141h-67l89 141h109zM250 57q32 0 52.5 12t32.5 38t16.5 68.5t4.5 104.5q0 52 -7.5 84.5t-21.5 51t-33.5 25.5t-43.5 7t-43.5 -7t-33.5 -25.5t-21.5 -51t-7.5 -84.5q0 -62 4.5 -104.5t16.5 -68.5t32.5 -38t52.5 -12zM250 -10q-40 0 -75 8.5t-61 35.5
t-41 77t-15 134q0 55 5.5 104.5t25 86t57.5 58t104 21.5t104 -21.5t57.5 -58t25 -86t5.5 -104.5q0 -84 -15 -134t-41 -77t-61 -35.5t-75 -8.5z" />
    <glyph glyph-name="ocircumflex" unicode="&#xf4;" 
d="M250 675l-66 -94h-80l100 141h92l100 -141h-80zM250 57q32 0 52.5 12t32.5 38t16.5 68.5t4.5 104.5q0 52 -7.5 84.5t-21.5 51t-33.5 25.5t-43.5 7t-43.5 -7t-33.5 -25.5t-21.5 -51t-7.5 -84.5q0 -62 4.5 -104.5t16.5 -68.5t32.5 -38t52.5 -12zM250 -10q-40 0 -75 8.5
t-61 35.5t-41 77t-15 134q0 55 5.5 104.5t25 86t57.5 58t104 21.5t104 -21.5t57.5 -58t25 -86t5.5 -104.5q0 -84 -15 -134t-41 -77t-61 -35.5t-75 -8.5z" />
    <glyph glyph-name="otilde" unicode="&#xf5;" 
d="M420 694q-2 -21 -10 -41t-21 -35t-31 -24t-42 -9q-17 0 -35 6t-37 13q-19 8 -37 13.5t-35 5.5t-30.5 -14t-15.5 -31h-46q5 46 29.5 77t74.5 31q20 0 39 -5.5t36 -12.5q17 -8 32 -13.5t27 -5.5q47 0 51 45h51zM250 57q32 0 52.5 12t32.5 38t16.5 68.5t4.5 104.5
q0 52 -7.5 84.5t-21.5 51t-33.5 25.5t-43.5 7t-43.5 -7t-33.5 -25.5t-21.5 -51t-7.5 -84.5q0 -62 4.5 -104.5t16.5 -68.5t32.5 -38t52.5 -12zM250 -10q-40 0 -75 8.5t-61 35.5t-41 77t-15 134q0 55 5.5 104.5t25 86t57.5 58t104 21.5t104 -21.5t57.5 -58t25 -86t5.5 -104.5
q0 -84 -15 -134t-41 -77t-61 -35.5t-75 -8.5z" />
    <glyph glyph-name="odieresis" unicode="&#xf6;" 
d="M385 590h-94v104h94v-104zM209 590h-94v104h94v-104zM250 57q32 0 52.5 12t32.5 38t16.5 68.5t4.5 104.5q0 52 -7.5 84.5t-21.5 51t-33.5 25.5t-43.5 7t-43.5 -7t-33.5 -25.5t-21.5 -51t-7.5 -84.5q0 -62 4.5 -104.5t16.5 -68.5t32.5 -38t52.5 -12zM250 -10
q-40 0 -75 8.5t-61 35.5t-41 77t-15 134q0 55 5.5 104.5t25 86t57.5 58t104 21.5t104 -21.5t57.5 -58t25 -86t5.5 -104.5q0 -84 -15 -134t-41 -77t-61 -35.5t-75 -8.5z" />
    <glyph glyph-name="divide" unicode="&#xf7;" 
d="M297 402h-94v104h94v-104zM297 0h-94v104h94v-104zM43 284h414v-62h-414v62z" />
    <glyph glyph-name="oslash" unicode="&#xf8;" 
d="M167 104q23 -47 83 -47q32 0 52.5 12t32.5 38t16.5 68.5t4.5 104.5q0 51 -7 79zM334 403q-14 26 -35.5 35.5t-48.5 9.5q-24 0 -43.5 -7t-33.5 -25.5t-21.5 -51t-7.5 -84.5q0 -84 9 -130zM432 539l32 -20l-56 -78q22 -37 28 -87.5t6 -108.5q0 -84 -15 -134t-41 -77
t-61 -35.5t-75 -8.5t-74.5 8.5t-60.5 34.5l-48 -68l-31 22l56 78q-17 30 -25.5 73.5t-8.5 106.5q0 55 5.5 104.5t25 86t57.5 58t104 21.5q48 0 80 -11.5t54 -31.5z" />
    <glyph glyph-name="ugrave" unicode="&#xf9;" 
d="M240 722l89 -141h-67l-131 141h109zM342 505h82v-400q0 -26 1.5 -52.5t3.5 -52.5h-87v61h-3q-20 -35 -54 -53t-74 -18q-66 0 -101 32.5t-35 97.5v385h82v-350q0 -46 21 -74t65 -28q16 0 34 6.5t32 20.5t23.5 36t9.5 54v335z" />
    <glyph glyph-name="uacute" unicode="&#xfa;" 
d="M369 722l-131 -141h-67l89 141h109zM342 505h82v-400q0 -26 1.5 -52.5t3.5 -52.5h-87v61h-3q-20 -35 -54 -53t-74 -18q-66 0 -101 32.5t-35 97.5v385h82v-350q0 -46 21 -74t65 -28q16 0 34 6.5t32 20.5t23.5 36t9.5 54v335z" />
    <glyph glyph-name="ucircumflex" unicode="&#xfb;" 
d="M250 675l-66 -94h-80l100 141h92l100 -141h-80zM342 505h82v-400q0 -26 1.5 -52.5t3.5 -52.5h-87v61h-3q-20 -35 -54 -53t-74 -18q-66 0 -101 32.5t-35 97.5v385h82v-350q0 -46 21 -74t65 -28q16 0 34 6.5t32 20.5t23.5 36t9.5 54v335z" />
    <glyph glyph-name="udieresis" unicode="&#xfc;" 
d="M209 590h-94v104h94v-104zM385 590h-94v104h94v-104zM342 505h82v-400q0 -26 1.5 -52.5t3.5 -52.5h-87v61h-3q-20 -35 -54 -53t-74 -18q-66 0 -101 32.5t-35 97.5v385h82v-350q0 -46 21 -74t65 -28q16 0 34 6.5t32 20.5t23.5 36t9.5 54v335z" />
    <glyph glyph-name="yacute" unicode="&#xfd;" horiz-adv-x="444" 
d="M341 722l-131 -141h-67l89 141h109zM224 94h2l121 411h89l-229 -696h-85l57 191l-171 505h95z" />
    <glyph glyph-name="thorn" unicode="&#xfe;" 
d="M161 273v-67q0 -37 8 -70t27 -56t57 -23q39 0 59.5 18.5t30.5 46t11.5 60t1.5 61.5q0 51 -3.5 89t-14 64t-30 39t-52.5 13q-34 0 -53 -18t-28.5 -44.5t-11.5 -57t-2 -55.5zM79 722h82v-277h2q21 35 48 52.5t64 17.5q61 0 95 -24.5t50 -63.5t19 -87.5t3 -95.5
q0 -83 -14 -133t-37 -77t-52.5 -35.5t-59.5 -8.5q-39 0 -66.5 15.5t-48.5 45.5h-3v-242h-82v913z" />
    <glyph glyph-name="ydieresis" unicode="&#xff;" horiz-adv-x="444" 
d="M181 590h-94v104h94v-104zM357 590h-94v104h94v-104zM224 94h2l121 411h89l-229 -696h-85l57 191l-171 505h95z" />
    <glyph glyph-name="dotlessi" unicode="&#x131;" horiz-adv-x="222" 
d="M70 0v505h82v-505h-82z" />
    <glyph glyph-name="Lslash" unicode="&#x141;" horiz-adv-x="444" 
d="M81 367l-71 -41l-22 39l93 54v303h92v-250l75 43l22 -39l-97 -56v-340h265v-80h-357v367z" />
    <glyph glyph-name="lslash" unicode="&#x142;" horiz-adv-x="222" 
d="M152 469l79 46l20 -35l-99 -57v-423h-82v376l-79 -46l-20 35l99 57v300h82v-253z" />
    <glyph glyph-name="OE" unicode="&#x152;" horiz-adv-x="833" 
d="M421 642h-132q-30 0 -53 -8.5t-38.5 -31.5t-23.5 -63.5t-8 -105.5v-160q0 -43 5.5 -78.5t20 -61t40 -39.5t65.5 -14h124v562zM793 642h-280v-232h260v-80h-260v-250h286v-80h-477q-65 0 -112.5 14.5t-78 47t-45 83.5t-14.5 124v168q0 79 14.5 133.5t43 88t70 48.5
t95.5 15h498v-80z" />
    <glyph glyph-name="oe" unicode="&#x153;" horiz-adv-x="778" 
d="M636 288q0 55 -7.5 87t-20.5 48t-32 20.5t-41 4.5q-20 0 -37 -5.5t-30 -22t-21 -48.5t-8 -84h197zM250 57q32 0 52.5 12t32.5 38t16.5 68.5t4.5 104.5q0 52 -7.5 84.5t-21.5 51t-33.5 25.5t-43.5 7t-43.5 -7t-33.5 -25.5t-21.5 -51t-7.5 -84.5q0 -62 4.5 -104.5
t16.5 -68.5t32.5 -38t52.5 -12zM439 226q0 -53 7 -86t20 -51.5t32 -25t43 -6.5q21 0 37 8t27 21t17 30.5t7 36.5h90q-1 -85 -48.5 -124t-127.5 -39q-24 0 -47.5 3t-44 12t-36.5 24.5t-25 40.5q-25 -47 -60 -63.5t-80 -16.5q-40 0 -75 8.5t-61 35.5t-41 77t-15 134
q0 55 5.5 104.5t25 86t57.5 58t104 21.5q22 0 46 -4t44.5 -13.5t35 -25.5t18.5 -41h2q17 45 53.5 64.5t93.5 19.5q54 0 89 -15t55 -45.5t28 -76.5t8 -109v-43h-284z" />
    <glyph glyph-name="Scaron" unicode="&#x160;" horiz-adv-x="556" 
d="M424 939l-100 -141h-92l-100 141h80l66 -94l66 94h80zM152 215v-21q0 -37 10.5 -61.5t28 -39.5t39 -21.5t43.5 -6.5q27 0 51 6t41 20t27 36.5t10 54.5q0 40 -24 67t-60 49t-78 42t-78 47t-60 63.5t-24 90.5q0 48 16 84.5t44.5 61.5t67.5 37.5t84 12.5q99 0 151.5 -50.5
t48.5 -160.5h-96q1 59 -22.5 95t-88.5 36q-21 0 -40.5 -5.5t-35.5 -18t-25.5 -33t-9.5 -49.5q0 -40 24 -66.5t60 -48t78 -42t78 -47.5t60 -65.5t24 -95.5t-18.5 -95.5t-49 -62t-71 -33.5t-85.5 -10q-53 -1 -89.5 11.5t-60 32t-36.5 45t-18.5 51t-6.5 49.5t0 41h91z" />
    <glyph glyph-name="scaron" unicode="&#x161;" horiz-adv-x="444" 
d="M368 722l-100 -141h-92l-100 141h80l66 -94l66 94h80zM397 144q0 -42 -13.5 -71t-37 -47.5t-56 -27t-69.5 -8.5q-82 0 -129 38.5t-45 125.5h93q0 -11 1.5 -27.5t9.5 -32t25 -26.5t48 -11q37 0 62 19t25 58q0 22 -18.5 38.5t-46.5 31t-61 29t-61 34t-46.5 46t-18.5 64.5
q0 20 7 44t26.5 45t53.5 35t87 14q34 0 64 -8.5t52.5 -25.5t34.5 -44.5t9 -64.5h-91q1 40 -19.5 60.5t-59.5 20.5q-33 0 -55.5 -17.5t-22.5 -50.5q0 -22 18.5 -38t46.5 -30t61 -28t61 -33.5t46.5 -46.5t18.5 -65z" />
    <glyph glyph-name="Ydieresis" unicode="&#x178;" 
d="M209 807h-94v104h94v-104zM385 807h-94v104h94v-104zM398 722h93l-197 -447v-275h-92v275l-194 447h103l141 -349z" />
    <glyph glyph-name="Zcaron" unicode="&#x17d;" 
d="M396 939l-100 -141h-92l-100 141h80l66 -94l66 94h80zM467 630l-358 -550h366v-80h-451v104l350 536v2h-338v80h431v-92z" />
    <glyph glyph-name="zcaron" unicode="&#x17e;" horiz-adv-x="389" 
d="M341 722l-100 -141h-92l-100 141h80l66 -94l66 94h80zM347 430l-223 -363h230v-67h-319v77l220 359v2h-209v67h301v-75z" />
    <glyph glyph-name="florin" unicode="&#x192;" horiz-adv-x="444" 
d="M45 -104q27 -2 42 5.5t22.5 21.5t11 32.5t6.5 39.5l61 396h-91l11 62h89l13 80q3 22 10.5 52t24.5 56.5t45.5 45t75.5 18.5q11 0 22 -1.5t22 -2.5l-11 -67q-3 1 -10 2.5t-15 1.5q-22 0 -37 -10t-24 -24.5t-13.5 -29.5t-5.5 -24l-16 -97h98l-9 -62h-98l-67 -440
q-7 -45 -25 -70t-42 -37t-50.5 -14t-50.5 -1z" />
    <glyph glyph-name="circumflex" unicode="&#x2c6;" horiz-adv-x="278" 
d="M139 675l-66 -94h-80l100 141h92l100 -141h-80z" />
    <glyph glyph-name="caron" unicode="&#x2c7;" horiz-adv-x="278" 
d="M285 722l-100 -141h-92l-100 141h80l66 -94l66 94h80z" />
    <glyph glyph-name="breve" unicode="&#x2d8;" horiz-adv-x="278" 
d="M34 722q8 -42 36.5 -60.5t68.5 -18.5q42 0 69 18.5t36 60.5h49q-8 -64 -46.5 -99.5t-104.5 -35.5q-69 0 -110.5 31t-46.5 104h49z" />
    <glyph glyph-name="dotaccent" unicode="&#x2d9;" horiz-adv-x="278" 
d="M186 590h-94v104h94v-104z" />
    <glyph glyph-name="ring" unicode="&#x2da;" horiz-adv-x="278" 
d="M199 671q0 25 -18 42.5t-42 17.5q-25 0 -42.5 -17.5t-17.5 -42.5q0 -24 17.5 -42t42.5 -18q24 0 42 18t18 42zM139 570q-21 0 -39 8t-32 21.5t-22 32t-8 39.5t8 39.5t21.5 32t32 21.5t39.5 8t39.5 -8t32 -22t21.5 -32t8 -39t-8 -39.5t-21.5 -32t-32 -21.5t-39.5 -8z" />
    <glyph glyph-name="ogonek" unicode="&#x2db;" horiz-adv-x="278" 
d="M245 -169q-22 -8 -50.5 -15t-56.5 -7q-18 0 -36.5 5t-34 16t-25.5 28t-10 42q0 19 12 35t30.5 29t39.5 22t39 14l59 2v-2q-49 -17 -73.5 -40.5t-24.5 -44.5q0 -26 13.5 -38t32.5 -12q18 0 37.5 5t47.5 15v-54z" />
    <glyph glyph-name="tilde" unicode="&#x2dc;" horiz-adv-x="278" 
d="M309 694q-2 -21 -10 -41t-21 -35t-31 -24t-42 -9q-17 0 -35 6t-37 13q-19 8 -37 13.5t-35 5.5t-30.5 -14t-15.5 -31h-46q5 46 29.5 77t74.5 31q20 0 39 -5.5t36 -12.5q17 -8 32 -13.5t27 -5.5q47 0 51 45h51z" />
    <glyph glyph-name="hungarumlaut" unicode="&#x2dd;" horiz-adv-x="444" 
d="M421 722l-131 -141h-67l89 141h109zM238 722l-131 -141h-67l89 141h109z" />
    <glyph glyph-name="endash" unicode="&#x2013;" 
d="M0 299h500v-56h-500v56z" />
    <glyph glyph-name="emdash" unicode="&#x2014;" horiz-adv-x="1000" 
d="M0 299h1000v-56h-1000v56z" />
    <glyph glyph-name="quoteleft" unicode="&#x2018;" horiz-adv-x="222" 
d="M143 523h-108l82 199h69z" />
    <glyph glyph-name="quoteright" unicode="&#x2019;" horiz-adv-x="222" 
d="M78 722h108l-82 -199h-69z" />
    <glyph glyph-name="quotesinglbase" unicode="&#x201a;" horiz-adv-x="222" 
d="M78 88h108l-82 -199h-69z" />
    <glyph glyph-name="quotedblleft" unicode="&#x201c;" horiz-adv-x="444" 
d="M338 522h-108l82 199h69zM171 522h-108l82 199h69z" />
    <glyph glyph-name="quotedblright" unicode="&#x201d;" horiz-adv-x="444" 
d="M273 722h108l-82 -199h-69zM106 722h108l-82 -199h-69z" />
    <glyph glyph-name="quotedblbase" unicode="&#x201e;" horiz-adv-x="444" 
d="M106 88h108l-82 -199h-69zM273 88h108l-82 -199h-69z" />
    <glyph glyph-name="dagger" unicode="&#x2020;" horiz-adv-x="444" 
d="M181 505h-142v67h142v150h82v-150h142v-67h-142v-505h-82v505z" />
    <glyph glyph-name="daggerdbl" unicode="&#x2021;" horiz-adv-x="444" 
d="M40 505v67h140v150h82v-150h141v-67h-141v-288h141v-67h-141v-150h-82v150h-140v67h140v288h-140z" />
    <glyph glyph-name="bullet" unicode="&#x2022;" horiz-adv-x="333" 
d="M320 361q0 -31 -12.5 -59t-33.5 -49t-49 -33t-59 -12t-59 12t-49 33t-33 49t-12 59t12 59t33 49t49 33.5t59 12.5t59 -12.5t49 -33.5t33.5 -49t12.5 -59z" />
    <glyph glyph-name="ellipsis" unicode="&#x2026;" horiz-adv-x="1000" 
d="M547 0h-94v104h94v-104zM880 0h-94v104h94v-104zM214 0h-94v104h94v-104z" />
    <glyph glyph-name="perthousand" unicode="&#x2030;" horiz-adv-x="889" 
d="M138 438q22 0 33 17t15 40.5t3.5 47.5t-0.5 39t-0.5 31.5t-5 31t-15 24t-30.5 9.5t-30.5 -9.5t-15 -24t-5 -31t-0.5 -31.5t-0.5 -39t3.5 -47.5t14.5 -40.5t33.5 -17zM750 41q22 0 33 17t15 40.5t3.5 47.5t-0.5 39t-0.5 31.5t-5 31t-15 24t-30.5 9.5t-30.5 -9.5t-15 -24
t-5 -31t-0.5 -31.5t-0.5 -39t3.5 -47.5t14.5 -40.5t33.5 -17zM459 41q22 0 33 17t15 40.5t3.5 47.5t-0.5 39t-0.5 31.5t-5 31t-15 24t-30.5 9.5t-30.5 -9.5t-15 -24t-5 -31t-0.5 -31.5t-0.5 -39t3.5 -47.5t14.5 -40.5t33.5 -17zM436 760h63l-343 -794h-61zM459 337
q42 0 65 -14t34.5 -37.5t13.5 -54.5t2 -64q0 -32 -2.5 -64.5t-14 -58.5t-34.5 -42.5t-64 -16.5t-64 16.5t-34.5 42.5t-14 58.5t-2.5 64.5q0 33 2 64t13.5 54.5t34.5 37.5t65 14zM750 337q42 0 65 -14t34.5 -37.5t13.5 -54.5t2 -64q0 -32 -2.5 -64.5t-14 -58.5t-34.5 -42.5
t-64 -16.5t-64 16.5t-34.5 42.5t-14 58.5t-2.5 64.5q0 33 2 64t13.5 54.5t34.5 37.5t65 14zM138 734q42 0 65 -14t34.5 -37.5t13.5 -54.5t2 -64q0 -32 -2.5 -64.5t-14 -58.5t-34.5 -42.5t-64 -16.5t-64 16.5t-34.5 42.5t-14 58.5t-2.5 64.5q0 33 2 64t13.5 54.5t34.5 37.5
t65 14z" />
    <glyph glyph-name="guilsinglleft" unicode="&#x2039;" horiz-adv-x="222" 
d="M24 270l93 196h76l-79 -196l78 -193h-78z" />
    <glyph glyph-name="guilsinglright" unicode="&#x203a;" horiz-adv-x="222" 
d="M30 77l78 193l-79 196h76l93 -196l-90 -193h-78z" />
    <glyph glyph-name="fraction" unicode="&#x2044;" horiz-adv-x="167" 
d="M-166 -30l437 749h62l-436 -749h-63z" />
    <glyph glyph-name="fraction" unicode="&#x2215;" horiz-adv-x="167" 
d="M-166 -30l437 749h62l-436 -749h-63z" />
    <glyph glyph-name="trademark" unicode="&#x2122;" horiz-adv-x="825" 
d="M305 722v-56h-119v-377h-70v377h-119v56h308zM790 289h-70v341h-2l-120 -341h-57l-114 341h-2v-341h-70v433h111l108 -322h2l105 322h109v-433z" />
    <glyph glyph-name="minus" unicode="&#x2212;" 
d="M43 284h414v-62h-414v62z" />
    <glyph glyph-name="fi" unicode="&#xfb01;" 
d="M336 722h92v-88h-92v88zM423 0h-82v505h82v-505zM87 505v98q0 38 12.5 62t32.5 37.5t46.5 18t53.5 4.5q13 0 21.5 -0.5t17.5 -2.5v-59q-33 2 -53 -3t-31 -15.5t-14.5 -24.5t-3.5 -29v-86h102v-62h-102v-443h-82v443h-78v62h78z" />
    <glyph glyph-name="fl" unicode="&#xfb02;" 
d="M430 0h-82v722h82v-722zM87 505v98q0 38 12.5 62t32.5 37.5t46.5 18t53.5 4.5q13 0 21.5 -0.5t17.5 -2.5v-59q-33 2 -53 -3t-31 -15.5t-14.5 -24.5t-3.5 -29v-86h102v-62h-102v-443h-82v443h-78v62h78z" />
    <glyph glyph-name="nonbreakingspace" horiz-adv-x="222" 
 />
    </font>
</defs>
</svg>
