<?xml version="1.0" standalone="no"?>
<!DOCTYPE svg PUBLIC "-//W3C//DTD SVG 1.1//EN" "http://www.w3.org/Graphics/SVG/1.1/DTD/svg11.dtd" >
<svg xmlns="http://www.w3.org/2000/svg" xmlns:xlink="http://www.w3.org/1999/xlink" version="1.1">
<metadata>
Created by FontForge 20161003 at Tue Dec 26 03:29:19 2017
 By www-data
Copyright (c) 1985, 1987, 1991, 1993, 1997, 1998, 1999 Adobe Systems Incorporated.  All Rights Reserved.Helvetica is a trademark of Linotype-Hell AG and/or its subsidiaries.
</metadata>
<defs>
<font id="HelveticaBold" horiz-adv-x="500" >
  <font-face 
    font-family="HelveticaBold"
    font-weight="700"
    font-stretch="normal"
    units-per-em="1000"
    panose-1="2 0 8 6 5 0 0 2 0 4"
    ascent="800"
    descent="-200"
    x-height="564"
    cap-height="750"
    bbox="-169 -250 1091 991"
    underline-thickness="50"
    underline-position="-175"
    unicode-range="U+0020-FB02"
  />
<missing-glyph horiz-adv-x="250" 
 />
    <glyph glyph-name=".notdef" horiz-adv-x="250" 
 />
    <glyph glyph-name=".null" horiz-adv-x="0" 
 />
    <glyph glyph-name="nonmarkingreturn" horiz-adv-x="250" 
 />
    <glyph glyph-name="space" unicode=" " horiz-adv-x="250" 
 />
    <glyph glyph-name="space" unicode="&#xa0;" horiz-adv-x="250" 
 />
    <glyph glyph-name="exclam" unicode="!" horiz-adv-x="333" 
d="M101 540v-18q0 -38 2.5 -77t6.5 -78q4 -44 8.5 -86.5t6.5 -86.5h85q3 44 7 86.5t8 86.5q3 33 5 66t2 66v20q0 10 -1 21v210h-130v-210zM232 0v132h-130v-132h130z" />
    <glyph glyph-name="quotedbl" unicode="&#x22;" horiz-adv-x="333" 
d="M318 468v271h-119v-271h119zM135 468v271h-119v-271h119z" />
    <glyph glyph-name="numbersign" unicode="#" 
d="M445 331h-75l11 92h88v98h-76l27 217h-86l-26 -217h-73l26 217h-83l-27 -217h-95v-98h84l-11 -92h-98v-98h85l-28 -233h84l29 233h72l-28 -233h85l29 233h86v98zM296 423l-12 -92h-71l11 92h72z" />
    <glyph glyph-name="dollar" unicode="$" 
d="M279 287q9 -6 19.5 -16.5t19.5 -24.5t15 -31t6 -36q0 -42 -17 -64t-43 -30v202zM218 85q-25 6 -37.5 19t-18 31t-6.5 40.5t-1 46.5h-120q0 -6 -0.5 -12t-0.5 -12q0 -44 10 -82t31.5 -66.5t56 -46t83.5 -21.5v-106h68v109q98 14 140.5 66t42.5 152v7q0 39 -15 72.5t-40 62
t-59 52.5t-73 44v199q35 -10 45 -35t10 -66h116v7q0 14 -1.5 28t-2.5 28q-2 51 -41.5 89.5t-121.5 48.5v63h-68v-63q-46 -6 -78 -23t-52.5 -42.5t-30 -56.5t-9.5 -64q0 -52 13 -87.5t36.5 -62.5t55 -49.5t68.5 -46.5v-223zM218 461q-10 11 -19.5 21.5t-17 22.5t-12 26.5
t-4.5 33.5q0 28 13.5 49.5t39.5 25.5v-179z" />
    <glyph glyph-name="percent" unicode="%" horiz-adv-x="833" 
d="M184 736q-54 0 -84.5 -15t-46 -40.5t-19 -58.5t-3.5 -69t3.5 -69t19 -58.5t46 -40.5t84.5 -15q55 0 86 15t46.5 40.5t19 58.5t3.5 69t-3.5 69t-19 58.5t-46.5 40.5t-86 15zM186 663q21 0 33 -8t17 -22t6 -34.5t1 -45.5t-1 -45.5t-6 -34.5t-17 -22t-33 -8q-22 0 -34 8
t-17.5 22t-6.5 34.5t-1 45.5t1 45.5t6.5 34.5t17.5 22t34 8zM649 366q-54 0 -84.5 -15t-46 -40.5t-19 -58.5t-3.5 -69t3.5 -69t19 -58.5t46 -40.5t84.5 -15q55 0 86 15t46 40.5t18.5 58.5t3.5 69t-3.5 69t-18.5 58.5t-46 40.5t-86 15zM650 293q21 0 33 -8t17 -22t6 -34.5
t1 -45.5t-1 -45.5t-6 -34.5t-17 -22t-33 -8q-22 0 -33.5 8t-17 22t-6.5 34.5t-1 45.5t1 45.5t6.5 34.5t17 22t33.5 8zM280 -15l335 765h-70l-336 -765h71z" />
    <glyph glyph-name="ampersand" unicode="&#x26;" horiz-adv-x="667" 
d="M306 518q-11 22 -25.5 48.5t-14.5 52.5t14 37.5t32 11.5h2q19 -1 34.5 -17t15.5 -42q0 -29 -18.5 -51.5t-39.5 -39.5zM363 425q51 32 82.5 78.5t31.5 108.5q0 37 -13.5 66t-36 49t-50.5 30.5t-58 10.5q-31 0 -62 -8.5t-55.5 -28t-40 -50.5t-15.5 -75q0 -45 18.5 -84.5
t40.5 -77.5q-32 -23 -58.5 -47t-45 -52t-28.5 -61.5t-10 -75.5q0 -48 15 -89.5t42 -71.5t63.5 -47.5t79.5 -17.5q53 0 94.5 13.5t80.5 51.5l27 -50h150l-90 150q34 58 50 121.5t16 130.5h-111q-2 -35 -7 -69.5t-16 -67.5zM385 136q-20 -17 -42 -29t-49 -12q-22 0 -39 10
t-29.5 26.5t-20.5 37t-11 41.5q-1 5 -1 8v8q0 22 7.5 42t19 35.5t23.5 26t21 13.5z" />
    <glyph glyph-name="quotesingle" unicode="'" horiz-adv-x="250" 
d="M185 468v271h-119v-271h119z" />
    <glyph glyph-name="parenleft" unicode="(" horiz-adv-x="333" 
d="M198 768q-78 -106 -112 -219.5t-34 -244.5q0 -80 8 -143t25 -120t45 -114t68 -125h83q-29 62 -47.5 116t-29.5 108t-15.5 111t-4.5 126q0 102 6.5 177t18.5 133t29.5 104.5t40.5 90.5h-81z" />
    <glyph glyph-name="parenright" unicode=")" horiz-adv-x="333" 
d="M135 -198q78 106 112 219.5t34 244.5q0 80 -8 143t-25 120t-45 114t-68 125h-83q28 -62 47 -116t30 -108t15.5 -111t4.5 -126q0 -102 -6.5 -177t-18.5 -133t-30 -104.5t-40 -90.5h81z" />
    <glyph glyph-name="asterisk" unicode="*" 
d="M382 461l-54 75q-5 9 -14 18q5 0 9 1t9 3l90 27l-27 78l-86 -29q-6 -2 -11 -3.5t-10 -3.5q1 5 1 9v9v93h-80v-93v-10t1 -10q-5 2 -9 3t-9 3l-89 28l-24 -76l88 -28q5 -2 10 -3t10 -3q-7 -7 -11 -14l-55 -76l66 -47l54 74q3 5 6.5 9.5t5.5 9.5q2 -5 4.5 -8t4.5 -7l54 -77z
" />
    <glyph glyph-name="plus" unicode="+" 
d="M195 304h-169v-110h169v-194h110v194h170v110h-170v188h-110v-188z" />
    <glyph glyph-name="comma" unicode="," horiz-adv-x="333" 
d="M101 -145q66 8 99 46t33 102v129h-132v-132h70v-8q0 -38 -18 -63.5t-52 -29.5v-44z" />
    <glyph glyph-name="hyphen" unicode="-" horiz-adv-x="333" 
d="M286 255v115h-238v-115h238z" />
    <glyph glyph-name="period" unicode="." horiz-adv-x="333" 
d="M233 0v132h-132v-132h132z" />
    <glyph glyph-name="slash" unicode="/" horiz-adv-x="278" 
d="M-11 -94h87l236 844h-87z" />
    <glyph glyph-name="zero" unicode="0" 
d="M188 538v15q0 53 17.5 71.5t43.5 18.5t45 -18.5t19 -72.5v-365q0 -27 -5 -45t-14 -28.5t-20.5 -14.5t-24.5 -4q-26 0 -43.5 18.5t-17.5 72.5v352zM48 201q0 -60 14 -101t40 -66.5t63.5 -37t84.5 -11.5q48 0 85.5 11.5t63.5 37t40 66.5t14 101v337q0 60 -14 101t-40 66.5
t-63.5 36.5t-84.5 11q-48 0 -85.5 -11t-63.5 -36.5t-40 -66.5t-14 -101v-337z" />
    <glyph glyph-name="one" unicode="1" 
d="M213 0h140v750h-103q-11 -39 -30.5 -64t-46.5 -39.5t-60 -20.5t-69 -6v-100h169v-520z" />
    <glyph glyph-name="two" unicode="2" 
d="M442 0v110h-261q0 19 7.5 37.5t18.5 35.5t23.5 31.5t23.5 25.5l110 114q44 45 66.5 93.5t22.5 111.5q0 45 -15 81t-41.5 61t-63.5 38.5t-81 13.5h-4q-52 0 -87.5 -12t-58.5 -31.5t-36 -44t-19 -49.5t-7 -48.5t-1 -40.5v-27h131v30q0 20 1.5 39t9.5 37q8 21 25.5 29
t39.5 8q30 0 48.5 -19t18.5 -70q0 -27 -4.5 -46t-13 -34.5t-21.5 -30.5t-30 -33l-68 -72q-65 -69 -95 -120.5t-37 -90.5q-5 -32 -8 -67.5t-4 -59.5h410z" />
    <glyph glyph-name="three" unicode="3" 
d="M171 346h7q15 0 32 -0.5t33.5 -3.5t30.5 -9t23 -17q6 -7 9 -17t4.5 -21t2 -21.5t0.5 -19.5v-10q0 -25 -1.5 -49t-8.5 -42.5t-22.5 -29.5t-42.5 -11q-33 0 -49.5 15.5t-22.5 38.5t-6 50t-1 50h-131v-56q0 -30 6.5 -66t28 -67.5t62.5 -53t110 -21.5q58 0 99 16t67.5 46.5
t39 74.5t12.5 99v7q0 83 -32 126t-81 49v2q27 4 46 19.5t30.5 37.5t16.5 48t5 50q0 90 -49 141.5t-155 51.5q-102 0 -150 -52.5t-48 -146.5q0 -5 0.5 -11t0.5 -12h131v53q1 18 7.5 29.5t16 18t21 9t22.5 2.5q67 0 67 -84q0 -28 -7 -53t-36 -39q-20 -7 -43 -9t-45 -2v-110z
" />
    <glyph glyph-name="four" unicode="4" 
d="M126 262l138 304h2v-304h-140zM250 738l-227 -476v-110h243v-152h140v152h64v110h-64v476h-156z" />
    <glyph glyph-name="five" unicode="5" 
d="M168 345q3 24 23.5 39.5t46.5 15.5q18 0 32.5 -5.5t25 -19.5t16.5 -38.5t6 -62.5v-22q-1 -27 -1.5 -55t-7 -50.5t-21.5 -37t-43 -14.5h-7q-29 1 -43 16t-20 36t-6 45t-1 44h-131v-6q0 -63 10 -109.5t34 -76.5t65.5 -44.5t104.5 -14.5q59 0 99 17.5t64 51.5t34 83.5
t10 113.5q0 45 -6 91t-26 83.5t-57 61t-98 23.5q-35 0 -59 -8.5t-50 -33.5l9 160h253v110h-361l-19 -393h124z" />
    <glyph glyph-name="six" unicode="6" 
d="M182 260q0 23 1 47t7.5 43.5t20.5 32t40 12.5q24 0 37.5 -10t20 -25.5t8.5 -34.5t2 -38v-76q0 -26 -1.5 -47t-8.5 -36.5t-20 -24t-35 -8.5h-9q-21 0 -33.5 10t-19 27.5t-8.5 41.5t-2 51v35zM42 270v-11q0 -64 9.5 -114.5t33.5 -86t64.5 -54.5t102.5 -19q61 0 101 18
t63.5 54t33 89t9.5 124q0 116 -39.5 175.5t-129.5 59.5q-24 0 -41 -4.5t-29.5 -11.5t-21.5 -16l-18 -18v48q1 17 1.5 40t6.5 44.5t21 37.5t45 18h8q19 0 29 -6t15 -14q5 -9 6.5 -19.5t1.5 -19.5h130v9q0 42 -14 72t-38.5 49.5t-58.5 29t-74 9.5q-56 0 -96.5 -13.5t-67.5 -48
t-40 -93t-13 -148.5v-180z" />
    <glyph glyph-name="seven" unicode="7" 
d="M32 628h299q-13 -19 -25.5 -42.5t-24 -46.5t-21 -44.5t-15.5 -36.5q-44 -111 -77.5 -225t-41.5 -233h144q3 69 15 138t29 136q23 94 56.5 184.5t83.5 178.5v101h-422v-110z" />
    <glyph glyph-name="eight" unicode="8" 
d="M181 208v24q0 26 1.5 48t8 37.5t20.5 25t39 9.5t39 -10.5t21 -28.5t8.5 -42t1.5 -51q0 -24 -1 -45.5t-7.5 -38.5t-20.5 -28t-39 -13q-26 1 -40.5 10t-21 24t-8 35t-1.5 44zM251 452q-21 0 -33.5 9t-19 23t-8.5 31t-2 34q0 19 2.5 36t9.5 30t20 20.5t33 7.5
q27 0 43.5 -20.5t16.5 -63.5q0 -17 -1.5 -36t-7.5 -34.5t-18.5 -26t-34.5 -10.5zM146 406q-29 -13 -48.5 -29t-32.5 -39t-18.5 -53.5t-5.5 -72.5q0 -57 11 -99.5t36.5 -71t66 -42.5t100.5 -14q48 0 86 12.5t64.5 39.5t40.5 70.5t14 105.5q0 82 -24 128.5t-88 60.5v2
q29 12 47.5 26.5t29 33.5t14.5 42.5t4 53.5q0 95 -43.5 144t-147.5 49q-53 0 -90 -16t-60 -40.5t-33.5 -55.5t-10.5 -61q0 -40 5.5 -67.5t16 -47t27 -33.5t39.5 -26z" />
    <glyph glyph-name="nine" unicode="9" 
d="M319 478q0 -23 -1 -47t-7.5 -43.5t-20.5 -32t-40 -12.5q-24 0 -37.5 10t-20 25.5t-8.5 34.5t-2 38v76q0 26 1.5 47t8.5 36.5t19.5 24t35.5 8.5h9q21 0 33.5 -10t19 -27.5t8.5 -41.5t2 -51v-35zM459 468v11q0 64 -9.5 114.5t-33.5 86t-64.5 54.5t-101.5 19t-101 -18
t-64 -54t-33.5 -89.5t-9.5 -123.5q0 -116 40 -175.5t130 -59.5q24 0 41 4.5t29.5 11.5t21.5 16l18 18v-48q-1 -17 -1.5 -41t-6.5 -46t-20.5 -37.5t-44.5 -15.5h-6q-19 0 -30 6t-16.5 14.5t-7 19t-1.5 19.5h-130v-9q0 -42 14 -72.5t38.5 -50t58.5 -28.5t74 -9q55 0 96 13.5
t67.5 48t39.5 93t13 148.5v180z" />
    <glyph glyph-name="colon" unicode=":" horiz-adv-x="278" 
d="M205 424v132h-132v-132h132zM205 0v132h-132v-132h132z" />
    <glyph glyph-name="semicolon" unicode=";" horiz-adv-x="278" 
d="M73 -145q66 8 99 46t33 102v129h-132v-132h70v-8q0 -38 -18 -63.5t-52 -29.5v-44zM205 424v132h-132v-132h132z" />
    <glyph glyph-name="less" unicode="&#x3c;" 
d="M162 249l297 167v111l-417 -227v-99l417 -225v111z" />
    <glyph glyph-name="equal" unicode="=" 
d="M475 401h-449v-110h449v110zM475 206h-449v-110h449v110z" />
    <glyph glyph-name="greater" unicode="&#x3e;" 
d="M42 87v-111l417 225v99l-417 227v-111l297 -167z" />
    <glyph glyph-name="question" unicode="?" 
d="M176 553q2 22 2 45t11 43q8 13 20.5 18t35.5 5q30 0 43.5 -18.5t13.5 -62.5q0 -19 -2 -33t-6.5 -26.5t-12 -25t-18.5 -27.5q-20 -26 -38.5 -47.5t-34 -43.5t-25.5 -48t-13 -62q-3 -29 -3 -56v-13h117q0 35 6.5 69t29.5 63q18 19 34.5 38t34.5 38q17 22 30 41t21.5 39
t13 42t4.5 51q0 87 -52 136.5t-141 49.5q-93 0 -144.5 -47t-51.5 -147q0 -5 0.5 -10.5t0.5 -10.5h124zM147 130v-130h127v130h-127z" />
    <glyph glyph-name="at" unicode="@" horiz-adv-x="833" 
d="M654 148q-43 -39 -94 -65.5t-111 -26.5q-70 0 -131 23t-106 65t-70.5 101.5t-25.5 132.5q0 69 23.5 127t65.5 100t100 65.5t127 23.5q62 0 114.5 -18t90.5 -51.5t59 -82t21 -109.5v-10q0 -18 -3.5 -36t-9 -34t-11.5 -29t-11 -20q-16 -23 -35.5 -41.5t-32.5 -22.5
q-2 -1 -7 -1q-14 0 -14 15q0 4 1 7l53 308h-98l-11 -53q-23 32 -55 46.5t-72 14.5q-48 0 -87.5 -20t-67 -53t-42.5 -76t-15 -89q0 -38 11.5 -71.5t33 -58.5t53 -39.5t71.5 -14.5q59 0 123 61l2 -2q-2 -10 -2 -14q0 -23 13.5 -36t30.5 -13q22 0 47.5 8t50 20.5t46 28.5
t36.5 31q43 45 61.5 98t18.5 115q0 72 -31.5 129.5t-84.5 102.5q-52 45 -113.5 64.5t-130.5 19.5q-83 0 -155.5 -29.5t-126 -82t-84.5 -123.5t-31 -155q0 -85 31.5 -157.5t86.5 -125.5t128 -83t157 -30q97 0 175 44.5t134 121.5h-96zM504 370q-2 -20 -10 -41.5t-22 -39.5
t-33.5 -30t-44.5 -12h-7q-3 0 -7 1q-30 5 -50.5 29t-20.5 69v11q1 24 10.5 46t24.5 39.5t35 28.5t43 13h7q40 0 58 -30t18 -69q0 -4 -0.5 -7.5t-0.5 -7.5z" />
    <glyph glyph-name="A" unicode="A" horiz-adv-x="556" 
d="M159 0l37 190h164l37 -190h150l-170 750h-189l-179 -750h150zM260 513q5 26 8 52l6 52q1 13 2 25.5t3 24.5h2q2 -12 3 -24.5t2 -25.5l6 -52t8 -52l38 -213h-120z" />
    <glyph glyph-name="B" unicode="B" horiz-adv-x="556" 
d="M205 110v227h54q33 0 53 -6.5t31 -20.5t15 -36t4 -52q0 -14 -1.5 -30t-6 -30t-13 -26t-22.5 -18q-12 -5 -25.5 -6.5t-27.5 -1.5h-61zM205 447v193h65q48 -2 62 -23t14 -63q0 -27 -2.5 -47t-12.5 -34q-14 -18 -38.5 -22t-48.5 -4h-39zM312 0q75 0 118 32t66 103q6 23 8 46
t2 46q0 73 -25 119.5t-84 54.5v2q28 10 46 27t27.5 37.5t13 44.5t3.5 48q0 38 -6.5 71t-30.5 64q-15 19 -33.5 30t-38.5 16.5t-42.5 7t-44.5 1.5h-226v-750h247z" />
    <glyph glyph-name="C" unicode="C" horiz-adv-x="556" 
d="M371 267q-1 -18 -1.5 -47t-6.5 -57t-20 -48t-43 -20q-36 0 -56.5 16.5t-30 41.5t-12 53.5t-2.5 51.5v236q0 24 2.5 52t12.5 52.5t30 40.5t56 16q26 0 39.5 -15t19.5 -36t7.5 -45t3.5 -42h138v10q0 23 -3 47q-15 191 -205 194q-84 0 -132 -25t-72.5 -69.5t-31.5 -105.5
t-9 -133v-107q0 -75 6 -138.5t30.5 -109.5t73.5 -72t135 -26q58 0 97 18.5t63 51t35 77t14 95.5q1 11 1.5 21.5t1.5 21.5h-141z" />
    <glyph glyph-name="D" unicode="D" horiz-adv-x="611" 
d="M212 110v530h92q31 0 51 -13.5t31.5 -43.5t15.5 -77t4 -113q0 -81 -3 -135.5t-16.5 -87.5t-40 -46.5t-73.5 -13.5h-61zM331 0q26 0 53.5 3t50.5 17q43 25 66.5 67.5t34 95t12.5 110t2 113.5q0 94 -8.5 157t-32.5 102q-16 26 -36 42.5t-40 26t-38 13t-31 3.5h-292v-750
h259z" />
    <glyph glyph-name="E" unicode="E" 
d="M458 0v110h-254v231h234v110h-234v189h254v110h-394v-750h394z" />
    <glyph glyph-name="F" unicode="F" 
d="M213 0v340h241v110h-241v190h257v110h-397v-750h140z" />
    <glyph glyph-name="G" unicode="G" horiz-adv-x="611" 
d="M55 328q0 -75 6 -138.5t30.5 -109.5t73.5 -72t135 -26q19 1 38 6.5t36.5 17.5t32 31.5t25.5 48.5h2v-86h105v403h-233v-110h97v-17q0 -39 -5.5 -72t-17.5 -57.5t-32 -38t-48 -13.5q-36 0 -56.5 16.5t-30 41.5t-12 53.5t-2.5 51.5v236q0 24 2.5 52t12.5 52.5t30 40.5
t56 16q36 -2 56 -13t30 -30t12.5 -44t3.5 -53h140q-1 23 -1.5 45.5t-5.5 45.5q-12 49 -33.5 80t-51 49t-67.5 25.5t-83 7.5q-84 0 -132 -25t-72.5 -69.5t-31.5 -105.5t-9 -133v-107z" />
    <glyph glyph-name="H" unicode="H" horiz-adv-x="611" 
d="M208 0v343h196v-343h140v750h-140v-297h-196v297h-140v-750h140z" />
    <glyph glyph-name="I" unicode="I" horiz-adv-x="278" 
d="M209 0v750h-140v-750h140z" />
    <glyph glyph-name="J" unicode="J" horiz-adv-x="444" 
d="M8 238q-1 -10 -1 -20v-19q0 -45 5 -84t16 -56q29 -44 67.5 -60.5t76.5 -16.5q51 0 95.5 8t75.5 41q14 15 22.5 33.5t12.5 38t5 39t1 37.5v571h-140v-576q0 -15 -1 -29.5t-6 -25.5t-15 -17.5t-29 -6.5q-26 0 -35 15t-10 35v93h-140z" />
    <glyph glyph-name="K" unicode="K" horiz-adv-x="556" 
d="M208 0v215l49 81l132 -296h158l-194 428l185 322h-158l-82 -153q-23 -42 -47 -88.5t-41 -91.5h-2v333h-140v-750h140z" />
    <glyph glyph-name="L" unicode="L" 
d="M468 0v110h-260v640h-140v-750h400z" />
    <glyph glyph-name="M" unicode="M" horiz-adv-x="778" 
d="M207 236q0 112 -2.5 223.5t-9.5 223.5h5l147 -683h85l150 683h2q-7 -112 -9.5 -223.5t-2.5 -223.5v-236h140v750h-222l-75 -348q-8 -37 -12.5 -77t-9.5 -96h-2q-5 44 -11 87t-15 86l-75 348h-223v-750h140v236z" />
    <glyph glyph-name="N" unicode="N" horiz-adv-x="611" 
d="M403 603q0 -51 2 -104t5 -107t6.5 -108t7.5 -105h-2q-26 91 -49.5 162t-50.5 136l-109 273h-145v-750h140v141q0 45 -2 99t-5 111t-7 112t-8 102h2q25 -89 48.5 -160t51.5 -138l109 -267h146v750h-140v-147z" />
    <glyph glyph-name="O" unicode="O" horiz-adv-x="611" 
d="M61 328q0 -75 6 -138.5t30.5 -109.5t73.5 -72t135 -26t135 26t73.5 72t30.5 109.5t6 138.5v107q-2 72 -9 133t-31.5 105.5t-72.5 69.5t-132 25t-132 -25t-72.5 -69.5t-31.5 -105.5t-9 -133v-107zM205 466v28q0 24 2.5 52t12.5 52.5t30 40.5t56 16q37 0 57 -19.5t30 -48
t12 -60t2 -55.5v-202q0 -27 -1.5 -57.5t-11.5 -57t-30.5 -43.5t-57.5 -17q-36 0 -56.5 16.5t-30 41.5t-12 53.5t-2.5 51.5v208z" />
    <glyph glyph-name="P" unicode="P" horiz-adv-x="556" 
d="M208 640h64q30 0 51 -3.5t35 -14t20.5 -30t6.5 -51.5q0 -68 -28 -92.5t-74 -24.5h-75v216zM208 0v314h101q39 0 78.5 9.5t71.5 35.5q20 16 33.5 36.5t21.5 44t11.5 48.5t3.5 49q0 39 -8.5 77.5t-29 68.5t-54 48.5t-83.5 18.5h-286v-750h140z" />
    <glyph glyph-name="Q" unicode="Q" horiz-adv-x="611" 
d="M587 -5l-77 77q13 22 21.5 51t12.5 62.5t5.5 70t1.5 72.5v107q-2 72 -9 133t-31.5 105.5t-72.5 69.5t-132 25t-132 -25t-72.5 -69.5t-31.5 -105.5t-9 -133v-107q0 -75 6 -138.5t30.5 -109.5t73.5 -72t135 -26q44 0 75 5t57 18l78 -76zM315 126l27 -26q-17 -5 -36 -5
q-36 0 -56.5 16.5t-30 41.5t-12 53.5t-2.5 51.5v236q0 24 2.5 52t12.5 52.5t30 40.5t56 16t56 -16t30 -40.5t12.5 -52.5t2.5 -52v-236q0 -18 -2.5 -38t-6.5 -37l-7 7z" />
    <glyph glyph-name="R" unicode="R" horiz-adv-x="611" 
d="M231 323h19q26 0 51 -1.5t49 -8.5q18 -5 27.5 -18.5t14 -31t5.5 -37t1 -36.5v-33q0 -19 0.5 -40.5t2 -42.5t4.5 -40t8 -34h154v14q-11 7 -17 31t-9 54.5t-3.5 63t-0.5 56.5v32q0 54 -23 91t-85 45v2q35 5 57.5 22.5t35 42.5t17.5 55t5 61q0 52 -16.5 86.5t-45 55.5
t-67.5 29.5t-84 8.5h-265v-750h140v323h25zM206 640h104q20 0 36 -4t27.5 -14.5t18 -30t6.5 -50.5q0 -56 -24 -81t-58 -27h-110v207z" />
    <glyph glyph-name="S" unicode="S" horiz-adv-x="556" 
d="M489 522q0 18 -1 43.5t-6.5 53t-18 54t-37 48t-62 34.5t-93.5 13q-112 0 -166 -50.5t-54 -147.5q0 -62 36 -115q21 -28 48 -50.5t56.5 -42.5t59.5 -39.5t57 -40.5q27 -19 41.5 -42.5t14.5 -56.5q0 -88 -87 -88q-49 0 -68.5 31.5t-19.5 81.5v57h-140v-55q0 -50 12 -92
t39 -72t70.5 -47t106.5 -17q51 0 93.5 14t73 41t47.5 67.5t17 93.5q0 49 -13.5 85.5t-49.5 71.5q-15 14 -36.5 31t-45.5 34t-47.5 32t-40.5 26q-17 10 -31.5 20.5t-25 22.5t-17 27.5t-6.5 36.5q0 38 21 54t56 16q27 0 43.5 -10t25 -27t11 -39t2.5 -46v-11h135z" />
    <glyph glyph-name="T" unicode="T" 
d="M17 640h164v-640h140v640h163v110h-467v-110z" />
    <glyph glyph-name="U" unicode="U" horiz-adv-x="611" 
d="M404 239q0 -27 -2 -53t-11.5 -46t-29 -32.5t-53.5 -12.5q-36 0 -56 12.5t-29.5 32.5t-12 46t-2.5 53v511h-140v-523q0 -62 11.5 -108t39 -76.5t73.5 -45.5t115 -15t114.5 15t72.5 45.5t38.5 76.5t11.5 108v523h-140v-511z" />
    <glyph glyph-name="V" unicode="V" horiz-adv-x="556" 
d="M307 269q-6 -32 -10 -64t-7 -64q-2 -15 -4 -30.5t-2 -31.5h-2q0 16 -2 31.5t-4 30.5q-3 32 -7 64t-10 64l-88 481h-150l166 -750h187l162 750h-150z" />
    <glyph glyph-name="W" unicode="W" horiz-adv-x="833" 
d="M475 750h-116l-68 -388q-11 -57 -17.5 -126t-14.5 -141h-2q-1 14 -1.5 27t-2.5 27q-4 48 -8.5 96t-12.5 96l-63 409h-145l143 -750h168l50 296q11 60 16.5 119.5t13.5 119.5h2q8 -60 13.5 -119.5t16.5 -119.5l56 -296h168l139 750h-145l-56 -409q-8 -48 -12.5 -96
t-8.5 -96q-2 -14 -2.5 -27t-2.5 -27h-2q-8 72 -14 141t-17 126z" />
    <glyph glyph-name="X" unicode="X" horiz-adv-x="556" 
d="M359 380l180 370h-158l-54 -127q-14 -33 -28.5 -66.5t-17.5 -70.5h-3q-1 26 -9 48.5t-18 45.5l-76 170h-157l177 -370l-184 -380h153l62 138q15 34 29 68t19 72h2q9 -48 29 -95l80 -183h160z" />
    <glyph glyph-name="Y" unicode="Y" horiz-adv-x="556" 
d="M165 750h-153l195 -431v-319h140v319l198 431h-153l-67 -170q-13 -32 -25.5 -65t-20.5 -77h-2q-5 30 -13.5 58.5t-19.5 56.5z" />
    <glyph glyph-name="Z" unicode="Z" 
d="M33 0h435v110h-235q-14 0 -27 -0.5t-27 -2.5q13 16 21.5 32.5t17.5 33.5l241 465v112h-410v-110h210q14 0 27 0.5t27 2.5q-13 -16 -21.5 -32.5t-17.5 -33.5l-241 -465v-112z" />
    <glyph glyph-name="bracketleft" unicode="[" horiz-adv-x="333" 
d="M280 -94v76h-89v692h89v76h-199v-844h199z" />
    <glyph glyph-name="backslash" unicode="\" horiz-adv-x="250" 
d="M51 750h-87l236 -844h87z" />
    <glyph glyph-name="bracketright" unicode="]" horiz-adv-x="333" 
d="M53 750v-76h89v-692h-89v-76h199v844h-199z" />
    <glyph glyph-name="asciicircum" unicode="^" 
d="M114 326l136 279l136 -279l104 47l-180 377h-120l-180 -377z" />
    <glyph glyph-name="underscore" unicode="_" 
d="M500 -125v50h-500v-50h500z" />
    <glyph glyph-name="grave" unicode="`" horiz-adv-x="333" 
d="M1 775l148 -146h101l-94 146h-155z" />
    <glyph glyph-name="a" unicode="a" 
d="M440 0q-11 41 -11 79v346q0 27 -5.5 54t-25 49.5t-56 36.5t-99.5 14q-60 0 -98.5 -13t-60.5 -36.5t-30 -56.5t-8 -72v-4h124v6q0 36 12.5 56t55.5 20q26 0 41 -5t20 -24q3 -12 3 -22q0 -25 -16.5 -41.5t-50.5 -30.5q-38 -16 -73 -31.5t-61.5 -37t-42.5 -53.5t-16 -80
q0 -88 36 -128.5t115 -40.5q32 0 62 19q15 9 28 23t24 31h2q-1 -4 -1 -8v-8q0 -11 2 -21.5t7 -20.5h123zM299 236q-1 -20 -0.5 -46.5t-4.5 -49.5t-18.5 -39t-42.5 -16q-36 0 -48.5 20t-12.5 52q0 18 4 37t18 31q26 21 53.5 38t51.5 34v-61z" />
    <glyph glyph-name="b" unicode="b" 
d="M194 354v19q0 17 2 36t8.5 34.5t18.5 25.5t32 10q23 0 34.5 -9t16.5 -24.5t5.5 -35t2.5 -40.5v-188q-2 -41 -14.5 -69t-42.5 -28q-63 0 -63 100v169zM64 0h124v60h2q22 -42 50 -57.5t69 -17.5q41 0 67 17t40.5 44t20.5 61t7 68v204q-1 58 -10.5 96.5t-26.5 61t-42 32
t-56 10.5h-4q-40 0 -66.5 -16t-45.5 -56h-2q1 20 2 34.5t1 28.5v180h-130v-750z" />
    <glyph glyph-name="c" unicode="c" horiz-adv-x="444" 
d="M403 368v48q0 31 -9.5 60.5t-30.5 52t-55 36.5t-83 14q-37 0 -69 -9t-56 -31t-37.5 -60.5t-13.5 -96.5v-202q0 -104 46 -149.5t130 -45.5q97 0 137.5 47t40.5 136v52h-130v-52q-2 -17 -3.5 -32t-5.5 -26t-12.5 -18t-23.5 -7q-13 2 -22.5 7t-15.5 16.5t-8.5 31.5t-2.5 52
v186q0 21 1.5 39.5t6.5 32t14.5 21.5t26.5 8q42 0 45 -48v-63h130z" />
    <glyph glyph-name="d" unicode="d" 
d="M303 185q0 -100 -63 -100q-30 0 -42.5 28t-14.5 69v188q1 21 2 40.5t6 35t16.5 24.5t34.5 9q20 0 32 -10t18.5 -25.5t8.5 -34.5t2 -36v-188zM303 0h130v750h-130v-193q0 -27 4 -50h-2q-19 40 -45.5 56t-66.5 16h-4q-32 -1 -56.5 -10.5t-42 -32t-27 -61t-10.5 -96.5v-204
q1 -34 7 -68t21 -61t41 -44t67 -17q38 2 65.5 17t46.5 58h2v-60z" />
    <glyph glyph-name="e" unicode="e" 
d="M53 222v-11q0 -119 49 -172.5t159 -53.5q95 0 137.5 51t42.5 139v16h-130v-12q0 -48 -13 -71t-47 -23q-15 0 -27 3.5t-21 13t-14.5 26.5t-5.5 45v82h260v76q0 58 -6 104t-26.5 78t-60 49t-107.5 17q-93 0 -141.5 -50t-48.5 -143v-164zM183 355v36q0 17 1 33t7 28
t18.5 19.5t35.5 7.5q39 0 53 -16t15 -59v-49h-130z" />
    <glyph glyph-name="f" unicode="f" horiz-adv-x="278" 
d="M71 469v-469h130v469h56v95h-56v66q0 22 27 22q6 0 13.5 -2t15.5 -4v104h-49q-36 0 -61.5 -6t-42.5 -21t-25 -40t-8 -63v-56h-50v-95h50z" />
    <glyph glyph-name="g" unicode="g" 
d="M303 354v-169q0 -100 -63 -100q-30 0 -42.5 28t-14.5 69v188q1 21 2 40.5t6 35t16.5 24.5t34.5 9q20 0 32 -10t18.5 -25.5t8.5 -34.5t2 -36v-19zM59 -63q3 -36 16.5 -60t35.5 -39t51 -21.5t61 -6.5q67 0 108 16t63.5 44t30.5 66t8 81v547h-130v-58h-2q-26 73 -109 73h-4
q-32 -1 -56.5 -10.5t-41.5 -32.5t-26.5 -61.5t-10.5 -96.5v-204q1 -34 7 -67.5t20.5 -60.5t40.5 -44t67 -17q42 2 70.5 17.5t48.5 56.5l2 -2v-65q0 -17 -2.5 -32.5t-9.5 -28t-19.5 -20t-33.5 -7.5q-12 0 -22 1.5t-18 6.5q-15 8 -15 25h-130z" />
    <glyph glyph-name="h" unicode="h" 
d="M191 0v384q0 41 14 68t47 27h3q37 -2 46 -26.5t9 -66.5v-386h130v444q0 36 -10 61.5t-28 42t-41.5 24t-50.5 7.5q-11 0 -25 -2t-30 -10t-32 -22t-30 -39h-2v244h-130v-750h130z" />
    <glyph glyph-name="i" unicode="i" horiz-adv-x="278" 
d="M204 0v564h-130v-564h130zM204 632v118h-130v-118h130z" />
    <glyph glyph-name="j" unicode="j" horiz-adv-x="278" 
d="M31 -190q12 -1 23 -1.5t22 -0.5q58 0 80 11q18 8 28.5 22t16.5 31t7.5 36.5t1.5 38.5q0 14 -0.5 26.5t-0.5 23.5v567h-130v-624q0 -18 -9.5 -24t-26.5 -6h-12v-100zM209 632v118h-130v-118h130z" />
    <glyph glyph-name="k" unicode="k" horiz-adv-x="444" 
d="M178 0v172l35 58l81 -230h145l-138 337l142 227h-142l-123 -224h-2q1 18 1.5 35.5t0.5 35.5v339h-130v-750h130z" />
    <glyph glyph-name="l" unicode="l" horiz-adv-x="278" 
d="M204 0v750h-130v-750h130z" />
    <glyph glyph-name="m" unicode="m" horiz-adv-x="778" 
d="M196 564h-130v-564h130v371q0 23 1.5 43t7.5 34t19 22.5t36 8.5h2q22 0 34.5 -7.5t18.5 -20t7.5 -29t1.5 -34.5v-388h130v371q0 50 12 78t54 30h5q19 0 30.5 -8.5t17.5 -22t7.5 -31t1.5 -36.5v-381h130v459q0 22 -8 44t-25 38.5t-43 27t-62 10.5q-48 0 -79.5 -18
t-50.5 -55h-2q-3 19 -15 33t-28.5 23t-36 13t-37.5 4h-3q-16 -1 -33 -3.5t-33.5 -10.5t-31.5 -22t-26 -37h-2v58z" />
    <glyph glyph-name="n" unicode="n" 
d="M191 564h-130v-564h130v374q0 41 14 68t47 27h3q37 -2 46 -26.5t9 -66.5v-376h130v444q0 36 -10 61.5t-28 42t-41.5 24t-50.5 7.5q-11 0 -26.5 -2.5t-32 -10t-32 -22t-26.5 -38.5h-2v58z" />
    <glyph glyph-name="o" unicode="o" 
d="M183 372q0 20 1 39t7.5 34t20.5 24.5t40 9.5q24 0 37.5 -9.5t19.5 -24.5t7 -34t1 -39v-188q0 -26 -1.5 -44.5t-8.5 -30.5t-20 -18t-35 -6q-24 0 -37.5 6t-20.5 18t-9 30.5t-2 44.5v188zM252 -15h9q59 0 95.5 15.5t56.5 48.5t27 83.5t7 119.5v10q0 72 -3.5 131t-22 100
t-58 63.5t-111.5 22.5q-74 0 -114 -22.5t-58.5 -63.5t-22.5 -100t-4 -131v-9q0 -70 7 -120.5t28 -83.5t58 -48.5t97 -15.5h9z" />
    <glyph glyph-name="p" unicode="p" 
d="M188 354v19q0 17 2 36t8.5 34.5t18.5 25.5t32 10q23 0 34.5 -9t16.5 -24.5t5.5 -35t2.5 -40.5v-188q-2 -41 -14.5 -69t-42.5 -28q-63 0 -63 100v169zM188 564h-130v-753h130v244h2q10 -20 21.5 -33t25.5 -21t30.5 -11.5t35.5 -4.5q41 0 67 16.5t40.5 43.5t20.5 60.5
t7 67.5v204q-1 58 -10.5 96.5t-26.5 62t-42 33t-56 10.5h-4q-39 0 -65.5 -16.5t-43.5 -57.5h-2v59z" />
    <glyph glyph-name="q" unicode="q" 
d="M300 185q0 -100 -63 -100q-30 0 -42.5 28t-14.5 69v188q1 21 2 40.5t6 35t16.5 24.5t34.5 9q20 0 32 -10t18.5 -25.5t8.5 -34.5t2 -36v-188zM430 564h-130v-57h-2q-17 41 -43.5 56.5t-65.5 15.5h-4q-32 -1 -56.5 -10.5t-41.5 -32t-26.5 -61t-10.5 -96.5v-204q1 -34 7 -68
t20.5 -61t40.5 -44t67 -17q39 2 66.5 17.5t46.5 57.5h2v-248h130v752z" />
    <glyph glyph-name="r" unicode="r" horiz-adv-x="333" 
d="M185 564h-125v-564h130v326q2 54 30 74.5t72 20.5h13q7 0 14 -1v154q-14 -1 -33.5 -4t-47.5 -26q-14 -12 -26.5 -30.5t-24.5 -49.5h-2v100z" />
    <glyph glyph-name="s" unicode="s" horiz-adv-x="444" 
d="M29 186q-1 -7 -1 -14v-13q0 -56 19.5 -90t48 -52.5t60.5 -25t56 -6.5q59 0 97 13.5t59.5 36t30 51.5t8.5 61q0 21 -4 38q-10 36 -36 66.5t-51 44.5l-106 72q-19 13 -34 26.5t-15 38.5q0 24 16 35t39 11q32 0 46 -17t14 -57v-13h130v9q0 87 -44 132.5t-137 45.5
q-94 0 -144 -35.5t-50 -101.5q0 -61 29 -102.5t78 -75.5l71 -49q9 -6 20 -13t20.5 -15t16 -17.5t7.5 -21.5q2 -10 2 -14q0 -22 -16 -35.5t-40 -13.5h-5q-10 0 -20 1.5t-18.5 8t-13.5 21t-5 40.5q0 7 0.5 14.5t1.5 15.5h-130z" />
    <glyph glyph-name="t" unicode="t" horiz-adv-x="278" 
d="M252 100q-4 -1 -9 -1h-10q-12 0 -23 3.5t-13 16.5v350h55v95h-55v155h-131v-155h-52v-95h53v-382q0 -29 10 -47t26.5 -28.5t38 -14.5t44.5 -4q17 0 33.5 1.5t32.5 3.5v102z" />
    <glyph glyph-name="u" unicode="u" 
d="M307 0h124v564h-130v-370q0 -17 -1 -36t-7 -35t-18 -27t-34 -11q-24 0 -40 18q-9 14 -11 31.5t-2 34.5v395h-130v-432q0 -35 5 -62.5t19 -46.5t38.5 -28.5t63.5 -9.5q92 1 121 99h2v-84z" />
    <glyph glyph-name="v" unicode="v" horiz-adv-x="444" 
d="M142 0h162l130 564h-135l-56 -316q-4 -19 -7 -44t-5.5 -49t-3.5 -44t-2 -30h-2q-1 10 -2 30t-3.5 44t-5.5 49t-7 44l-55 316h-140z" />
    <glyph glyph-name="w" unicode="w" horiz-adv-x="667" 
d="M381 564h-107l-54 -348q-5 -30 -8 -60t-5 -61h-2q0 9 -1.5 27.5t-3 38t-3.5 36.5t-3 23l-46 344h-137l116 -564h145l40 236q5 33 8 66.5t5 67.5h4q3 -36 6.5 -71.5t10.5 -70.5l43 -228h142l114 564h-131l-43 -342q-1 -6 -3 -23t-3.5 -36.5t-3 -38t-1.5 -27.5h-3
q-2 31 -5 61t-8 60z" />
    <glyph glyph-name="x" unicode="x" horiz-adv-x="444" 
d="M157 288l-149 -288h149l37 84q10 22 17.5 44t11.5 46h2q3 -22 10 -42.5t16 -40.5l39 -91h146l-144 291l141 273h-144l-46 -100q-5 -14 -9 -26.5t-7 -26.5h-2q-2 13 -6 25.5t-8 25.5l-43 102h-153z" />
    <glyph glyph-name="y" unicode="y" horiz-adv-x="444" 
d="M5 564l136 -556q4 -15 8 -36t4 -36q0 -17 -13.5 -22t-29.5 -5q-10 0 -19 1t-15 1v-101q17 -2 32 -3.5t28 -1.5q45 0 71 13.5t41.5 38t24 59t19.5 76.5l137 572h-132l-57 -303q-7 -36 -12 -72.5t-8 -73.5h-2q-4 38 -8 75t-11 75l-57 299h-137z" />
    <glyph glyph-name="z" unicode="z" horiz-adv-x="389" 
d="M367 471v93h-340v-100h194l-198 -362v-102h344v100h-206z" />
    <glyph glyph-name="braceleft" unicode="{" horiz-adv-x="274" 
d="M43 436q0 -19 -3.5 -37.5t-12 -33.5t-23 -25t-36.5 -13v-2q44 -11 59.5 -37t15.5 -70v-162q0 -37 5.5 -65t20.5 -46.5t40.5 -27.5t65.5 -9h65v2q-23 6 -38 16.5t-23 25t-11 31.5t-3 36v172q0 24 -3 46.5t-11.5 41t-24.5 31t-43 16.5v2q51 11 66.5 42t15.5 84v184
q0 21 3 39t11 32t23 24t38 15v2h-74q-68 0 -95.5 -32.5t-27.5 -97.5v-184z" />
    <glyph glyph-name="bar" unicode="|" horiz-adv-x="250" 
d="M75 750v-1000h100v1000h-100z" />
    <glyph glyph-name="braceright" unicode="}" horiz-adv-x="274" 
d="M231 618q0 71 -29 101t-100 31h-68v-3q42 -8 58.5 -36.5t16.5 -73.5v-185q0 -52 15.5 -83.5t66.5 -42.5v-2q-27 -8 -43.5 -20.5t-25 -29.5t-11 -38.5t-2.5 -46.5v-171q0 -43 -15 -71t-60 -39v-2h68q40 0 65 9t39 27.5t19.5 46t5.5 65.5v162q0 22 2.5 40.5t10.5 32.5
t22.5 23t39.5 12v2q-22 3 -36.5 13t-23 25t-12 33t-3.5 38v183z" />
    <glyph glyph-name="asciitilde" unicode="~" 
d="M418 359q-7 -11 -14 -24t-15 -24t-18.5 -18.5t-24.5 -7.5q-16 0 -38 10.5t-47 22.5t-51.5 22.5t-50.5 10.5t-44 -11.5t-36.5 -29.5t-29.5 -40t-23 -43l57 -74q7 13 14 27.5t16 26.5t20.5 20t26.5 8q12 0 34 -10.5t48.5 -22.5t53.5 -22.5t50 -10.5q25 0 44 10.5t34 27.5
t27 38t24 41z" />
    <glyph glyph-name="exclamdown" unicode="&#xa1;" horiz-adv-x="333" 
d="M232 -170v228q0 39 -2.5 77.5t-5.5 77.5q-4 44 -7.5 87t-5.5 86h-88q-2 -43 -6.5 -86t-8.5 -87q-3 -35 -5 -68.5t-2 -67.5q0 -9 0.5 -18.5t0.5 -18.5v-210h130zM102 447h130v132h-130v-132z" />
    <glyph glyph-name="cent" unicode="&#xa2;" 
d="M194 346v25q0 43 8 71t41 28l9 -1l-56 -332h-2v209zM298 218v-52q-2 -21 -4 -38t-10 -28q-12 -6 -26 -6q-16 0 -24 8l61 343h3v-79h130v48q0 45 -20.5 85.5t-69.5 61.5l21 110h-70l-17 -96q-20 6 -41 6q-28 0 -56 -11t-51 -35.5t-37.5 -63t-14.5 -92.5v-199
q0 -70 21.5 -113t60.5 -63l-24 -126h69l20 108q11 -2 22 -3t22 -1q67 0 110.5 41.5t51.5 113.5q3 30 3 66v15h-130z" />
    <glyph glyph-name="sterling" unicode="&#xa3;" 
d="M123 337q9 -16 12.5 -34t3.5 -36q0 -58 -27 -109t-77 -79l36 -94q32 17 56.5 24.5t50.5 7.5q25 0 52 -7q32 -7 63.5 -16t67.5 -9q31 0 65.5 9.5t60.5 26.5l-28 109q-20 -14 -41.5 -23t-43.5 -9h-7q-3 0 -6 1q-9 1 -22.5 4t-29 6t-31.5 5.5t-30 2.5h-7q-26 0 -47 -7.5
t-50 -23.5l-3 2q24 15 45.5 35.5t38.5 45t27 52t10 57.5q0 14 -2 29.5t-7 29.5h124v59h-146q-7 16 -15 36t-15 40.5t-11.5 41t-4.5 38.5q0 21 4 40.5t13.5 34t25.5 23t40 8.5q30 0 46 -11t23 -28.5t8.5 -40t1.5 -46.5h128v22q0 31 -3 61.5t-17 57.5q-29 51 -75 73t-102 22
q-47 0 -88 -13t-71 -39t-47.5 -64.5t-17.5 -89.5q0 -44 11.5 -86.5t34.5 -79.5h-63v-59h86z" />
    <glyph glyph-name="currency" unicode="&#xa4;" 
d="M9 137l76 -79l42 43q58 -38 127 -38q33 0 63.5 10.5t59.5 27.5l43 -43l72 79l-41 44q19 28 27.5 61.5t8.5 67.5q0 36 -9 67t-27 61l41 42l-72 80l-43 -43q-29 18 -61.5 28t-65.5 10q-31 0 -63.5 -10.5t-59.5 -27.5l-42 43l-76 -80l42 -42q-18 -31 -26.5 -61.5t-8.5 -67.5
q0 -38 9 -67t26 -61zM252 437q25 0 46.5 -10.5t37 -28.5t24.5 -41t9 -47t-9 -47.5t-24.5 -41.5t-37 -29t-46.5 -11t-46.5 11t-37.5 29t-25 41.5t-9 47.5t9 47t25 41t37.5 28.5t46.5 10.5z" />
    <glyph glyph-name="yen" unicode="&#xa5;" 
d="M518 750h-152l-79 -197q-11 -28 -20 -56.5t-14 -58.5h-2q-5 30 -14 58.5t-20 56.5l-79 197h-156l198 -431v-60h-112v-50h112v-61h-112v-50h112v-98h140v98h108v50h-108v61h108v50h-108v60z" />
    <glyph glyph-name="brokenbar" unicode="&#xa6;" horiz-adv-x="250" 
d="M75 -175h100v350h-100v-350zM175 675h-100v-350h100v350z" />
    <glyph glyph-name="section" unicode="&#xa7;" 
d="M305 320q16 -14 28 -29t12 -38q0 -20 -10.5 -37t-27.5 -26l-123 100q-19 14 -29 40q-4 11 -4 23q0 23 14 39t26 21zM54 12q1 -18 1.5 -36t5.5 -36q16 -54 59 -88.5t121 -34.5q37 0 72.5 12.5t63 36t44 55.5t16.5 71q0 18 -4.5 38t-12.5 38.5t-18 34t-22 23.5q39 24 61 63
t22 84q0 54 -22.5 89t-63.5 66l-137 108q-20 16 -33 33t-13 44q0 29 17.5 42t40.5 13q18 0 30.5 -5.5t20.5 -15.5q13 -20 13 -44q0 -3 -0.5 -5.5t-0.5 -5.5h123v14q0 78 -49 120t-127 42q-49 0 -85 -14.5t-59 -37.5t-34.5 -52t-11.5 -58q0 -45 10.5 -74t40.5 -51
q-44 -24 -65 -62.5t-21 -82.5q0 -33 6 -57t18 -43t30.5 -36t42.5 -36l119 -93q21 -16 40.5 -38t19.5 -50q0 -5 -2 -15q-5 -21 -21 -35t-38 -14q-44 0 -58.5 24.5t-14.5 62.5v6h-125z" />
    <glyph glyph-name="dieresis" unicode="&#xa8;" horiz-adv-x="333" 
d="M132 644v115h-127v-115h127zM328 644v115h-128v-115h128z" />
    <glyph glyph-name="copyright" unicode="&#xa9;" horiz-adv-x="830" 
d="M416 768q-82 0 -153.5 -30.5t-125 -83.5t-84.5 -124.5t-31 -152.5q0 -82 31 -154t84.5 -125.5t125 -84.5t153.5 -31q81 0 152.5 31t125 84.5t84 125.5t30.5 154q0 81 -30.5 152.5t-84 124.5t-125 83.5t-152.5 30.5zM416 57q-66 0 -124.5 25t-102 68.5t-68.5 102
t-25 124.5t25 123.5t68.5 100.5t102 68t124.5 25q65 0 123 -25t101.5 -68t68.5 -100.5t25 -123.5t-25 -124.5t-68.5 -102t-101.5 -68.5t-123 -25zM527 306q-1 -18 -9.5 -33t-21.5 -25.5t-29.5 -16.5t-34.5 -6q-31 0 -55 14t-40.5 36.5t-25 50.5t-8.5 56q0 29 8 56.5
t23.5 48.5t39 34t55.5 13q38 0 64.5 -20t33.5 -57h89q-13 71 -63.5 110t-122.5 39q-50 0 -90 -17t-67.5 -47t-42.5 -71.5t-15 -90.5q0 -48 15.5 -89t44 -72t68.5 -48.5t89 -17.5q34 0 66 10.5t56.5 30.5t41 48t20.5 64h-89z" />
    <glyph glyph-name="ordfeminine" unicode="&#xaa;" horiz-adv-x="300" 
d="M189 562q-1 -12 -0.5 -27.5t-3 -30t-12 -24t-27.5 -9.5q-23 0 -31 12t-8 32q0 17 4 26.5t13.5 17.5t25 16.5t39.5 23.5v-37zM105 659q0 23 7.5 38t36.5 15q34 0 40 -21q1 -4 1.5 -7t0.5 -6q0 -15 -10.5 -25t-33.5 -19q-25 -9 -47.5 -18.5t-40 -22.5t-27.5 -32t-10 -48
q0 -53 23.5 -77t74.5 -24q23 0 43 12t31 31h2q-1 -4 -1 -11q0 -13 6 -23h80q-7 21 -7 47v206q0 16 -3.5 33t-16 30.5t-36.5 22t-65 8.5q-39 0 -64 -7.5t-39 -21.5t-19.5 -33.5t-5.5 -42.5v-4h80z" />
    <glyph glyph-name="guillemotleft" unicode="&#xab;" 
d="M231 62v113l-94 81l94 79v112l-157 -141v-102zM419 62v113l-96 81l96 79v112l-159 -141v-102z" />
    <glyph glyph-name="logicalnot" unicode="&#xac;" 
d="M365 105h110v296h-449v-110h339v-186z" />
    <glyph glyph-name="registered" unicode="&#xae;" horiz-adv-x="830" 
d="M416 -18q81 0 152.5 31t124.5 84.5t84 125t31 153.5q0 81 -31 152.5t-84 124.5t-124.5 84t-152.5 31q-82 0 -153.5 -31t-125 -84t-84.5 -124.5t-31 -152.5q0 -82 31 -153.5t84.5 -125t125 -84.5t153.5 -31zM416 56q-66 0 -124.5 25t-102 68.5t-68.5 101.5t-25 125
q0 66 25 124t68.5 101t102 68t124.5 25t124 -25t101 -68t68 -101t25 -124q0 -67 -25 -125t-68 -101.5t-101 -68.5t-124 -25zM508 341q57 4 86.5 30t29.5 84q0 33 -10.5 62t-39.5 48q-24 15 -56 18t-59 3h-205v-425h83v180h83l94 -180h97zM337 404v119h103q15 0 33 -1t33 -6
t25 -16t10 -32q0 -39 -20.5 -51.5t-53.5 -12.5h-130z" />
    <glyph glyph-name="macron" unicode="&#xaf;" horiz-adv-x="333" 
d="M340 666v74h-346v-74h346z" />
    <glyph glyph-name="macron" unicode="&#x2c9;" horiz-adv-x="333" 
d="M340 666v74h-346v-74h346z" />
    <glyph glyph-name="degree" unicode="&#xb0;" horiz-adv-x="400" 
d="M350 600q0 31 -12 58t-32.5 47.5t-47.5 32.5t-58 12t-58 -11.5t-47.5 -32t-32.5 -47.5t-12 -57v-2q0 -31 12 -58.5t32 -47.5t47.5 -32t58.5 -12t58 12t47.5 32t32.5 47.5t12 58.5zM129 600v2q0 29 21 49t50 20q30 0 50.5 -21t20.5 -50q0 -30 -20.5 -50.5t-49.5 -20.5
q-30 0 -51 20.5t-21 50.5z" />
    <glyph glyph-name="plusminus" unicode="&#xb1;" 
d="M195 379h-169v-110h169v-134h110v134h170v110h-170v134h-110v-134zM26 -15h449v110h-449v-110z" />
    <glyph glyph-name="twosuperior" unicode="&#xb2;" horiz-adv-x="300" 
d="M229 512q29 27 43.5 56.5t14.5 66.5q0 54 -36.5 85t-94.5 32h-2q-50 0 -77.5 -15.5t-40.5 -37t-15.5 -45t-2.5 -38.5v-16h85v20q0 11 1 22t6 22q5 12 16.5 17t25.5 5q20 0 32 -11.5t12 -42.5q0 -16 -3 -27t-8.5 -20.5t-14 -18.5t-19.5 -20l-44 -43q-42 -42 -61.5 -73
t-24.5 -54q-4 -20 -5.5 -41l-2.5 -35h267v66h-170q1 23 17 43.5t30 34.5z" />
    <glyph glyph-name="threesuperior" unicode="&#xb3;" horiz-adv-x="300" 
d="M105 507q19 0 44 -2.5t38 -15.5q8 -8 9 -22.5t1 -25.5v-9q0 -15 -1 -28.5t-6 -24t-14.5 -17t-27.5 -6.5t-28 8t-15.5 20.5t-6.5 29t-1 34.5h-85v-32q0 -18 4 -40t18 -41t40.5 -32t72.5 -13q75 0 108 37.5t33 104.5v6q0 49 -20.5 74t-52.5 28v2q18 3 30 12t19.5 22.5
t10.5 28.5t3 30q0 54 -31.5 85t-100.5 31t-101 -35q-27 -30 -27 -86v-12h85v31q1 22 15.5 29t28.5 7q43 0 43 -51q0 -17 -4.5 -32t-23.5 -23q-13 -4 -28 -5t-29 -1v-66z" />
    <glyph glyph-name="acute" unicode="&#xb4;" horiz-adv-x="333" 
d="M83 629h101l148 146h-155z" />
    <glyph glyph-name="mu" unicode="&#xb5;" horiz-adv-x="504" 
d="M445 0v564h-130v-387q0 -41 -12 -61.5t-48 -20.5q-35 0 -47 20.5t-12 61.5v387h-130v-754h125v220q14 -21 31 -33t34 -12q19 0 36 12t28 33v-30h125z" />
    <glyph glyph-name="mu" unicode="&#x3bc;" horiz-adv-x="504" 
d="M445 0v564h-130v-387q0 -41 -12 -61.5t-48 -20.5q-35 0 -47 20.5t-12 61.5v387h-130v-754h125v220q14 -21 31 -33t34 -12q19 0 36 12t28 33v-30h125z" />
    <glyph glyph-name="paragraph" unicode="&#xb6;" horiz-adv-x="550" 
d="M366 -116h118v748h42v118h-303q-47 0 -84 -9t-63 -29.5t-39.5 -54.5t-13.5 -85q0 -75 39.5 -123t117.5 -48v-517h118v748h68v-748z" />
    <glyph glyph-name="periodcentered" unicode="&#xb7;" horiz-adv-x="333" 
d="M101 315v-132h132v132h-132z" />
    <glyph glyph-name="cedilla" unicode="&#xb8;" horiz-adv-x="333" 
d="M39 -203q17 -5 32.5 -10.5t32.5 -10.5q19 -4 44 -4q32 0 62.5 11t51.5 37q7 13 10 22.5t3 23.5t-5 29t-17 24q-14 14 -31.5 19t-36.5 5t-31 -6l-2 2l42 61h-53l-59 -90l21 -20q9 3 19.5 5.5t21.5 2.5q14 0 24 -5q15 -5 20 -24v-5q0 -17 -14 -29t-30 -12q-25 0 -43.5 4
t-42.5 12z" />
    <glyph glyph-name="onesuperior" unicode="&#xb9;" horiz-adv-x="300" 
d="M160 300h91v450h-67q-7 -23 -20 -38t-30.5 -24t-38.5 -12.5t-45 -3.5v-60h110v-312z" />
    <glyph glyph-name="ordmasculine" unicode="&#xba;" horiz-adv-x="300" 
d="M106 648q0 32 6.5 46t36.5 14t37 -14t7 -46v-113q0 -12 -0.5 -23t-5 -20t-13.5 -14.5t-25 -5.5t-25 5.5t-13 14.5t-4.5 20t-0.5 23v113zM150 768q-47 0 -73 -13.5t-38 -38t-14.5 -60t-2.5 -78.5v-8q0 -41 4.5 -70.5t18 -49t37.5 -29t63 -9.5h12q39 0 63 10t36.5 30
t17 51.5t4.5 74.5t-2.5 78.5t-14.5 60t-38 38t-73 13.5z" />
    <glyph glyph-name="guillemotright" unicode="&#xbb;" 
d="M81 62l159 142v102l-159 141v-112l96 -75l-96 -85v-113zM269 62l157 142v102l-157 141v-112l95 -75l-95 -85v-113z" />
    <glyph glyph-name="onequarter" unicode="&#xbc;" horiz-adv-x="750" 
d="M505 157l89 183h2v-183h-91zM586 443l-148 -286v-66h158v-91h91v91h42v66h-42v286h-101zM206 0l425 738h-75l-425 -738h75zM130 300h91v450h-67q-7 -23 -20 -38t-30.5 -24t-38.5 -12.5t-45 -3.5v-60h110v-312z" />
    <glyph glyph-name="onehalf" unicode="&#xbd;" horiz-adv-x="750" 
d="M183 0l425 738h-75l-425 -738h75zM122 300h91v450h-67q-7 -23 -20 -38t-30.5 -24t-38.5 -12.5t-45 -3.5v-60h110v-312zM681 212q29 27 43.5 56.5t14.5 66.5q0 54 -36.5 85t-94.5 32h-2q-50 0 -77.5 -15.5t-40.5 -37t-15.5 -45t-2.5 -38.5v-16h85v20q0 11 1 22t6 22
q5 12 16.5 17t25.5 5q20 0 32 -11.5t12 -42.5q0 -16 -3 -27t-8.5 -20.5t-14 -18.5t-19.5 -20l-44 -43q-42 -42 -61.5 -73t-24.5 -54q-4 -20 -5.5 -41l-2.5 -35h267v66h-170q1 23 17 43.5t30 34.5z" />
    <glyph glyph-name="threequarters" unicode="&#xbe;" horiz-adv-x="750" 
d="M515 157l89 183h2v-183h-91zM596 443l-148 -286v-66h158v-91h91v91h42v66h-42v286h-101zM234 0l425 738h-75l-425 -738h75zM105 507q19 0 44 -2.5t38 -15.5q8 -8 9 -22.5t1 -25.5v-9q0 -15 -1 -28.5t-6 -24t-14.5 -17t-27.5 -6.5q-21 0 -31.5 9t-14.5 23t-4 30t-1 30h-85
v-32q0 -18 4 -40t18 -41t40.5 -32t72.5 -13q75 0 108 37.5t33 104.5v6q0 49 -20.5 74t-52.5 28v2q18 3 30 12t19.5 22.5t10.5 28.5t3 30q0 54 -31.5 85t-100.5 31t-101 -35q-27 -30 -27 -86v-12h85v31q1 22 15.5 29t28.5 7q43 0 43 -51q0 -17 -4.5 -32t-23.5 -23
q-13 -5 -28 -5t-29 -1v-66z" />
    <glyph glyph-name="questiondown" unicode="&#xbf;" 
d="M324 25q-2 -22 -2 -45t-11 -43q-8 -13 -20.5 -18t-35.5 -5q-30 0 -43.5 18.5t-13.5 62.5q0 19 2 33t6.5 26.5t12 25t18.5 27.5q19 26 38 47.5t34.5 43.5t25.5 48t13 62q3 28 3 56v13h-117q0 -35 -6.5 -69t-29.5 -63q-18 -19 -34.5 -38t-34.5 -38q-17 -22 -30 -41
t-21.5 -39t-13 -42.5t-4.5 -50.5q0 -87 52 -136.5t141 -49.5q93 0 144.5 47t51.5 147q0 5 -0.5 10.5t-0.5 10.5h-124zM353 450v129h-128v-129h128z" />
    <glyph glyph-name="Agrave" unicode="&#xc0;" horiz-adv-x="556" 
d="M159 0l37 190h164l37 -190h150l-170 750h-189l-179 -750h150zM260 513q5 26 8 52l6 52q1 13 2 25.5t3 24.5h2q2 -12 3 -24.5t2 -25.5l6 -52t8 -52l38 -213h-120zM113 961l148 -146h101l-94 146h-155z" />
    <glyph glyph-name="Aacute" unicode="&#xc1;" horiz-adv-x="556" 
d="M159 0l37 190h164l37 -190h150l-170 750h-189l-179 -750h150zM260 513q5 26 8 52l6 52q1 13 2 25.5t3 24.5h2q2 -12 3 -24.5t2 -25.5l6 -52t8 -52l38 -213h-120zM195 815h101l148 146h-155z" />
    <glyph glyph-name="Acircumflex" unicode="&#xc2;" horiz-adv-x="556" 
d="M159 0l37 190h164l37 -190h150l-170 750h-189l-179 -750h150zM260 513q5 26 8 52l6 52q1 13 2 25.5t3 24.5h2q2 -12 3 -24.5t2 -25.5l6 -52t8 -52l38 -213h-120zM205 956l-113 -146h112l64 82l63 -82h114l-115 146h-125z" />
    <glyph glyph-name="Atilde" unicode="&#xc3;" horiz-adv-x="556" 
d="M159 0l37 190h164l37 -190h150l-170 750h-189l-179 -750h150zM260 513q5 26 8 52l6 52q1 13 2 25.5t3 24.5h2q2 -12 3 -24.5t2 -25.5l6 -52t8 -52l38 -213h-120zM397 930q-5 -20 -17 -31t-33 -11q-5 0 -13.5 2.5t-17.5 5.5t-17 6t-13 5q-11 4 -20 7.5t-17 5.5t-17.5 3.5
t-21.5 1.5q-17 0 -36 -7.5t-35.5 -23t-28.5 -38.5t-14 -54h62q0 1 2 5.5t5.5 10.5t8 12t10.5 9q5 3 10.5 4t10.5 1q13 0 27 -4t25 -9q7 -2 19 -6t24.5 -7.5t24.5 -6t20 -2.5q16 0 34 4.5t34 18t29 37t20 61.5h-65z" />
    <glyph glyph-name="Adieresis" unicode="&#xc4;" horiz-adv-x="556" 
d="M159 0l37 190h164l37 -190h150l-170 750h-189l-179 -750h150zM260 513q5 26 8 52l6 52q1 13 2 25.5t3 24.5h2q2 -12 3 -24.5t2 -25.5l6 -52t8 -52l38 -213h-120zM244 830v115h-127v-115h127zM440 830v115h-128v-115h128z" />
    <glyph glyph-name="Aring" unicode="&#xc5;" horiz-adv-x="556" 
d="M159 0l37 190h164l37 -190h150l-170 750h-189l-179 -750h150zM260 513q5 26 8 52l6 52q1 13 2 25.5t3 24.5h2q2 -12 3 -24.5t2 -25.5l6 -52t8 -52l38 -213h-120zM279 778q45 0 75.5 30.5t30.5 75.5q0 22 -8.5 41.5t-22.5 34t-33.5 23t-41.5 8.5t-41.5 -8.5t-34 -23
t-23 -34t-8.5 -41.5t8.5 -41t23 -33.5t34 -23t41.5 -8.5zM279 942q23 0 40.5 -17.5t17.5 -40.5t-17.5 -40t-40.5 -17t-40.5 17t-17.5 40q0 24 17 41t41 17z" />
    <glyph glyph-name="AE" unicode="&#xc6;" horiz-adv-x="778" 
d="M365 0h385v110h-245v230h229v110h-229v190h245v110h-484l-288 -750h150l65 192h172v-192zM365 611v-309h-134l107 309h27z" />
    <glyph glyph-name="Ccedilla" unicode="&#xc7;" horiz-adv-x="556" 
d="M212 -90l21 -20q9 3 19.5 5.5t21.5 2.5q14 0 24 -5q15 -5 20 -24v-5q0 -17 -14 -29t-30 -12q-25 0 -43.5 4t-42.5 12l-19 -42q17 -5 32.5 -10.5t32.5 -10.5q19 -4 44 -4q32 0 62.5 11t51.5 37q7 13 10 22.5t3 23.5t-5 29t-17 24q-14 14 -31.5 19t-36.5 5t-31 -6l-2 2
l31 44q55 2 91.5 21t59 51.5t32.5 75.5t13 93q1 11 1.5 21.5t1.5 21.5h-141q-1 -18 -1.5 -47t-6.5 -57t-20 -48t-43 -20q-36 0 -56.5 16.5t-30 41.5t-12 53.5t-2.5 51.5v236q0 24 2.5 52t12.5 52.5t30 40.5t56 16q26 0 39.5 -15t19.5 -36t7.5 -45t3.5 -42h138v10q0 23 -3 47
q-15 191 -205 194q-84 0 -132 -25t-72.5 -69.5t-31.5 -105.5t-9 -133v-107q0 -70 5 -130.5t25.5 -106t61.5 -73.5t113 -34z" />
    <glyph glyph-name="Egrave" unicode="&#xc8;" 
d="M458 0v110h-254v231h234v110h-234v189h254v110h-394v-750h394zM85 961l148 -146h101l-94 146h-155z" />
    <glyph glyph-name="Eacute" unicode="&#xc9;" 
d="M458 0v110h-254v231h234v110h-234v189h254v110h-394v-750h394zM167 815h101l148 146h-155z" />
    <glyph glyph-name="Ecircumflex" unicode="&#xca;" 
d="M458 0v110h-254v231h234v110h-234v189h254v110h-394v-750h394zM187 956l-113 -146h112l64 82l63 -82h114l-115 146h-125z" />
    <glyph glyph-name="Edieresis" unicode="&#xcb;" 
d="M458 0v110h-254v231h234v110h-234v189h254v110h-394v-750h394zM216 830v115h-127v-115h127zM412 830v115h-128v-115h128z" />
    <glyph glyph-name="Igrave" unicode="&#xcc;" horiz-adv-x="278" 
d="M209 0v750h-140v-750h140zM-26 961l148 -146h101l-94 146h-155z" />
    <glyph glyph-name="Iacute" unicode="&#xcd;" horiz-adv-x="278" 
d="M209 0v750h-140v-750h140zM56 815h101l148 146h-155z" />
    <glyph glyph-name="Icircumflex" unicode="&#xce;" horiz-adv-x="278" 
d="M209 0v750h-140v-750h140zM76 956l-113 -146h112l64 82l63 -82h114l-115 146h-125z" />
    <glyph glyph-name="Idieresis" unicode="&#xcf;" horiz-adv-x="278" 
d="M209 0v750h-140v-750h140zM105 830v115h-127v-115h127zM301 830v115h-128v-115h128z" />
    <glyph glyph-name="Eth" unicode="&#xd0;" horiz-adv-x="611" 
d="M212 640h92q38 0 59 -20t30.5 -55.5t11 -84t1.5 -105.5t-1.5 -105.5t-11 -84t-30.5 -55.5t-59 -20h-92v231h117v110h-117v189zM72 0h259q26 0 53.5 3t50.5 17q43 25 66.5 67.5t34 95t12.5 110t2 113.5q0 94 -8.5 157t-32.5 102q-16 26 -36 42.5t-40 26t-38 13t-31 3.5
h-292v-299h-58v-110h58v-341z" />
    <glyph glyph-name="Ntilde" unicode="&#xd1;" horiz-adv-x="611" 
d="M403 603q0 -51 2 -104t5 -107t6.5 -108t7.5 -105h-2q-26 91 -49.5 162t-50.5 136l-109 273h-145v-750h140v141q0 45 -2 99t-5 111t-7 112t-8 102h2q25 -89 48.5 -160t51.5 -138l109 -267h146v750h-140v-147zM424 930q-5 -20 -17 -31t-33 -11q-5 0 -13.5 2.5t-17.5 5.5
t-17 6t-13 5q-11 4 -20 7.5t-17 5.5t-17.5 3.5t-21.5 1.5q-17 0 -36 -7.5t-35.5 -23t-28.5 -38.5t-14 -54h62q0 1 2 5.5t5.5 10.5t8 12t10.5 9q5 3 10.5 4t10.5 1q13 0 27 -4t25 -9q7 -2 19 -6t24.5 -7.5t24.5 -6t20 -2.5q16 0 34 4.5t34 18t29 37t20 61.5h-65z" />
    <glyph glyph-name="Ograve" unicode="&#xd2;" horiz-adv-x="611" 
d="M61 328q0 -75 6 -138.5t30.5 -109.5t73.5 -72t135 -26t135 26t73.5 72t30.5 109.5t6 138.5v107q-2 72 -9 133t-31.5 105.5t-72.5 69.5t-132 25t-132 -25t-72.5 -69.5t-31.5 -105.5t-9 -133v-107zM205 466v28q0 24 2.5 52t12.5 52.5t30 40.5t56 16q37 0 57 -19.5t30 -48
t12 -60t2 -55.5v-202q0 -27 -1.5 -57.5t-11.5 -57t-30.5 -43.5t-57.5 -17q-36 0 -56.5 16.5t-30 41.5t-12 53.5t-2.5 51.5v208zM140 961l148 -146h101l-94 146h-155z" />
    <glyph glyph-name="Oacute" unicode="&#xd3;" horiz-adv-x="611" 
d="M61 328q0 -75 6 -138.5t30.5 -109.5t73.5 -72t135 -26t135 26t73.5 72t30.5 109.5t6 138.5v107q-2 72 -9 133t-31.5 105.5t-72.5 69.5t-132 25t-132 -25t-72.5 -69.5t-31.5 -105.5t-9 -133v-107zM205 466v28q0 24 2.5 52t12.5 52.5t30 40.5t56 16q37 0 57 -19.5t30 -48
t12 -60t2 -55.5v-202q0 -27 -1.5 -57.5t-11.5 -57t-30.5 -43.5t-57.5 -17q-36 0 -56.5 16.5t-30 41.5t-12 53.5t-2.5 51.5v208zM222 815h101l148 146h-155z" />
    <glyph glyph-name="Ocircumflex" unicode="&#xd4;" horiz-adv-x="611" 
d="M61 328q0 -75 6 -138.5t30.5 -109.5t73.5 -72t135 -26t135 26t73.5 72t30.5 109.5t6 138.5v107q-2 72 -9 133t-31.5 105.5t-72.5 69.5t-132 25t-132 -25t-72.5 -69.5t-31.5 -105.5t-9 -133v-107zM205 466v28q0 24 2.5 52t12.5 52.5t30 40.5t56 16q37 0 57 -19.5t30 -48
t12 -60t2 -55.5v-202q0 -27 -1.5 -57.5t-11.5 -57t-30.5 -43.5t-57.5 -17q-36 0 -56.5 16.5t-30 41.5t-12 53.5t-2.5 51.5v208zM242 956l-113 -146h112l64 82l63 -82h114l-115 146h-125z" />
    <glyph glyph-name="Otilde" unicode="&#xd5;" horiz-adv-x="611" 
d="M61 328q0 -75 6 -138.5t30.5 -109.5t73.5 -72t135 -26t135 26t73.5 72t30.5 109.5t6 138.5v107q-2 72 -9 133t-31.5 105.5t-72.5 69.5t-132 25t-132 -25t-72.5 -69.5t-31.5 -105.5t-9 -133v-107zM205 466v28q0 24 2.5 52t12.5 52.5t30 40.5t56 16q37 0 57 -19.5t30 -48
t12 -60t2 -55.5v-202q0 -27 -1.5 -57.5t-11.5 -57t-30.5 -43.5t-57.5 -17q-36 0 -56.5 16.5t-30 41.5t-12 53.5t-2.5 51.5v208zM424 930q-5 -20 -17 -31t-33 -11q-5 0 -13.5 2.5t-17.5 5.5t-17 6t-13 5q-11 4 -20 7.5t-17 5.5t-17.5 3.5t-21.5 1.5q-17 0 -36 -7.5t-35.5 -23
t-28.5 -38.5t-14 -54h62q0 1 2 5.5t5.5 10.5t8 12t10.5 9q5 3 10.5 4t10.5 1q13 0 27 -4t25 -9q7 -2 19 -6t24.5 -7.5t24.5 -6t20 -2.5q16 0 34 4.5t34 18t29 37t20 61.5h-65z" />
    <glyph glyph-name="Odieresis" unicode="&#xd6;" horiz-adv-x="611" 
d="M61 328q0 -75 6 -138.5t30.5 -109.5t73.5 -72t135 -26t135 26t73.5 72t30.5 109.5t6 138.5v107q-2 72 -9 133t-31.5 105.5t-72.5 69.5t-132 25t-132 -25t-72.5 -69.5t-31.5 -105.5t-9 -133v-107zM205 466v28q0 24 2.5 52t12.5 52.5t30 40.5t56 16q37 0 57 -19.5t30 -48
t12 -60t2 -55.5v-202q0 -27 -1.5 -57.5t-11.5 -57t-30.5 -43.5t-57.5 -17q-36 0 -56.5 16.5t-30 41.5t-12 53.5t-2.5 51.5v208zM271 830v115h-127v-115h127zM467 830v115h-128v-115h128z" />
    <glyph glyph-name="multiply" unicode="&#xd7;" 
d="M170 249l-144 -144l78 -78l144 144l149 -149l78 78l-149 149l149 149l-78 78l-149 -149l-144 144l-78 -78z" />
    <glyph glyph-name="Oslash" unicode="&#xd8;" horiz-adv-x="611" 
d="M578 744l-50 35l-44 -71q-18 19 -37.5 31t-41 18.5t-46 8.5t-53.5 2q-84 0 -132 -25t-72.5 -69.5t-31.5 -105.5t-9 -133v-107q0 -33 1 -66.5t4.5 -65t10.5 -60t18 -50.5l-59 -94l49 -30l46 74q16 -16 33 -26.5t38 -16.5t46.5 -8.5t57.5 -2.5q86 0 135 26t73.5 72
t30.5 109.5t6 138.5v107q-1 27 -1.5 55.5t-3.5 57t-9 55t-17 49.5zM206 275h-2q0 4 0.5 8.5t0.5 9.5v162q0 39 2.5 75t12 64t30 44.5t56.5 16.5q25 0 41 -6.5t26 -17.5t14.5 -25.5t5.5 -30.5zM405 478h2q1 -15 1 -30v-29q0 -30 -0.5 -59.5t-0.5 -58.5v-29q0 -29 -2.5 -60
t-12 -57t-30 -43t-56.5 -17q-46 0 -65 21t-26 56z" />
    <glyph glyph-name="Ugrave" unicode="&#xd9;" horiz-adv-x="611" 
d="M404 239q0 -27 -2 -53t-11.5 -46t-29 -32.5t-53.5 -12.5q-36 0 -56 12.5t-29.5 32.5t-12 46t-2.5 53v511h-140v-523q0 -62 11.5 -108t39 -76.5t73.5 -45.5t115 -15t114.5 15t72.5 45.5t38.5 76.5t11.5 108v523h-140v-511zM140 961l148 -146h101l-94 146h-155z" />
    <glyph glyph-name="Uacute" unicode="&#xda;" horiz-adv-x="611" 
d="M404 239q0 -27 -2 -53t-11.5 -46t-29 -32.5t-53.5 -12.5q-36 0 -56 12.5t-29.5 32.5t-12 46t-2.5 53v511h-140v-523q0 -62 11.5 -108t39 -76.5t73.5 -45.5t115 -15t114.5 15t72.5 45.5t38.5 76.5t11.5 108v523h-140v-511zM222 815h101l148 146h-155z" />
    <glyph glyph-name="Ucircumflex" unicode="&#xdb;" horiz-adv-x="611" 
d="M404 239q0 -27 -2 -53t-11.5 -46t-29 -32.5t-53.5 -12.5q-36 0 -56 12.5t-29.5 32.5t-12 46t-2.5 53v511h-140v-523q0 -62 11.5 -108t39 -76.5t73.5 -45.5t115 -15t114.5 15t72.5 45.5t38.5 76.5t11.5 108v523h-140v-511zM242 956l-113 -146h112l64 82l63 -82h114
l-115 146h-125z" />
    <glyph glyph-name="Udieresis" unicode="&#xdc;" horiz-adv-x="611" 
d="M404 239q0 -27 -2 -53t-11.5 -46t-29 -32.5t-53.5 -12.5q-36 0 -56 12.5t-29.5 32.5t-12 46t-2.5 53v511h-140v-523q0 -62 11.5 -108t39 -76.5t73.5 -45.5t115 -15t114.5 15t72.5 45.5t38.5 76.5t11.5 108v523h-140v-511zM271 830v115h-127v-115h127zM467 830v115h-128
v-115h128z" />
    <glyph glyph-name="Yacute" unicode="&#xdd;" horiz-adv-x="556" 
d="M165 750h-153l195 -431v-319h140v319l198 431h-153l-67 -170q-13 -32 -25.5 -65t-20.5 -77h-2q-5 30 -13.5 58.5t-19.5 56.5zM195 815h101l148 146h-155z" />
    <glyph glyph-name="Thorn" unicode="&#xde;" horiz-adv-x="556" 
d="M208 522h75q57 0 79.5 -25.5t22.5 -82.5t-22.5 -82.5t-79.5 -25.5h-75v216zM68 0h140v196h122q37 0 72.5 13t63.5 40t45.5 68t17.5 97q0 41 -8.5 80.5t-30 70t-57.5 49t-91 18.5h-134v118h-140v-750z" />
    <glyph glyph-name="germandbls" unicode="&#xdf;" 
d="M354 436q35 11 57 43t22 100q0 33 -9.5 67t-31.5 61t-56.5 44t-85.5 17q-66 0 -104 -22t-57 -55.5t-24 -72.5t-5 -72v-546h130v554q0 15 1 35t6.5 37.5t17 29.5t33.5 12q30 0 44 -18t14 -44v-61q0 -24 -3.5 -37.5t-11 -20t-19 -9t-27.5 -3.5v-95q39 -2 54 -21.5t15 -55.5
v-117q0 -17 -2 -35t-7 -32t-14.5 -23.5t-25.5 -9.5q-6 0 -13.5 1t-15.5 5v-92q16 -6 35 -10.5t38 -4.5h9q5 0 10 1q35 6 57.5 28t36 54t18.5 71t5 78v7q-1 91 -20.5 144t-70.5 66v2z" />
    <glyph glyph-name="agrave" unicode="&#xe0;" 
d="M440 0q-11 41 -11 79v346q0 27 -5.5 54t-25 49.5t-56 36.5t-99.5 14q-60 0 -98.5 -13t-60.5 -36.5t-30 -56.5t-8 -72v-4h124v6q0 36 12.5 56t55.5 20q26 0 41 -5t20 -24q3 -12 3 -22q0 -25 -16.5 -41.5t-50.5 -30.5q-38 -16 -73 -31.5t-61.5 -37t-42.5 -53.5t-16 -80
q0 -88 36 -128.5t115 -40.5q32 0 62 19q15 9 28 23t24 31h2q-1 -4 -1 -8v-8q0 -11 2 -21.5t7 -20.5h123zM299 236q-1 -20 -0.5 -46.5t-4.5 -49.5t-18.5 -39t-42.5 -16q-36 0 -48.5 20t-12.5 52q0 18 4 37t18 31q26 21 53.5 38t51.5 34v-61zM85 775l148 -146h101l-94 146
h-155z" />
    <glyph glyph-name="aacute" unicode="&#xe1;" 
d="M440 0q-11 41 -11 79v346q0 27 -5.5 54t-25 49.5t-56 36.5t-99.5 14q-60 0 -98.5 -13t-60.5 -36.5t-30 -56.5t-8 -72v-4h124v6q0 36 12.5 56t55.5 20q26 0 41 -5t20 -24q3 -12 3 -22q0 -25 -16.5 -41.5t-50.5 -30.5q-38 -16 -73 -31.5t-61.5 -37t-42.5 -53.5t-16 -80
q0 -88 36 -128.5t115 -40.5q32 0 62 19q15 9 28 23t24 31h2q-1 -4 -1 -8v-8q0 -11 2 -21.5t7 -20.5h123zM299 236q-1 -20 -0.5 -46.5t-4.5 -49.5t-18.5 -39t-42.5 -16q-36 0 -48.5 20t-12.5 52q0 18 4 37t18 31q26 21 53.5 38t51.5 34v-61zM167 629h101l148 146h-155z" />
    <glyph glyph-name="acircumflex" unicode="&#xe2;" 
d="M440 0q-11 41 -11 79v346q0 27 -5.5 54t-25 49.5t-56 36.5t-99.5 14q-60 0 -98.5 -13t-60.5 -36.5t-30 -56.5t-8 -72v-4h124v6q0 36 12.5 56t55.5 20q26 0 41 -5t20 -24q3 -12 3 -22q0 -25 -16.5 -41.5t-50.5 -30.5q-38 -16 -73 -31.5t-61.5 -37t-42.5 -53.5t-16 -80
q0 -88 36 -128.5t115 -40.5q32 0 62 19q15 9 28 23t24 31h2q-1 -4 -1 -8v-8q0 -11 2 -21.5t7 -20.5h123zM299 236q-1 -20 -0.5 -46.5t-4.5 -49.5t-18.5 -39t-42.5 -16q-36 0 -48.5 20t-12.5 52q0 18 4 37t18 31q26 21 53.5 38t51.5 34v-61zM187 770l-113 -146h112l64 82
l63 -82h114l-115 146h-125z" />
    <glyph glyph-name="atilde" unicode="&#xe3;" 
d="M440 0q-11 41 -11 79v346q0 27 -5.5 54t-25 49.5t-56 36.5t-99.5 14q-60 0 -98.5 -13t-60.5 -36.5t-30 -56.5t-8 -72v-4h124v6q0 36 12.5 56t55.5 20q26 0 41 -5t20 -24q3 -12 3 -22q0 -25 -16.5 -41.5t-50.5 -30.5q-38 -16 -73 -31.5t-61.5 -37t-42.5 -53.5t-16 -80
q0 -88 36 -128.5t115 -40.5q32 0 62 19q15 9 28 23t24 31h2q-1 -4 -1 -8v-8q0 -11 2 -21.5t7 -20.5h123zM299 236q-1 -20 -0.5 -46.5t-4.5 -49.5t-18.5 -39t-42.5 -16q-36 0 -48.5 20t-12.5 52q0 18 4 37t18 31q26 21 53.5 38t51.5 34v-61zM369 744q-5 -20 -17 -31t-33 -11
q-5 0 -13.5 2.5t-17.5 5.5t-17 6t-13 5q-11 4 -20 7.5t-17 5.5t-17.5 3.5t-21.5 1.5q-17 0 -36 -7.5t-35.5 -23t-28.5 -38.5t-14 -54h62q0 1 2 5.5t5.5 10.5t8 12t10.5 9q5 3 10.5 4t10.5 1q13 0 27 -4t25 -9q7 -2 19 -6t24.5 -7.5t24.5 -6t20 -2.5q16 0 34 4.5t34 18t29 37
t20 61.5h-65z" />
    <glyph glyph-name="adieresis" unicode="&#xe4;" 
d="M440 0q-11 41 -11 79v346q0 27 -5.5 54t-25 49.5t-56 36.5t-99.5 14q-60 0 -98.5 -13t-60.5 -36.5t-30 -56.5t-8 -72v-4h124v6q0 36 12.5 56t55.5 20q26 0 41 -5t20 -24q3 -12 3 -22q0 -25 -16.5 -41.5t-50.5 -30.5q-38 -16 -73 -31.5t-61.5 -37t-42.5 -53.5t-16 -80
q0 -88 36 -128.5t115 -40.5q32 0 62 19q15 9 28 23t24 31h2q-1 -4 -1 -8v-8q0 -11 2 -21.5t7 -20.5h123zM299 236q-1 -20 -0.5 -46.5t-4.5 -49.5t-18.5 -39t-42.5 -16q-36 0 -48.5 20t-12.5 52q0 18 4 37t18 31q26 21 53.5 38t51.5 34v-61zM216 644v115h-127v-115h127z
M412 644v115h-128v-115h128z" />
    <glyph glyph-name="aring" unicode="&#xe5;" 
d="M440 0q-11 41 -11 79v346q0 27 -5.5 54t-25 49.5t-56 36.5t-99.5 14q-60 0 -98.5 -13t-60.5 -36.5t-30 -56.5t-8 -72v-4h124v6q0 36 12.5 56t55.5 20q26 0 41 -5t20 -24q3 -12 3 -22q0 -25 -16.5 -41.5t-50.5 -30.5q-38 -16 -73 -31.5t-61.5 -37t-42.5 -53.5t-16 -80
q0 -88 36 -128.5t115 -40.5q32 0 62 19q15 9 28 23t24 31h2q-1 -4 -1 -8v-8q0 -11 2 -21.5t7 -20.5h123zM299 236q-1 -20 -0.5 -46.5t-4.5 -49.5t-18.5 -39t-42.5 -16q-36 0 -48.5 20t-12.5 52q0 18 4 37t18 31q26 21 53.5 38t51.5 34v-61zM236 622q45 0 75.5 30.5
t30.5 75.5q0 22 -8.5 41.5t-22.5 34t-33.5 23t-41.5 8.5t-41.5 -8.5t-34 -23t-23 -34t-8.5 -41.5t8.5 -41t23 -33.5t34 -23t41.5 -8.5zM236 786q23 0 40.5 -17.5t17.5 -40.5t-17.5 -40t-40.5 -17t-40.5 17t-17.5 40q0 24 17 41t41 17z" />
    <glyph glyph-name="ae" unicode="&#xe6;" horiz-adv-x="722" 
d="M176 400q1 18 2.5 32.5t7.5 25t18.5 16t35.5 5.5q27 0 43.5 -9.5t16.5 -39.5q0 -25 -13 -39.5t-34 -25.5t-48.5 -21.5t-56.5 -26.5q-30 -17 -50 -33t-32 -36t-17 -45t-5 -60q0 -89 46 -123.5t129 -34.5q37 0 73.5 13.5t57.5 45.5q27 -33 57.5 -46t78.5 -13q55 0 91 15.5
t57 42.5t29.5 62.5t8.5 74.5v12h-131v-53q-2 -26 -15.5 -40t-39.5 -14q-21 0 -33 9.5t-18 24t-7.5 32.5t-1.5 35v73h245v145q-2 51 -16 84.5t-38 54t-56 28.5t-70 8q-32 0 -61 -7t-56 -29q-29 20 -62 28t-68 8q-28 0 -57 -3.5t-54.5 -13.5t-45 -28t-28.5 -47
q-6 -20 -9.5 -39.5t-3.5 -39.5v-8h130zM296 182v-4q0 -46 -16 -69.5t-54 -23.5q-29 0 -40.5 17t-11.5 58q0 31 11.5 50.5t29.5 33.5t39.5 25.5t41.5 26.5v-114zM426 359v56q3 26 16 45t42 19q11 0 21.5 -2t18.5 -9t12.5 -19.5t4.5 -33.5v-56h-115z" />
    <glyph glyph-name="ccedilla" unicode="&#xe7;" horiz-adv-x="444" 
d="M152 -90l21 -20q9 3 19.5 5.5t21.5 2.5q14 0 24 -5q15 -5 20 -24v-5q0 -17 -14 -29t-30 -12q-25 0 -43.5 4t-42.5 12l-19 -42q17 -5 32.5 -10.5t32.5 -10.5q19 -4 44 -4q32 0 62.5 11t51.5 37q7 13 10 22.5t3 23.5t-5 29t-17 24q-14 14 -31.5 19t-36.5 5t-31 -6l-2 2
l33 48q81 7 114.5 53.5t33.5 127.5v52h-130v-52q-2 -17 -3.5 -32t-5.5 -26t-12.5 -18t-23.5 -7q-13 2 -22.5 7t-15.5 16.5t-8.5 31.5t-2.5 52v186q0 21 1.5 39.5t6.5 32t14.5 21.5t26.5 8q42 0 45 -48v-63h130v48q0 31 -9.5 60.5t-30.5 52t-55 36.5t-83 14q-37 0 -69 -9
t-56 -31t-37.5 -60.5t-13.5 -96.5v-203q0 -96 40 -141.5t113 -50.5z" />
    <glyph glyph-name="egrave" unicode="&#xe8;" 
d="M53 222v-11q0 -119 49 -172.5t159 -53.5q95 0 137.5 51t42.5 139v16h-130v-12q0 -48 -13 -71t-47 -23q-15 0 -27 3.5t-21 13t-14.5 26.5t-5.5 45v82h260v76q0 58 -6 104t-26.5 78t-60 49t-107.5 17q-93 0 -141.5 -50t-48.5 -143v-164zM183 355v36q0 17 1 33t7 28
t18.5 19.5t35.5 7.5q39 0 53 -16t15 -59v-49h-130zM85 775l148 -146h101l-94 146h-155z" />
    <glyph glyph-name="eacute" unicode="&#xe9;" 
d="M53 222v-11q0 -119 49 -172.5t159 -53.5q95 0 137.5 51t42.5 139v16h-130v-12q0 -48 -13 -71t-47 -23q-15 0 -27 3.5t-21 13t-14.5 26.5t-5.5 45v82h260v76q0 58 -6 104t-26.5 78t-60 49t-107.5 17q-93 0 -141.5 -50t-48.5 -143v-164zM183 355v36q0 17 1 33t7 28
t18.5 19.5t35.5 7.5q39 0 53 -16t15 -59v-49h-130zM167 629h101l148 146h-155z" />
    <glyph glyph-name="ecircumflex" unicode="&#xea;" 
d="M53 222v-11q0 -119 49 -172.5t159 -53.5q95 0 137.5 51t42.5 139v16h-130v-12q0 -48 -13 -71t-47 -23q-15 0 -27 3.5t-21 13t-14.5 26.5t-5.5 45v82h260v76q0 58 -6 104t-26.5 78t-60 49t-107.5 17q-93 0 -141.5 -50t-48.5 -143v-164zM183 355v36q0 17 1 33t7 28
t18.5 19.5t35.5 7.5q39 0 53 -16t15 -59v-49h-130zM187 770l-113 -146h112l64 82l63 -82h114l-115 146h-125z" />
    <glyph glyph-name="edieresis" unicode="&#xeb;" 
d="M53 222v-11q0 -119 49 -172.5t159 -53.5q95 0 137.5 51t42.5 139v16h-130v-12q0 -48 -13 -71t-47 -23q-15 0 -27 3.5t-21 13t-14.5 26.5t-5.5 45v82h260v76q0 58 -6 104t-26.5 78t-60 49t-107.5 17q-93 0 -141.5 -50t-48.5 -143v-164zM183 355v36q0 17 1 33t7 28
t18.5 19.5t35.5 7.5q39 0 53 -16t15 -59v-49h-130zM216 644v115h-127v-115h127zM412 644v115h-128v-115h128z" />
    <glyph glyph-name="igrave" unicode="&#xec;" horiz-adv-x="278" 
d="M204 0v564h-130v-564h130zM-26 775l148 -146h101l-94 146h-155z" />
    <glyph glyph-name="iacute" unicode="&#xed;" horiz-adv-x="278" 
d="M204 0v564h-130v-564h130zM56 629h101l148 146h-155z" />
    <glyph glyph-name="icircumflex" unicode="&#xee;" horiz-adv-x="278" 
d="M204 0v564h-130v-564h130zM65 770l-113 -146h112l64 82l63 -82h114l-115 146h-125z" />
    <glyph glyph-name="idieresis" unicode="&#xef;" horiz-adv-x="278" 
d="M204 0v564h-130v-564h130zM105 644v115h-127v-115h127zM301 644v115h-128v-115h128z" />
    <glyph glyph-name="eth" unicode="&#xf0;" 
d="M183 346q0 20 1 39t7.5 34t20 24.5t38.5 9.5t38.5 -9.5t20 -24.5t7.5 -34t1 -39v-162q0 -26 -2 -44.5t-8.5 -30.5t-20 -18t-36.5 -6t-36.5 6t-20 18t-8.5 30.5t-2 44.5v162zM112 622l45 -35l59 47q12 -8 25.5 -20.5t26 -28t22 -32.5t14.5 -33l-2 -2q-14 14 -37.5 20
t-52.5 6q-47 0 -77.5 -16t-48.5 -50t-25.5 -87.5t-7.5 -128.5q0 -74 7 -126t28 -86t60 -49.5t102 -15.5q64 0 102.5 15.5t59.5 49.5t28 86t7 126v108q0 73 -13 127.5t-33 94.5t-46 67t-51 45l50 40l-45 35l-50 -40q-17 12 -36 22t-37 18l-87 -74q18 -9 35.5 -18.5
t33.5 -20.5z" />
    <glyph glyph-name="ntilde" unicode="&#xf1;" 
d="M191 564h-130v-564h130v374q0 41 14 68t47 27h3q37 -2 46 -26.5t9 -66.5v-376h130v444q0 36 -10 61.5t-28 42t-42 24t-51 7.5q-11 0 -26.5 -2.5t-31.5 -10t-31.5 -22t-26.5 -38.5h-2v58zM369 744q-5 -20 -17 -31t-33 -11q-5 0 -13.5 2.5t-17.5 5.5t-17 6t-13 5
q-11 4 -20 7.5t-17 5.5t-17.5 3.5t-21.5 1.5q-17 0 -36 -7.5t-35.5 -23t-28.5 -38.5t-14 -54h62q0 1 2 5.5t5.5 10.5t8 12t10.5 9q5 3 10.5 4t10.5 1q13 0 27 -4t25 -9q7 -2 19 -6t24.5 -7.5t24.5 -6t20 -2.5q16 0 34 4.5t34 18t29 37t20 61.5h-65z" />
    <glyph glyph-name="ograve" unicode="&#xf2;" 
d="M183 372q0 20 1 39t7.5 34t20.5 24.5t40 9.5q24 0 37.5 -9.5t19.5 -24.5t7 -34t1 -39v-188q0 -26 -1.5 -44.5t-8.5 -30.5t-20 -18t-35 -6q-24 0 -37.5 6t-20.5 18t-9 30.5t-2 44.5v188zM252 -15h9q59 0 95.5 15.5t56.5 48.5t27 83.5t7 119.5v10q0 72 -3.5 131t-22 100
t-58 63.5t-111.5 22.5q-74 0 -114 -22.5t-58.5 -63.5t-22.5 -100t-4 -131v-9q0 -70 7 -120.5t28 -83.5t58 -48.5t97 -15.5h9zM85 775l148 -146h101l-94 146h-155z" />
    <glyph glyph-name="oacute" unicode="&#xf3;" 
d="M183 372q0 20 1 39t7.5 34t20.5 24.5t40 9.5q24 0 37.5 -9.5t19.5 -24.5t7 -34t1 -39v-188q0 -26 -1.5 -44.5t-8.5 -30.5t-20 -18t-35 -6q-24 0 -37.5 6t-20.5 18t-9 30.5t-2 44.5v188zM252 -15h9q59 0 95.5 15.5t56.5 48.5t27 83.5t7 119.5v10q0 72 -3.5 131t-22 100
t-58 63.5t-111.5 22.5q-74 0 -114 -22.5t-58.5 -63.5t-22.5 -100t-4 -131v-9q0 -70 7 -120.5t28 -83.5t58 -48.5t97 -15.5h9zM167 629h101l148 146h-155z" />
    <glyph glyph-name="ocircumflex" unicode="&#xf4;" 
d="M183 372q0 20 1 39t7.5 34t20.5 24.5t40 9.5q24 0 37.5 -9.5t19.5 -24.5t7 -34t1 -39v-188q0 -26 -1.5 -44.5t-8.5 -30.5t-20 -18t-35 -6q-24 0 -37.5 6t-20.5 18t-9 30.5t-2 44.5v188zM252 -15h9q59 0 95.5 15.5t56.5 48.5t27 83.5t7 119.5v10q0 72 -3.5 131t-22 100
t-58 63.5t-111.5 22.5q-74 0 -114 -22.5t-58.5 -63.5t-22.5 -100t-4 -131v-9q0 -70 7 -120.5t28 -83.5t58 -48.5t97 -15.5h9zM187 770l-113 -146h112l64 82l63 -82h114l-115 146h-125z" />
    <glyph glyph-name="otilde" unicode="&#xf5;" 
d="M183 372q0 20 1 39t7.5 34t20.5 24.5t40 9.5q24 0 37.5 -9.5t19.5 -24.5t7 -34t1 -39v-188q0 -26 -1.5 -44.5t-8.5 -30.5t-20 -18t-35 -6q-24 0 -37.5 6t-20.5 18t-9 30.5t-2 44.5v188zM252 -15h9q59 0 95.5 15.5t56.5 48.5t27 83.5t7 119.5v10q0 72 -3.5 131t-22 100
t-58 63.5t-111.5 22.5q-74 0 -114 -22.5t-58.5 -63.5t-22.5 -100t-4 -131v-9q0 -70 7 -120.5t28 -83.5t58 -48.5t97 -15.5h9zM369 744q-5 -20 -17 -31t-33 -11q-5 0 -13.5 2.5t-17.5 5.5t-17 6t-13 5q-11 4 -20 7.5t-17 5.5t-17.5 3.5t-21.5 1.5q-17 0 -36 -7.5t-35.5 -23
t-28.5 -38.5t-14 -54h62q0 1 2 5.5t5.5 10.5t8 12t10.5 9q5 3 10.5 4t10.5 1q13 0 27 -4t25 -9q7 -2 19 -6t24.5 -7.5t24.5 -6t20 -2.5q16 0 34 4.5t34 18t29 37t20 61.5h-65z" />
    <glyph glyph-name="odieresis" unicode="&#xf6;" 
d="M183 372q0 20 1 39t7.5 34t20.5 24.5t40 9.5q24 0 37.5 -9.5t19.5 -24.5t7 -34t1 -39v-188q0 -26 -1.5 -44.5t-8.5 -30.5t-20 -18t-35 -6q-24 0 -37.5 6t-20.5 18t-9 30.5t-2 44.5v188zM252 -15h9q59 0 95.5 15.5t56.5 48.5t27 83.5t7 119.5v10q0 72 -3.5 131t-22 100
t-58 63.5t-111.5 22.5q-74 0 -114 -22.5t-58.5 -63.5t-22.5 -100t-4 -131v-9q0 -70 7 -120.5t28 -83.5t58 -48.5t97 -15.5h9zM216 644v115h-127v-115h127zM412 644v115h-128v-115h128z" />
    <glyph glyph-name="divide" unicode="&#xf7;" 
d="M26 194h449v110h-449v-110zM313 377v115h-127v-115h127zM313 6v115h-127v-115h127z" />
    <glyph glyph-name="oslash" unicode="&#xf8;" 
d="M315 338h2v-154q0 -26 -1.5 -44.5t-8.5 -30.5t-20 -18t-35 -6q-36 0 -50 13.5t-17 43.5zM390 539q-22 20 -55.5 30t-82.5 10q-73 0 -113 -22.5t-59 -63.5t-23 -100t-4 -131v-16q0 -55 5 -97t18 -74l-69 -99l53 -34l54 78q23 -18 54.5 -26.5t76.5 -8.5h17q59 0 95 15.5
t56 48t27 83t7 120.5v10q0 69 -2.5 124.5t-18.5 96.5l66 99l-49 35zM185 219h-2v153q0 20 1 39t7.5 34t20.5 24.5t40 9.5q36 0 48.5 -19t14.5 -46z" />
    <glyph glyph-name="ugrave" unicode="&#xf9;" 
d="M307 0h124v564h-130v-370q0 -17 -1 -36t-7 -35t-18 -27t-34 -11q-24 0 -40 18q-9 14 -11 31.5t-2 34.5v395h-130v-432q0 -35 5 -62.5t19 -46.5t38.5 -28.5t63.5 -9.5q92 1 121 99h2v-84zM85 775l148 -146h101l-94 146h-155z" />
    <glyph glyph-name="uacute" unicode="&#xfa;" 
d="M307 0h124v564h-130v-370q0 -17 -1 -36t-7 -35t-18 -27t-34 -11q-24 0 -40 18q-9 14 -11 31.5t-2 34.5v395h-130v-432q0 -35 5 -62.5t19 -46.5t38.5 -28.5t63.5 -9.5q92 1 121 99h2v-84zM167 629h101l148 146h-155z" />
    <glyph glyph-name="ucircumflex" unicode="&#xfb;" 
d="M307 0h124v564h-130v-370q0 -17 -1 -36t-7 -35t-18 -27t-34 -11q-24 0 -40 18q-9 14 -11 31.5t-2 34.5v395h-130v-432q0 -35 5 -62.5t19 -46.5t38.5 -28.5t63.5 -9.5q92 1 121 99h2v-84zM187 780l-113 -146h112l64 82l63 -82h114l-115 146h-125z" />
    <glyph glyph-name="udieresis" unicode="&#xfc;" 
d="M307 0h124v564h-130v-370q0 -17 -1 -36t-7 -35t-18 -27t-34 -11q-24 0 -40 18q-9 14 -11 31.5t-2 34.5v395h-130v-432q0 -35 5 -62.5t19 -46.5t38.5 -28.5t63.5 -9.5q92 1 121 99h2v-84zM216 644v115h-127v-115h127zM412 644v115h-128v-115h128z" />
    <glyph glyph-name="yacute" unicode="&#xfd;" horiz-adv-x="444" 
d="M5 564l136 -556q4 -15 8 -36t4 -36q0 -17 -13.5 -22t-29.5 -5q-10 0 -19 1t-15 1v-101q17 -2 32 -3.5t28 -1.5q45 0 71 13.5t41.5 38t24 59t19.5 76.5l137 572h-132l-57 -303q-7 -36 -12 -72.5t-8 -73.5h-2q-4 38 -8 75t-11 75l-57 299h-137zM139 629h101l148 146h-155z
" />
    <glyph glyph-name="thorn" unicode="&#xfe;" 
d="M308 194q0 -50 -13.5 -79.5t-43.5 -29.5q-63 0 -63 100v169q0 28 2 51t8.5 39.5t18.5 25.5t32 9q34 0 46.5 -27.5t12.5 -69.5v-188zM58 -189h130v241h2q20 -38 47.5 -52.5t65.5 -14.5q41 0 67.5 17t41.5 44.5t20.5 63t5.5 72.5v188q0 60 -9.5 100t-26.5 64.5t-42.5 34.5
t-56.5 10q-41 0 -68 -16t-45 -58h-2v245h-130v-939z" />
    <glyph glyph-name="ydieresis" unicode="&#xff;" horiz-adv-x="444" 
d="M5 564l136 -556q4 -15 8 -36t4 -36q0 -17 -13.5 -22t-29.5 -5q-10 0 -19 1t-15 1v-101q17 -2 32 -3.5t28 -1.5q45 0 71 13.5t41.5 38t24 59t19.5 76.5l137 572h-132l-57 -303q-7 -36 -12 -72.5t-8 -73.5h-2q-4 38 -8 75t-11 75l-57 299h-137zM188 644v115h-127v-115h127z
M384 644v115h-128v-115h128z" />
    <glyph glyph-name="dotlessi" unicode="&#x131;" horiz-adv-x="278" 
d="M204 0v564h-130v-564h130z" />
    <glyph glyph-name="Lslash" unicode="&#x141;" 
d="M474 0v110h-260v286l103 88v128l-103 -88v226h-140v-333l-74 -59v-127l74 59v-290h400z" />
    <glyph glyph-name="lslash" unicode="&#x142;" horiz-adv-x="278" 
d="M74 0h130v416l68 48v96l-68 -48v238h-130v-292l-72 -51v-95l72 50v-362z" />
    <glyph glyph-name="OE" unicode="&#x152;" horiz-adv-x="833" 
d="M405 226q0 -28 -3.5 -52t-14 -41.5t-30 -27.5t-52.5 -10q-35 0 -56 22t-31.5 55t-13.5 72t-3 72q0 17 0.5 30.5t0.5 24.5t-0.5 25t-0.5 30q0 34 3 73t14 73t32.5 57t57.5 26h8q26 0 43.5 -10.5t27.5 -27.5t14 -38.5t4 -43.5v-309zM545 110v230h229v110h-229v190h247v110
h-375v-59l-2 2v-2h-2q-22 43 -60.5 60t-74.5 17q-66 0 -108 -30.5t-66 -77.5t-33.5 -104t-9.5 -111v-89q0 -62 5.5 -128.5t27 -121t65.5 -89.5t121 -35q10 0 26.5 5.5t35.5 17t37.5 28.5t31.5 40h2v-73h379v110h-247z" />
    <glyph glyph-name="oe" unicode="&#x153;" horiz-adv-x="722" 
d="M678 363q0 44 -11 85.5t-37 78.5q-12 17 -29.5 27.5t-35.5 16t-34.5 7t-27.5 1.5q-38 0 -75.5 -11t-62.5 -46q-32 32 -59 44t-61 13h-5q-72 0 -111 -22.5t-57.5 -64t-22 -100t-3.5 -130.5v-9q0 -70 7 -120.5t28 -83.5t58 -48.5t97 -15.5h9q23 0 57 11.5t63 41.5
q20 -26 50 -39.5t60 -13.5q56 0 94.5 11.5t62.5 36t35 63t11 92.5v4h-130v-42q0 -30 -15 -47.5t-47 -17.5q-15 0 -25 4.5t-17 16.5t-10 33t-3 53v66h247v105zM429 358v20q0 15 1 33t6.5 33t17.5 25t33 10q35 0 48 -20.5t13 -65.5v-35h-119zM176 372v16q0 48 14 69.5t47 21.5
q37 0 49.5 -20t14.5 -71v-179q0 -40 -4 -64t-12.5 -37.5t-20.5 -18t-27 -4.5q-16 0 -27 4t-18.5 17.5t-11.5 39t-4 69.5v157z" />
    <glyph glyph-name="Scaron" unicode="&#x160;" horiz-adv-x="556" 
d="M489 522q0 18 -1 43.5t-6.5 53t-18 54t-37 48t-62 34.5t-93.5 13q-112 0 -166 -50.5t-54 -147.5q0 -62 36 -115q21 -28 48 -50.5t56.5 -42.5t59.5 -39.5t57 -40.5q27 -19 41.5 -42.5t14.5 -56.5q0 -88 -87 -88q-49 0 -68.5 31.5t-19.5 81.5v57h-140v-55q0 -50 12 -92
t39 -72t70.5 -47t106.5 -17q51 0 93.5 14t73 41t47.5 67.5t17 93.5q0 49 -13.5 85.5t-49.5 71.5q-15 14 -36.5 31t-45.5 34t-47.5 32t-40.5 26q-17 10 -31.5 20.5t-25 22.5t-17 27.5t-6.5 36.5q0 38 21 54t56 16q27 0 43.5 -10t25 -27t11 -39t2.5 -46v-11h135zM455 946h-114
l-63 -82l-64 82h-112l113 -146h125z" />
    <glyph glyph-name="scaron" unicode="&#x161;" horiz-adv-x="444" 
d="M29 186q-1 -7 -1 -14v-13q0 -56 19.5 -90t48 -52.5t60.5 -25t56 -6.5q59 0 97 13.5t59.5 36t30 51.5t8.5 61q0 10 -0.5 19t-1.5 19q-2 14 -11 30.5t-22.5 32t-28.5 28.5t-27 20l-106 72q-19 13 -34 26.5t-15 38.5q0 24 16 35t39 11q32 0 46 -17t14 -57v-13h130v9
q0 87 -44 132.5t-137 45.5q-94 0 -144 -35.5t-50 -101.5q0 -61 29 -102.5t78 -75.5l71 -49q9 -6 20 -13t20.5 -15t16 -17.5t7.5 -21.5q2 -10 2 -14q0 -22 -16 -35.5t-40 -13.5h-5q-10 0 -20 1.5t-18.5 8t-13.5 21t-5 40.5q0 7 0.5 14.5t1.5 15.5h-130zM389 760h-114l-63 -82
l-64 82h-112l113 -146h125z" />
    <glyph glyph-name="Ydieresis" unicode="&#x178;" horiz-adv-x="556" 
d="M165 750h-153l195 -431v-319h140v319l198 431h-153l-67 -170q-13 -32 -25.5 -65t-20.5 -77h-2q-5 30 -13.5 58.5t-19.5 56.5zM244 830v115h-127v-115h127zM440 830v115h-128v-115h128z" />
    <glyph glyph-name="Zcaron" unicode="&#x17d;" 
d="M33 0h435v110h-235q-14 0 -27 -0.5t-27 -2.5q13 16 21.5 32.5t17.5 33.5l241 465v112h-410v-110h210q14 0 27 0.5t27 2.5q-13 -16 -21.5 -32.5t-17.5 -33.5l-241 -465v-112zM427 946h-114l-63 -82l-64 82h-112l113 -146h125z" />
    <glyph glyph-name="zcaron" unicode="&#x17e;" horiz-adv-x="389" 
d="M367 471v93h-340v-100h194l-198 -362v-102h344v100h-206zM371 760h-114l-63 -82l-64 82h-112l113 -146h125z" />
    <glyph glyph-name="florin" unicode="&#x192;" 
d="M492 747q-2 1 -4 1q-1 0 -3 1q-19 5 -38.5 9.5t-39.5 4.5q-43 0 -73.5 -15t-51.5 -40.5t-33.5 -59.5t-19.5 -71l-16 -78h-126v-95h111l-65 -378q-4 -21 -8.5 -41.5t-14.5 -40.5q-6 -13 -17 -18.5t-24 -5.5q-23 0 -43 15l-17 -108q22 -5 43 -8.5t44 -3.5q37 0 72.5 17.5
t53.5 52.5q25 48 38.5 109t22.5 115l48 295h124v95h-111l5 31q3 20 6 42.5t10 41t21.5 30.5t41.5 12q11 0 21.5 -3.5t20.5 -8.5z" />
    <glyph glyph-name="circumflex" unicode="&#x2c6;" horiz-adv-x="333" 
d="M103 790l-113 -146h112l64 82l63 -82h114l-115 146h-125z" />
    <glyph glyph-name="caron" unicode="&#x2c7;" horiz-adv-x="333" 
d="M343 780h-114l-63 -82l-64 82h-112l113 -146h125z" />
    <glyph glyph-name="breve" unicode="&#x2d8;" horiz-adv-x="333" 
d="M270 780q-5 -36 -29.5 -53t-78.5 -17q-40 0 -67 17t-31 53h-65v-4q0 -62 44 -101.5t124 -39.5q71 0 115 37t53 108h-65z" />
    <glyph glyph-name="dotaccent" unicode="&#x2d9;" horiz-adv-x="333" 
d="M230 644v115h-127v-115h127z" />
    <glyph glyph-name="ring" unicode="&#x2da;" horiz-adv-x="333" 
d="M167 632q45 0 75.5 30.5t30.5 75.5q0 22 -8.5 41.5t-22.5 34t-33.5 23t-41.5 8.5t-41.5 -8.5t-34 -23t-23 -34t-8.5 -41.5t8.5 -41t23 -33.5t34 -23t41.5 -8.5zM167 796q23 0 40.5 -17.5t17.5 -40.5t-17.5 -40t-40.5 -17t-40.5 17t-17.5 40q0 24 17 41t41 17z" />
    <glyph glyph-name="ogonek" unicode="&#x2db;" horiz-adv-x="333" 
d="M278 -104q-13 -5 -27.5 -11.5t-28.5 -6.5q-19 0 -32.5 12.5t-13.5 31.5q0 20 20 42t43 34v2h-68q-14 -9 -28.5 -20t-26.5 -24t-20 -28.5t-8 -33.5q0 -26 9.5 -44.5t25.5 -30.5t37 -18t44 -6t44 5t30 10v86z" />
    <glyph glyph-name="tilde" unicode="&#x2dc;" horiz-adv-x="333" 
d="M285 764q-5 -20 -17 -31t-33 -11q-5 0 -13.5 2.5t-17.5 5.5t-17 6t-13 5q-11 4 -20 7.5t-17 5.5t-17.5 3.5t-21.5 1.5q-17 0 -35.5 -7.5t-35.5 -22.5q-17 -16 -29 -38.5t-14 -54.5h62q0 1 2 5.5t5.5 10.5t8 12t10.5 9q5 3 10.5 4t10.5 1q13 0 27 -4t25 -9q7 -2 19 -6
t24.5 -7.5t24.5 -6t20 -2.5q16 0 34 4.5t34 18t29 37t20 61.5h-65z" />
    <glyph glyph-name="hungarumlaut" unicode="&#x2dd;" horiz-adv-x="333" 
d="M-17 634h101l148 146h-155zM198 634h101l148 146h-155z" />
    <glyph glyph-name="endash" unicode="&#x2013;" 
d="M500 259v110h-500v-110h500z" />
    <glyph glyph-name="emdash" unicode="&#x2014;" horiz-adv-x="1000" 
d="M1000 259v110h-1000v-110h1000z" />
    <glyph glyph-name="quoteleft" unicode="&#x2018;" horiz-adv-x="278" 
d="M197 766q-70 -11 -95.5 -48t-25.5 -104v-119h121v130h-64v10q0 41 16.5 60.5t47.5 24.5v46z" />
    <glyph glyph-name="quoteright" unicode="&#x2019;" horiz-adv-x="278" 
d="M81 479q70 11 95.5 48t25.5 104v119h-121v-130h64v-10q0 -41 -16.5 -60.5t-47.5 -24.5v-46z" />
    <glyph glyph-name="quotesinglbase" unicode="&#x201a;" horiz-adv-x="278" 
d="M87 -138q35 7 58 18.5t37 29.5t19.5 43.5t5.5 59.5v119h-120v-130h63v-11q0 -34 -12.5 -54.5t-50.5 -28.5v-46z" />
    <glyph glyph-name="quotedblleft" unicode="&#x201c;" 
d="M208 766q-70 -11 -95.5 -48t-25.5 -104v-119h121v130h-64v10q0 41 16.5 60.5t47.5 24.5v46zM405 766q-70 -11 -95.5 -48t-25.5 -104v-119h121v130h-64v10q0 41 16.5 60.5t47.5 24.5v46z" />
    <glyph glyph-name="quotedblright" unicode="&#x201d;" 
d="M292 479q70 11 95.5 48t25.5 104v119h-121v-130h64v-10q0 -41 -16.5 -60.5t-47.5 -24.5v-46zM95 479q70 11 95.5 48t25.5 104v119h-121v-130h64v-10q0 -41 -16.5 -60.5t-47.5 -24.5v-46z" />
    <glyph glyph-name="quotedblbase" unicode="&#x201e;" 
d="M293 -138q35 7 58 18.5t37 29.5t19.5 43.5t5.5 59.5v119h-120v-130h63q0 -17 -1.5 -33t-9.5 -31q-10 -14 -23 -20t-29 -10v-46zM96 -138q35 7 58 18.5t37 29.5t19.5 43.5t5.5 59.5v119h-120v-130h63v-11q0 -34 -12.5 -54.5t-50.5 -28.5v-46z" />
    <glyph glyph-name="dagger" unicode="&#x2020;" 
d="M188 422v-577h128v577h147v112h-147v234h-128v-234h-151v-112h151z" />
    <glyph glyph-name="daggerdbl" unicode="&#x2021;" 
d="M188 77v-238h128v238h150v113h-150v230h150v113h-150v235h-128v-235h-153v-113h153v-230h-153v-113h153z" />
    <glyph glyph-name="bullet" unicode="&#x2022;" horiz-adv-x="420" 
d="M398 375q0 39 -15 73t-40.5 59.5t-60 40t-73.5 14.5t-73 -14.5t-59.5 -40t-40 -59.5t-14.5 -73t14.5 -73.5t40 -60t59.5 -40.5t73 -15t73.5 15t60 40.5t40.5 60t15 73.5z" />
    <glyph glyph-name="ellipsis" unicode="&#x2026;" horiz-adv-x="1000" 
d="M233 0v132h-132v-132h132zM566 0v132h-132v-132h132zM899 0v132h-132v-132h132z" />
    <glyph glyph-name="perthousand" unicode="&#x2030;" horiz-adv-x="1111" 
d="M579 366q-54 0 -84.5 -15t-46 -40.5t-19 -58.5t-3.5 -69t3.5 -69t19 -58.5t46 -40.5t84.5 -15q55 0 86 15t46 40.5t18.5 58.5t3.5 69t-3.5 69t-18.5 58.5t-46 40.5t-86 15zM580 293q21 0 33 -8t17 -22t6 -34.5t1 -45.5t-1 -45.5t-6 -34.5t-17 -22t-33 -8q-22 0 -33.5 8
t-17 22t-6.5 34.5t-1 45.5t1 45.5t6.5 34.5t17 22t33.5 8zM937 366q-54 0 -84.5 -15t-46 -40.5t-19 -58.5t-3.5 -69t3.5 -69t19 -58.5t46 -40.5t84.5 -15q55 0 86 15t46 40.5t18.5 58.5t3.5 69t-3.5 69t-18.5 58.5t-46 40.5t-86 15zM938 293q21 0 33 -8t17 -22t6 -34.5
t1 -45.5t-1 -45.5t-6 -34.5t-17 -22t-33 -8q-22 0 -33.5 8t-17 22t-6.5 34.5t-1 45.5t1 45.5t6.5 34.5t17 22t33.5 8zM174 736q-54 0 -84.5 -15t-46 -40.5t-19 -58.5t-3.5 -69t3.5 -69t19 -58.5t46 -40.5t84.5 -15q55 0 86 15t46 40.5t18.5 58.5t3.5 69t-3.5 69t-18.5 58.5
t-46 40.5t-86 15zM175 663q21 0 33 -8t17 -22t6 -34.5t1 -45.5t-1 -45.5t-6 -34.5t-17 -22t-33 -8q-22 0 -33.5 8t-17 22t-6.5 34.5t-1 45.5t1 45.5t6.5 34.5t17 22t33.5 8zM246 -18l338 766h-72l-339 -766h73z" />
    <glyph glyph-name="guilsinglleft" unicode="&#x2039;" horiz-adv-x="278" 
d="M215 62v113l-95 85l95 75v112l-157 -141v-102z" />
    <glyph glyph-name="guilsinglright" unicode="&#x203a;" horiz-adv-x="278" 
d="M63 62l157 142v102l-157 141v-112l94 -79l-94 -81v-113z" />
    <glyph glyph-name="Euro" unicode="&#x20ac;" 
d="M496 668q-29 42 -77.5 63.5t-108.5 21.5q-74 0 -117.5 -25t-67 -64t-31 -85.5t-8.5 -88.5h-44l-33 -100h76v-55h-43l-33 -100h77q1 -51 8.5 -96.5t31 -79.5t67 -54t117.5 -20q48 0 87 16t59 36v134q-8 -11 -21 -24.5t-30.5 -25t-40.5 -19t-50 -7.5q-53 0 -70.5 36
t-17.5 104h131l32 100h-164v55h182l32 100h-214q0 24 2.5 51t11.5 49.5t26.5 37.5t48.5 15q29 0 52.5 -9t41.5 -23q29 -22 39.5 -42.5l10.5 -20.5z" />
    <glyph glyph-name="trademark" unicode="&#x2122;" horiz-adv-x="860" 
d="M774 750h-129l-80 -239h-2l-81 239h-129v-404h80v326h2l105 -326h47l105 326h2v-326h80v404zM310 750h-309v-78h114v-326h80v326h115v78z" />
    <glyph glyph-name="minus" unicode="&#x2212;" 
d="M26 194h449v110h-449v-110z" />
    <glyph glyph-name="fraction" unicode="&#x2215;" horiz-adv-x="167" 
d="M-94 0l425 738h-75l-425 -738h75z" />
    <glyph glyph-name="fi" unicode="&#xfb01;" 
d="M446 564h-130v-564h130v564zM446 750h-130v-118h130v118zM246 750h-49q-36 0 -61.5 -6t-42.5 -21t-25 -40t-8 -63v-56h-50v-95h50v-469h130v469h56v95h-56v66q0 22 27 22q6 0 13.5 -2t15.5 -4v104z" />
    <glyph glyph-name="fl" unicode="&#xfb02;" 
d="M443 750h-130v-750h130v750zM60 469v-469h130v469h56v95h-56v66q0 22 27 22q6 0 13.5 -2t15.5 -4v104h-49q-36 0 -61.5 -6t-42.5 -21t-25 -40t-8 -63v-56h-50v-95h50z" />
    </font>
</defs>
</svg>
