<?xml version="1.0" encoding="utf-8"?>
<!-- Generator: Adobe Illustrator 21.1.0, SVG Export Plug-In . SVG Version: 6.00 Build 0)  -->
<svg version="1.1" id="图层_1" xmlns="http://www.w3.org/2000/svg" xmlns:xlink="http://www.w3.org/1999/xlink" x="0px" y="0px"
	 viewBox="0 0 36 36" style="enable-background:new 0 0 36 36;" xml:space="preserve">
<path d="M33.1,30.5c0-0.4-0.1-0.8-0.2-1.2c-1.4-5.6-5.8-9.9-11.4-11.1c3.5-1.4,6-4.8,6-8.8C27.4,4.2,23.2,0,18,0
	c-5.2,0-9.4,4.2-9.4,9.4c0,4,2.6,7.5,6.2,8.8c0,0,0,0,0,0c0,0-0.1,0-0.1-0.1C9,19.4,4.5,23.7,3.2,29.3C3,29.7,3,30.1,2.9,30.5
	c0,0.1,0,0.3,0,0.4C2.9,33.7,5.2,36,8,36h10h0h10c2.8,0,5.1-2.3,5.1-5.1C33.1,30.8,33.1,30.6,33.1,30.5z M18,35.2L18,35.2L18,35.2
	L18,35.2l-4.5-4l3.3-7.8c-1-1.1-1.7-2.9-1.7-2.9l0-0.1c1-0.9,2-1.1,2.8-1.1v0c0,0,0,0,0,0c0,0,0,0,0,0v0c0.8,0,1.8,0.2,2.8,1.1
	l0,0.1c0,0-0.7,1.9-1.7,2.9l3.3,7.8L18,35.2z"/>
</svg>
