<?xml version="1.0" encoding="utf-8"?>
<!-- Generator: Adobe Illustrator 21.1.0, SVG Export Plug-In . SVG Version: 6.00 Build 0)  -->
<svg version="1.1" id="Layer_1" xmlns="http://www.w3.org/2000/svg" xmlns:xlink="http://www.w3.org/1999/xlink" x="0px" y="0px"
	 viewBox="0 0 200 200" style="enable-background:new 0 0 200 200;" xml:space="preserve">
<style type="text/css">
	.st0{fill:none;stroke:#E50000;stroke-width:4;stroke-miterlimit:10;}
</style>
<path class="st0" d="M131.8,166.9c-0.8-2.8-3.3-4.7-6.1-4.7h-13.5v-23.1c-3.4,0.6-6.9,0.9-10.5,0.9c-3.6,0-7.1-0.3-10.5-0.9v23.1
	H77.5c-2.9,0-5.4,1.9-6.1,4.7l-4.8,17.3c-0.5,1.9-0.1,4,1.1,5.6c1.2,1.6,3.1,2.5,5.1,2.5h57.7h0.1c3.5,0,6.4-2.9,6.4-6.4
	c0-0.9-0.2-1.7-0.5-2.5L131.8,166.9L131.8,166.9z M166.4,29.5c-1.8-0.5-3.6-0.7-5.3-0.7c-0.8,0-1.6,0.1-2.5,0.1V11.9
	c0-3.3-2.7-6-6-6h-102c-3.3,0-6,2.7-6,6v17.1c-0.8-0.1-1.6-0.1-2.5-0.1c-1.8,0-3.6,0.2-5.3,0.7c-14,3.7-21.5,21.5-16.7,39.6
	c4.2,15.8,16.4,26.7,28.7,26.7c0.6,0,1.3-0.1,1.9-0.1c0.5,1,0.9,2,1.5,2.9c0.1,0.2,0.2,0.4,0.3,0.5c0.7,1.4,1.5,2.7,2.4,4
	c0.1,0.1,0.2,0.3,0.3,0.4c0.9,1.3,1.8,2.6,2.8,3.9c0,0,0.1,0.1,0.1,0.1c2,2.6,4.3,5.1,6.7,7.3c0,0,0.1,0.1,0.1,0.1
	c1.2,1.1,2.4,2.1,3.7,3.1c0.1,0,0.1,0.1,0.2,0.1c5.2,4,11.1,7.2,17.5,9.1c0,0,0,0,0.1,0c1.6,0.5,3.2,0.9,4.8,1.2h0
	c1.7,0.3,3.4,0.6,5.2,0.8c0,0,0.1,0,0.1,0c1.7,0.2,3.5,0.3,5.3,0.3c1.8,0,3.5-0.1,5.2-0.3c0,0,0.1,0,0.1,0c1.7-0.2,3.4-0.4,5.1-0.8
	h0h0c1.6-0.3,3.2-0.7,4.8-1.2c0,0,0,0,0.1,0c6.3-1.9,12.2-5.1,17.5-9.1c0.1,0,0.1-0.1,0.2-0.1c1.3-1,2.5-2,3.7-3.1
	c0,0,0.1-0.1,0.1-0.1c2.4-2.2,4.7-4.7,6.7-7.3c0,0,0.1-0.1,0.1-0.1c1-1.3,1.9-2.6,2.8-3.9c0.1-0.1,0.2-0.3,0.3-0.4
	c0.8-1.3,1.6-2.7,2.4-4c0.1-0.2,0.2-0.3,0.3-0.5c0.5-1,1-1.9,1.5-2.9c0.6,0.1,1.3,0.1,1.9,0.1c12.4,0,24.5-10.9,28.7-26.7
	C187.8,51,180.4,33.2,166.4,29.5L166.4,29.5z M29.9,66.4c-3.3-12.4,1-24.8,9.4-27c0.9-0.2,1.8-0.4,2.7-0.4c0.8,0,1.6,0.1,2.5,0.3
	v28.4c0,1.7,0.1,3.5,0.2,5.2c0,0.2,0,0.5,0,0.7c0.1,1.6,0.3,3.2,0.6,4.8c0,0.3,0.1,0.6,0.1,0.8c0.3,1.6,0.6,3.1,1,4.6
	c0.1,0.2,0.1,0.5,0.2,0.7c0.1,0.3,0.1,0.5,0.2,0.8C39.6,84.2,32.6,76.4,29.9,66.4L29.9,66.4z M132.7,54.8l-16.9,12.8l6.2,20.2
	c0.2,0.8,0,1.6-0.7,2.1c-0.3,0.2-0.7,0.4-1.1,0.4c-0.4,0-0.8-0.1-1.1-0.3l-17.5-12.1L84.1,89.9c-0.7,0.5-1.6,0.4-2.2,0
	c-0.7-0.5-0.9-1.3-0.7-2.1l6.1-20.2L70.4,54.8c-0.7-0.5-0.9-1.4-0.7-2.1c0.2-0.8,1-1.3,1.8-1.3l21.3-0.4l7-20c0.3-0.8,1-1.3,1.8-1.3
	s1.5,0.5,1.8,1.3l7,20l21.3,0.4c0.8,0,1.5,0.6,1.8,1.3C133.6,53.4,133.4,54.3,132.7,54.8L132.7,54.8z M173.2,66.4
	c-2.7,10-9.7,17.7-17,18.9c0.1-0.3,0.1-0.5,0.2-0.8c0.1-0.2,0.1-0.5,0.2-0.7c0.4-1.5,0.7-3.1,1-4.6c0.1-0.3,0.1-0.5,0.1-0.8
	c0.3-1.6,0.5-3.2,0.6-4.8c0-0.2,0-0.5,0-0.7c0.1-1.7,0.2-3.4,0.2-5.2V39.3c0.8-0.2,1.6-0.3,2.5-0.3c0.9,0,1.8,0.1,2.7,0.4
	C172.2,41.6,176.5,54,173.2,66.4L173.2,66.4z"/>
</svg>
