<?xml version="1.0" encoding="utf-8"?>
<!-- Generator: Adobe Illustrator 21.1.0, SVG Export Plug-In . SVG Version: 6.00 Build 0)  -->
<svg version="1.1" id="图层_1" xmlns="http://www.w3.org/2000/svg" xmlns:xlink="http://www.w3.org/1999/xlink" x="0px" y="0px"
	 viewBox="0 0 36 36" style="enable-background:new 0 0 36 36;" xml:space="preserve">
<path d="M35.6,6.1h-4V3.2c0-0.2-0.2-0.4-0.4-0.4H0.4C0.2,2.8,0,3,0,3.2v27.3c0,1.5,1.2,2.7,2.7,2.7h30.7c1.4,0,2.6-1.2,2.6-2.6V6.5
	C36,6.3,35.8,6.1,35.6,6.1z M35.2,30.6c0,1-0.8,1.8-1.8,1.8s-1.8-0.8-1.8-1.8v-1.1c0-0.2-0.2-0.4-0.4-0.4c-0.2,0-0.4,0.2-0.4,0.4
	v1.1c0,0.7,0.3,1.3,0.7,1.8H2.7c-1,0-1.9-0.8-1.9-1.9V3.6h30v22c0,0.2,0.2,0.4,0.4,0.4c0.2,0,0.4-0.2,0.4-0.4V6.9h3.6L35.2,30.6
	L35.2,30.6z M14.8,8.3H3.7c-0.2,0-0.4,0.2-0.4,0.4v9.9c0,0.2,0.2,0.4,0.4,0.4h11.1c0.2,0,0.4-0.2,0.4-0.4V8.7
	C15.2,8.5,15,8.3,14.8,8.3z M14.4,18.1H4.1v-9h10.3V18.1z M16.6,8.7c0-0.2,0.2-0.4,0.4-0.4h10.9c0.2,0,0.4,0.2,0.4,0.4
	c0,0.2-0.2,0.4-0.4,0.4H17C16.7,9.1,16.6,8.9,16.6,8.7z M16.6,12c0-0.2,0.2-0.4,0.4-0.4h10.9c0.2,0,0.4,0.2,0.4,0.4
	s-0.2,0.4-0.4,0.4H17C16.7,12.4,16.6,12.2,16.6,12z M16.6,15.3c0-0.2,0.2-0.4,0.4-0.4h10.9c0.2,0,0.4,0.2,0.4,0.4
	c0,0.2-0.2,0.4-0.4,0.4H17C16.7,15.7,16.6,15.5,16.6,15.3z M17,19c-0.2,0-0.4-0.2-0.4-0.4s0.2-0.4,0.4-0.4h10.9
	c0.2,0,0.4,0.2,0.4,0.4S28.1,19,27.9,19H17z M15.2,21.8c0,0.2-0.2,0.4-0.4,0.4H3.7c-0.2,0-0.4-0.2-0.4-0.4c0-0.2,0.2-0.4,0.4-0.4
	h11.1C15,21.4,15.2,21.6,15.2,21.8z M15.2,25.1c0,0.2-0.2,0.4-0.4,0.4H3.7c-0.2,0-0.4-0.2-0.4-0.4c0-0.2,0.2-0.4,0.4-0.4h11.1
	C15,24.7,15.2,24.9,15.2,25.1z M15.2,28.4c0,0.2-0.2,0.4-0.4,0.4H3.7c-0.2,0-0.4-0.2-0.4-0.4c0-0.2,0.2-0.4,0.4-0.4h11.1
	C15,28,15.2,28.2,15.2,28.4z M28.5,21.8c0,0.2-0.2,0.4-0.4,0.4H17.1c-0.2,0-0.4-0.2-0.4-0.4c0-0.2,0.2-0.4,0.4-0.4h10.9
	C28.3,21.4,28.5,21.6,28.5,21.8z M28.5,25.1c0,0.2-0.2,0.4-0.4,0.4H17.1c-0.2,0-0.4-0.2-0.4-0.4c0-0.2,0.2-0.4,0.4-0.4h10.9
	C28.3,24.7,28.5,24.9,28.5,25.1z M28.5,28.4c0,0.2-0.2,0.4-0.4,0.4H17.1c-0.2,0-0.4-0.2-0.4-0.4c0-0.2,0.2-0.4,0.4-0.4h10.9
	C28.3,28,28.5,28.2,28.5,28.4z"/>
</svg>
