<?xml version="1.0" standalone="no"?><!DOCTYPE svg PUBLIC "-//W3C//DTD SVG 1.1//EN" "http://www.w3.org/Graphics/SVG/1.1/DTD/svg11.dtd"><svg t="1505898643064" class="icon" style="" viewBox="0 0 1024 1024" version="1.1" xmlns="http://www.w3.org/2000/svg" p-id="4215" xmlns:xlink="http://www.w3.org/1999/xlink" width="200" height="200"><defs><style type="text/css"></style></defs><path d="M438.86587 52.79457l73.850969 0 0 255.95299L438.86587 308.74756 438.86587 52.79457 438.86587 52.79457 438.86587 52.79457 438.86587 52.79457 438.86587 52.79457zM438.86587 52.79457" p-id="4216"></path><path d="M309.148894 462.01221c-32.318331-74.533511-100.47008-127.396335-211.690186-125.24633-20.339731 153.094015 35.833419 232.57595 211.690186 231.210868 175.890895 1.365083 231.99579-78.116853 211.656059-231.210868C409.584848 334.615876 341.398971 387.4787 309.148894 462.01221L309.148894 462.01221 309.148894 462.01221 309.148894 462.01221 309.148894 462.01221zM309.148894 462.01221" p-id="4217"></path><path d="M327.099731 0l73.850969 0 0 308.74756L327.099731 308.74756 327.099731 0 327.099731 0 327.099731 0 327.099731 0 327.099731 0zM327.099731 0" p-id="4218"></path><path d="M309.148894 694.417525c-32.318331-74.533511-100.47008-127.396335-211.690186-125.24633-20.339731 153.094015 35.833419 232.57595 211.690186 231.210868 175.890895 1.365083 231.99579-78.116853 211.656059-231.210868C409.584848 567.02119 341.398971 619.884015 309.148894 694.417525L309.148894 694.417525 309.148894 694.417525 309.148894 694.417525 309.148894 694.417525zM309.148894 694.417525" p-id="4219"></path><path d="M309.148894 918.018057c-32.318331-74.533511-100.47008-127.396335-211.690186-125.24633-20.339731 153.128142 35.833419 232.57595 211.690186 231.210868 175.890895 1.330956 231.99579-78.082725 211.656059-231.210868C409.584848 790.621722 341.398971 843.484547 309.148894 918.018057L309.148894 918.018057 309.148894 918.018057 309.148894 918.018057 309.148894 918.018057zM309.148894 918.018057" p-id="4220"></path><path d="M215.060575 0l73.850969 0 0 308.74756L215.060575 308.74756 215.060575 0 215.060575 0 215.060575 0 215.060575 0 215.060575 0zM215.060575 0" p-id="4221"></path><path d="M101.656337 52.79457l73.885096 0 0 255.95299L101.656337 308.74756 101.656337 52.79457 101.656337 52.79457 101.656337 52.79457 101.656337 52.79457 101.656337 52.79457zM101.656337 52.79457" p-id="4222"></path><path d="M873.337538 308.542798l49.177101 0 0 170.464691-49.177101 0L873.337538 308.542798 873.337538 308.542798 873.337538 308.542798 873.337538 308.542798 873.337538 308.542798zM873.337538 308.542798" p-id="4223"></path><path d="M786.927809 581.115668c-21.534178-49.65488-66.923175-84.839884-141.013034-83.406548-13.548445 101.971671 23.854819 154.90275 141.013034 153.981319 117.124088 0.921431 154.493225-52.009648 140.978907-153.981319C853.816857 496.241657 808.42786 531.460788 786.927809 581.115668L786.927809 581.115668 786.927809 581.115668 786.927809 581.115668 786.927809 581.115668zM786.927809 581.115668" p-id="4224"></path><path d="M798.872282 273.39192l49.177101 0 0 205.615569-49.177101 0L798.872282 273.39192 798.872282 273.39192 798.872282 273.39192 798.872282 273.39192 798.872282 273.39192zM798.872282 273.39192" p-id="4225"></path><path d="M786.927809 735.847783c-21.534178-49.620753-66.923175-84.839884-141.013034-83.406548-13.548445 101.971671 23.854819 154.90275 141.013034 153.981319 117.124088 0.921431 154.493225-52.009648 140.978907-153.981319C853.816857 651.042025 808.42786 686.22703 786.927809 735.847783L786.927809 735.847783 786.927809 735.847783 786.927809 735.847783 786.927809 735.847783zM786.927809 735.847783" p-id="4226"></path><path d="M786.927809 884.812423c-21.534178-49.65488-66.923175-84.839884-141.013034-83.440675-13.548445 101.971671 23.854819 154.868622 141.013034 153.981319 117.124088 0.887304 154.493225-52.009648 140.978907-153.981319C853.816857 799.972538 808.42786 835.157543 786.927809 884.812423L786.927809 884.812423 786.927809 884.812423 786.927809 884.812423 786.927809 884.812423zM786.927809 884.812423" p-id="4227"></path><path d="M724.270517 273.39192l49.177101 0 0 205.615569-49.177101 0L724.270517 273.39192 724.270517 273.39192 724.270517 273.39192 724.270517 273.39192 724.270517 273.39192zM724.270517 273.39192" p-id="4228"></path><path d="M648.747321 308.542798l49.211228 0 0 170.464691L648.747321 479.007489 648.747321 308.542798 648.747321 308.542798 648.747321 308.542798 648.747321 308.542798 648.747321 308.542798zM648.747321 308.542798" p-id="4229"></path></svg>