<?xml version="1.0" standalone="no"?><!DOCTYPE svg PUBLIC "-//W3C//DTD SVG 1.1//EN" "http://www.w3.org/Graphics/SVG/1.1/DTD/svg11.dtd"><svg t="1505898762633" class="icon" style="" viewBox="0 0 1024 1024" version="1.1" xmlns="http://www.w3.org/2000/svg" p-id="5266" xmlns:xlink="http://www.w3.org/1999/xlink" width="200" height="200"><defs><style type="text/css"></style></defs><path d="M580.634682 102.380762 447.599759 102.380762c-70.644967 0-128.115889 57.478086-128.115889 128.126122l0 17.878183 72.02029 0 0-17.878183c0-30.933523 25.168216-56.097646 56.095599-56.097646l133.034922 0c30.933523 0 56.094576 25.164123 56.094576 56.097646l0 17.878183 72.028477 0 0-17.878183C708.757734 159.858848 651.284765 102.380762 580.634682 102.380762z" p-id="5267"></path><path d="M839.949682 268.965801 188.285782 268.965801c-68.189032 0-123.477242 55.277978-123.477242 123.467009l0 439.012685c0 68.197218 55.287187 123.480312 123.477242 123.480312l651.6639 0c68.188009 0 123.470079-55.283094 123.470079-123.480312L963.419761 392.432811C963.420785 324.243779 908.137691 268.965801 839.949682 268.965801zM514.117732 819.016419c-114.360608 0-207.077266-92.710518-207.077266-207.073172 0-114.361631 92.716658-207.073172 207.077266-207.073172 114.364701 0 207.075219 92.712565 207.075219 207.073172C721.193974 726.305901 628.482433 819.016419 514.117732 819.016419z" p-id="5268"></path><path d="M633.187595 578.645886l-85.777619 0 0-85.783759c0-2.487657-2.013867-4.51278-4.50971-4.51278L485.337245 488.349347c-2.496867 0-4.51892 2.025123-4.51892 4.51278l0 85.783759-85.778642 0c-2.489704 0-4.511757 2.025123-4.511757 4.511757l0 57.56916c0 2.489704 2.023076 4.50971 4.511757 4.50971l85.778642 0 0 85.787852c0 2.492774 2.022053 4.504594 4.51892 4.504594l57.561997 0c2.495844 0 4.50971-2.012843 4.50971-4.504594l0-85.787852 85.777619 0c2.496867 0 4.520967-2.02103 4.520967-4.50971l0-57.56916C637.708562 580.672032 635.684462 578.645886 633.187595 578.645886z" p-id="5269"></path></svg>