<?xml version="1.0" standalone="no"?><!DOCTYPE svg PUBLIC "-//W3C//DTD SVG 1.1//EN" "http://www.w3.org/Graphics/SVG/1.1/DTD/svg11.dtd"><svg t="1505899089802" class="icon" style="" viewBox="0 0 1024 1024" version="1.1" xmlns="http://www.w3.org/2000/svg" p-id="6417" xmlns:xlink="http://www.w3.org/1999/xlink" width="200" height="200"><defs><style type="text/css"></style></defs><path d="M947.257753 956.285046l0-153.386602 5.048694 0c0 0 1.405306-20.559114-2.862661-30.136017-4.267968-9.524855-17.071872-8.900274-17.071872-8.900274s-1.509403-10.201484-10.774016-21.860323c-3.643387-4.476161-9.524855-6.714242-14.833791-8.0675l0-60.272034 11.919081 0 0-25.50371-6.506049 0c7.494968-6.818339 29.511436-30.396259 23.838162-62.301921-7.234726-41.170275-65.060486-60.584324-79.373793-102.170987-5.621226-16.343194-9.108468-29.771678-11.086307-40.233404l0-66.101454 13.220291 0L858.775492 372.978754l-13.220291 0 0-12.491613-4.788452 0 0 12.491613-13.376436 0 0 4.267968 13.376436 0 0 55.22334c-1.717597 10.878113-5.204839 28.158178-13.168242 51.111518-14.261259 41.586663-72.34726 61.000712-79.321744 102.170987-5.673274 31.905662 16.239097 55.431534 23.786114 62.301921l-6.506049 0 0 25.451662 9.05642 0 0 60.376131c-20.66321 3.174952-22.27671 28.678662-22.27671 28.678662s-6.089661-0.624581-13.636678 3.487242l0-58.554437 0.364339 0c0 0 26.024194-21.96442 20.66321-53.505744-5.100742-30.708549-42.575582-46.947647-58.346244-75.105825 0.31229-1.717597 1.197113-6.610145 1.92579-15.458371 1.145065-11.502694-8.535936-22.172614-8.535936-22.172614s-1.040968-8.692081 2.133984-20.142726c3.227-11.606791-9.681-22.953339-8.587984-26.856969 1.093016-3.747484-9.628952-21.96442-8.587984-27.845888 0.884823-4.476161-1.457355-20.35092-2.550371-27.845888l5.777371 0L682.956035 429.919691l-24.202501 0-57.357324-212.253329 0-20.819355 3.955678 0L605.351887 156.145166l3.227 0L608.578888 142.196198c5.048694-5.569178 15.926807-20.611162 8.952323-37.630985-5.413032-13.428484-35.288808-42.211243-39.192437-51.423808C575.736354 46.739453 574.955628 41.638711 574.747435 39.08834L574.747435 13.220291l10.409678 0L585.157113 9.941242l-10.409678 0L574.747435 0 570.947902 0l0 9.941242-10.409678 0 0 3.227 10.409678 0 0 27.533598C570.635612 43.512453 569.594644 47.884518 567.408612 53.141405 563.661128 62.406018 533.681256 91.188777 528.216175 104.617261 521.29374 121.585036 532.27595 136.62702 537.220547 142.196198L537.220547 156.145166 539.979111 156.145166l0 40.649792 4.372065 0 0 20.819355L487.0459 429.919691 459.147963 429.919691l0 8.640033 11.2945 0C466.38269 446.262885 471.379335 463.438853 467.735948 469.37237 463.415931 475.982515 465.497867 494.251499 459.147963 502.995629c-6.401952 8.535936-3.227 29.563485-3.227 29.563485s-4.267968 2.862661-6.401952 8.640033c-1.92579 5.360984 2.342177 20.507065-1.040968 32.426146-20.194775-17.488259-46.687405-33.050727-55.847921-56.316357C385.759735 499.768629 382.0643 485.715564 380.242606 475.982515L380.138509 475.982515 380.138509 429.29511l12.855952 0L392.994461 425.44353 380.138509 425.44353 380.138509 413.732642 375.870542 413.732642l0 11.710887-11.450646 0 0 3.851581 11.450646 0 0 47.051743C373.9968 486.131951 370.405461 499.924774 363.587122 517.308936c-8.796178 22.484904-33.727356 37.630985-53.505744 54.234421-22.224662-18.945614-49.810308-36.433872-59.647453-62.145776C242.314376 488.161838 238.254602 471.506354 236.172666 460.211853L236.172666 404.676222l12.179323 0L248.351989 400.824642 236.172666 400.824642 236.172666 389.321948 231.904698 389.321948l0 11.502694L219.725375 400.824642l0 3.851581 12.179323 0 0 55.483582C229.770714 471.506354 225.71094 488.161838 217.591391 509.397581c-16.343194 42.835824-82.028261 62.822405-90.199858 105.085697-6.506049 33.363017 19.622243 57.773711 27.481549 64.487954l0 218.863475c-9.108468-7.599065-17.904646-15.458371-21.704178-25.607807-4.111823-10.878113-6.349903-19.518146-7.547016-25.763952l0-21.235743 9.316662 0 0-3.018807L125.673937 822.208397l0-8.848226L122.394888 813.360171l0 8.848226L113.130275 822.208397l0 3.018807 9.264613 0 0 22.901291c-1.30121 6.089661-3.383145 14.105113-7.130629 24.098404-9.004371 23.786114-44.917759 35.028566-49.393921 58.346244-3.903629 20.090678 13.116194 34.351937 15.874759 36.590017l0 56.836841 876.963302 0 0-67.714954L947.257753 956.285046z" p-id="6418"></path></svg>