<?xml version="1.0" encoding="utf-8"?>
<!-- Generator: Adobe Illustrator 21.1.0, SVG Export Plug-In . SVG Version: 6.00 Build 0)  -->
<svg version="1.1" id="图层_1" xmlns="http://www.w3.org/2000/svg" xmlns:xlink="http://www.w3.org/1999/xlink" x="0px" y="0px"
	 viewBox="0 0 200 200" style="enable-background:new 0 0 200 200;" xml:space="preserve">
<style type="text/css">
	.st0{fill:#D81E06;}
	.st1{fill:none;stroke:#D81E06;stroke-miterlimit:10;}
	.st2{fill:#FFFFFF;}
</style>
<circle class="st0" cx="108.2" cy="100" r="90.1"/>
<circle class="st1" cx="108.2" cy="100" r="90.1"/>
<path class="st2" d="M166.8,165.2c0-8-1.5-15.6-4.6-22.8c-2.9-7-7.2-13.3-12.5-18.6c-4.3-4.3-9.1-7.8-14.5-10.6
	c-7.6,5.6-16.9,8.9-27,8.9c-10.1,0-19.5-3.4-27-8.9c-5.3,2.7-10.2,6.3-14.5,10.6c-5.4,5.4-9.6,11.7-12.5,18.6
	c-3.1,7.2-4.6,14.9-4.6,22.8v0.1h-3.3c16.1,15.3,37.9,24.7,61.9,24.7c24,0,45.8-9.4,61.9-24.7h-3.3V165.2z"/>
<path class="st2" d="M175,160.4c-1.6-22.7-14.6-42.3-33.3-53.1c7.4-8,11.8-18.8,11.8-30.6c0-25.1-20.3-45.4-45.4-45.4
	c-25.1,0-45.4,20.3-45.4,45.4c0,11.7,4.5,22.4,11.8,30.6C55.9,118,43,137.6,41.3,160.4c1.6,1.7,3.2,3.4,4.9,5h3.3v-0.1
	c0-7.9,1.5-15.6,4.6-22.8c2.9-7,7.2-13.3,12.5-18.6c4.3-4.3,9.2-7.8,14.5-10.6c7.5,5.6,16.9,8.9,27,8.9c10.1,0,19.4-3.3,27-8.9
	c5.4,2.7,10.2,6.3,14.5,10.6c5.4,5.4,9.6,11.7,12.5,18.6c3.1,7.2,4.6,14.9,4.6,22.8v0.1h3.3C171.8,163.8,173.4,162.1,175,160.4z"/>
</svg>
