<?xml version="1.0" encoding="utf-8"?>
<!-- Generator: Adobe Illustrator 21.1.0, SVG Export Plug-In . SVG Version: 6.00 Build 0)  -->
<svg version="1.1" id="图层_1" xmlns="http://www.w3.org/2000/svg" xmlns:xlink="http://www.w3.org/1999/xlink" x="0px" y="0px"
	 viewBox="0 0 200 200" style="enable-background:new 0 0 200 200;" xml:space="preserve">
<style type="text/css">
	.st0{fill:#D81E06;}
	.st1{fill:none;stroke:#D81E06;stroke-miterlimit:10;}
	.st2{fill:#FFFFFF;}
</style>
<path class="st0" d="M73.7,153.8c-10.5,0-18.9,8.5-18.9,18.9c0,10.5,8.5,18.9,18.9,18.9s18.9-8.5,18.9-18.9
	C92.6,162.3,84.1,153.8,73.7,153.8L73.7,153.8z"/>
<circle class="st0" cx="73.7" cy="172.8" r="10.5"/>
<polygon class="st0" points="42.3,40.2 37.9,14.9 12.7,14.9 12.7,23.4 30.2,23.4 50.5,141.2 168.4,141.2 168.4,132.8 58.2,132.8 
	55.9,119.6 168.4,107.5 189.4,48.6 189.4,40.2 42.3,40.2 "/>
<polygon class="st0" points="164.2,99.1 54.5,111.3 43.7,48.6 179.7,48.6 164.2,99.1 "/>
<path class="st0" d="M145.2,153.8c-10.5,0-18.9,8.5-18.9,18.9c0,10.5,8.5,18.9,18.9,18.9c10.5,0,18.9-8.5,18.9-18.9
	C164.2,162.3,155.7,153.8,145.2,153.8L145.2,153.8z"/>
<circle class="st0" cx="145.2" cy="172.8" r="10.5"/>
</svg>
