<?xml version="1.0" standalone="no"?><!DOCTYPE svg PUBLIC "-//W3C//DTD SVG 1.1//EN" "http://www.w3.org/Graphics/SVG/1.1/DTD/svg11.dtd"><svg t="1505898879075" class="icon" style="" viewBox="0 0 1024 1024" version="1.1" xmlns="http://www.w3.org/2000/svg" p-id="6043" xmlns:xlink="http://www.w3.org/1999/xlink" width="200" height="200"><defs><style type="text/css"></style></defs><path d="M792.14592 132.43392c0 2.26816-0.15872 4.5056-0.43008 6.71232 0.27136 2.20672 0.43008 4.43392 0.43008 6.7072v-13.41952zM300.62592 193.98656h422.74816c35.44576 0 64.60416-24.00768 68.34176-54.84544-3.73248-30.83264-32.896-54.84032-68.34176-54.84032H300.62592c-35.45088 0-64.60416 24.00256-68.34176 54.84032 3.7376 30.83776 32.89088 54.84544 68.34176 54.84544zM231.85408 132.43392v13.4144c0-2.26816 0.15872-4.50048 0.43008-6.7072-0.27136-2.2016-0.43008-4.43904-0.43008-6.7072zM683.71456 291.42016H340.28544c-63.30368 0-114.62144 45.92128-114.62144 102.57408V837.12c0 56.65792 51.31264 102.5792 114.62144 102.5792h343.43424c63.29344 0 114.61632-45.92128 114.61632-102.5792V393.99936c0-56.65792-51.32288-102.5792-114.62144-102.5792z m-10.62912 268.76928l-9.82528 11.4688c-1.9456 1.9712-3.90144 3.90144-6.04672 5.72928l-145.19808 129.96096-145.41824-130.1504a101.81632 101.81632 0 0 1-5.84192-5.53984l-9.87136-11.4688c-27.13088-37.07904-23.38816-87.52128 12.3648-121.03168 19.84512-18.59072 47.39584-28.84096 77.57312-28.84096 25.76896 0 51.1232 7.77216 71.18848 21.57568 20.05504-13.80352 45.40928-21.57568 71.18848-21.57568 30.18752 0 57.71776 10.23488 77.568 28.84096 35.71712 33.46944 39.49568 83.86048 12.31872 121.03168z" fill="#000000" p-id="6044"></path></svg>