<?xml version="1.0" standalone="no"?><!DOCTYPE svg PUBLIC "-//W3C//DTD SVG 1.1//EN" "http://www.w3.org/Graphics/SVG/1.1/DTD/svg11.dtd"><svg t="1505369669372" class="icon" style="" viewBox="0 0 1024 1024" version="1.1" xmlns="http://www.w3.org/2000/svg" p-id="5563" xmlns:xlink="http://www.w3.org/1999/xlink" width="200" height="200"><defs><style type="text/css"></style></defs><path d="M64.862775 664.413272 64.862775 537.075095c0-27.047006 21.992897-49.03888 49.039903-49.03888l794.411021 0c27.048029 0 49.039903 21.991874 49.039903 49.03888l0 127.338177L64.862775 664.413272z" p-id="5564"></path><path d="M64.862775 690.533163 64.862775 837.240479 129.347438 837.240479 129.347438 876.203886 193.813682 876.203886 193.813682 837.240479 827.133795 837.240479 827.133795 876.203886 891.618459 876.203886 891.618459 837.240479 957.353602 837.240479 957.353602 690.533163Z" p-id="5565"></path><path d="M511.108189 142.515854c-142.792147 0-277.599436 33.845853-397.205511 93.63968l0 230.649124 67.936275 0 0-59.036581c0-27.057239 22.011316-49.049113 49.058322-49.049113l199.125153 0c27.048029 0 49.057299 21.991874 49.057299 49.049113l0 59.036581 64.055898 0 0-59.036581c0-27.057239 22.01234-49.049113 49.058322-49.049113l199.126176 0c27.047006 0 49.057299 21.991874 49.057299 49.049113l0 59.036581 67.936275 0L908.313699 236.155535C788.707624 176.361707 653.900336 142.515854 511.108189 142.515854z" p-id="5566"></path></svg>