<?xml version="1.0" standalone="no"?><!DOCTYPE svg PUBLIC "-//W3C//DTD SVG 1.1//EN" "http://www.w3.org/Graphics/SVG/1.1/DTD/svg11.dtd"><svg t="1505371678609" class="icon" style="" viewBox="0 0 1024 1024" version="1.1" xmlns="http://www.w3.org/2000/svg" p-id="12371" xmlns:xlink="http://www.w3.org/1999/xlink" width="200" height="200"><defs><style type="text/css"></style></defs><path d="M949.232133 635.673717l-0.475837-3.984754-0.038886-0.24457c-0.808412-4.782933-1.64957-8.635681-2.645247-12.117992-3.529383-12.876262-9.767458-24.506137-18.554588-34.577516-0.568958-0.784876-1.103124-1.353834-1.521656-1.797949-17.367553-19.859303-42.654472-31.239492-69.408813-31.239492-26.527167 0-51.892881 11.412934-69.595055 31.315216-5.711072 6.4192-10.454096 13.521968-14.156418 21.098527-3.704368-7.571443-8.452509-14.677281-14.167674-21.098527-17.702174-19.902282-43.055608-31.315216-69.562309-31.315216-26.747177 0-52.024887 11.376095-69.391417 31.222095l-0.078795 0.081864c-0.361227 0.372483-0.906649 0.937348-1.480724 1.722224-8.741082 10.048867-14.959713 21.626553-18.489096 34.425044-1.310855 4.036943-2.221598 8.18645-2.783393 12.679787l-0.033769 0.322341c-0.091074 1.023306-0.205685 1.967818-0.322341 2.933819l-0.069585 0.592494c-0.337691 2.87242-0.514723 6.027274-0.514723 9.119705 0 3.244904 0.166799 6.424316 0.493234 9.458419 3.269463 39.482223 28.120454 87.035262 66.49853 127.247102 37.065174 38.836517 79.180364 62.96096 109.912295 62.96096s72.853261-24.124444 109.924575-62.96096c38.376029-40.205701 63.221904-87.75874 66.48625-127.234823 0.330528-2.987031 0.49221-6.088672 0.49221-9.470699C949.746856 641.501446 949.582103 638.59321 949.232133 635.673717zM449.815729 534.683628c129.756249 0 235.33075-105.653295 235.33075-235.545644 0-129.887232-105.5745-235.549737-235.33075-235.549737-129.753179 0-235.33689 105.686041-235.33689 235.550761C214.478839 429.001681 320.06255 534.683628 449.815729 534.683628zM701.698456 860.731496c-23.049972-13.674441-46.605457-32.815383-68.121494-55.357795-22.028713-23.081695-41.091884-48.907896-55.128575-74.689073-15.877619-29.161157-25.051559-57.359382-27.265994-83.813894-0.422625-3.969405-0.636496-8.121981-0.636496-12.347213 0-4.180206 0.232291-8.281617 0.693802-12.219299l0.088004-0.733711c0.138146-1.152243 0.255827-2.145873 0.346901-3.146667l0.033769-0.38067 0.046049-0.38067c0.748037-5.983271 1.960655-11.539824 3.702322-16.963347 4.276397-15.382339 11.504008-29.41903 21.502733-41.807175-9.923-1.00898-19.989263-1.523703-30.172183-1.523703L370.462426 557.36828c-163.864068 0-297.133328 133.303029-297.133328 297.208029l0 17.637706c0 85.681428 131.137713 85.681428 297.133328 85.681428l176.326914 0c159.461805 0 297.164027 0 297.164027-85.681428l0-11.455913c-25.979698 15.403828-49.903573 23.214724-71.108524 23.214724C751.629659 883.972826 727.690434 876.154767 701.698456 860.731496z" p-id="12372"></path></svg>