<?xml version="1.0" standalone="no"?><!DOCTYPE svg PUBLIC "-//W3C//DTD SVG 1.1//EN" "http://www.w3.org/Graphics/SVG/1.1/DTD/svg11.dtd"><svg t="1505371389759" class="icon" style="" viewBox="0 0 1024 1024" version="1.1" xmlns="http://www.w3.org/2000/svg" p-id="2551" xmlns:xlink="http://www.w3.org/1999/xlink" width="200" height="200"><defs><style type="text/css"></style></defs><path d="M550.512053 469.976458V245.716699c-11.227766-1.112924-22.083341-2.368157-31.344333-3.905574v-0.413546h-1.97164l0.021894 0.014596h1.932718v0.420844h-1.561743l-0.007298-0.007298c-0.047436 0.045004-0.396517 0.367326-0.750464 0.367326-11.990393 1.594584-26.706539 3.523653-43.332293 5.118236v222.688285H21.903327V291.242001c0-28.11746 22.000632-50.647187 49.547642-50.647187h205.808321c-55.272817-11.834705-96.734424-36.019832-98.256028-80.682768-1.556878-52.613961 56.486695-137.66207 141.234375-118.257046 87.483163 20.118999 148.607652 89.369661 195.425891 148.697659 47.225704-60.483493 114.156861-138.421048 205.454376-150.710654 76.293102-9.882526 139.351526 68.05138 131.219271 119.470924-6.937837 45.06432-49.157206 69.61069-102.952205 81.461208H952.539301c27.505655 0 49.550074 22.527295 49.550074 50.643538v178.757566H550.512053v0.001217zM329.555795 88.294442c-42.220585-17.017406-66.951835 1.235772-84.750113 31.294464-9.683051 16.972403-20.09224 39.54835-4.656038 56.140047 40.617487 42.737517 152.052244 39.588488 226.786036 31.63503-35.246258-45.0181-78.571253-95.307691-137.379885-119.069541z m461.63743 87.080564c29.019962-37.995121-27.855953-117.10155-88.998687-87.861435-58.457119 28.113811-100.614456 73.951704-136.985801 119.074406 31.300545 2.793866 63.057207 3.526085 94.417352 1.972856 38.321092-1.592151 109.134714-4.343446 131.567136-33.185827zM476.57981 1004.702011h-368.019195c-24.775037 0-44.909848-20.536194-44.909848-46.255088V506.023048h412.927826v498.678963h0.001217z m483.721987-46.257521c0 25.743221-20.112917 46.255088-44.909848 46.255088H547.412892V506.023048h412.888905v452.421442z" fill="" p-id="2552"></path></svg>