<?xml version="1.0" standalone="no"?><!DOCTYPE svg PUBLIC "-//W3C//DTD SVG 1.1//EN" "http://www.w3.org/Graphics/SVG/1.1/DTD/svg11.dtd"><svg t="1505369594280" class="icon" style="" viewBox="0 0 1024 1024" version="1.1" xmlns="http://www.w3.org/2000/svg" p-id="3227" xmlns:xlink="http://www.w3.org/1999/xlink" width="200" height="200"><defs><style type="text/css"></style></defs><path d="M957.335694 811.089889l-54.235229 0L903.100466 388.864542c0-30.79947-16.303314-62.821791-47.102784-62.821791L725.33376 326.042751c-20.618597 0-46.337351 23.537066-46.337351 44.154639l0 440.892499-36.839023 0L642.157385 164.869978c0-30.79947-16.687054-62.930261-47.487547-62.930261L184.012967 101.939717c-30.79947 0-64.765049 32.130791-64.765049 62.930261l0 646.220934-54.235229 0c-1.130753 0-2.046612 0.915859-2.046612 2.046612l0 144.286174c0 1.130753 0.915859 2.046612 2.046612 2.046612l892.323005 0c1.130753 0 2.046612-0.915859 2.046612-2.046612l0-144.286174C959.382307 812.006771 958.466448 811.089889 957.335694 811.089889zM341.305363 586.492598c0 20.618597-16.714683 37.332257-37.332257 37.332257L230.258221 623.824855c-20.618597 0-37.332257-16.714683-37.332257-37.332257l0-73.714885c0-20.618597 16.714683-37.332257 37.332257-37.332257l73.714885 0c20.618597 0 37.332257 16.714683 37.332257 37.332257L341.305363 586.492598zM341.305363 361.365234c0 20.618597-16.714683 37.332257-37.332257 37.332257L230.258221 398.697491c-20.618597 0-37.332257-16.714683-37.332257-37.332257l0-73.714885c0-20.618597 16.714683-37.332257 37.332257-37.332257l73.714885 0c20.618597 0 37.332257 16.714683 37.332257 37.332257L341.305363 361.365234zM565.40942 586.492598c0 20.618597-16.714683 37.332257-37.332257 37.332257L454.362278 623.824855c-20.618597 0-37.332257-16.714683-37.332257-37.332257l0-73.714885c0-20.618597 16.714683-37.332257 37.332257-37.332257l73.714885 0c20.618597 0 37.332257 16.714683 37.332257 37.332257L565.40942 586.492598zM565.40942 361.365234c0 20.618597-16.714683 37.332257-37.332257 37.332257L454.362278 398.697491c-20.618597 0-37.332257-16.714683-37.332257-37.332257l0-73.714885c0-20.618597 16.714683-37.332257 37.332257-37.332257l73.714885 0c20.618597 0 37.332257 16.714683 37.332257 37.332257L565.40942 361.365234zM846.818625 698.032974c0 20.618597-16.714683 37.332257-37.332257 37.332257L772.610506 735.36523c-20.618597 0-37.332257-16.714683-37.332257-37.332257l0-36.875862c0-20.618597 16.714683-37.332257 37.332257-37.332257l36.875862 0c20.618597 0 37.332257 16.714683 37.332257 37.332257L846.818625 698.032974zM846.818625 511.791246c0 20.618597-16.714683 37.332257-37.332257 37.332257L772.610506 549.123502c-20.618597 0-37.332257-16.714683-37.332257-37.332257l0-36.875862c0-20.618597 16.714683-37.332257 37.332257-37.332257l36.875862 0c20.618597 0 37.332257 16.714683 37.332257 37.332257L846.818625 511.791246z" p-id="3228"></path></svg>