<?xml version="1.0" standalone="no"?><!DOCTYPE svg PUBLIC "-//W3C//DTD SVG 1.1//EN" "http://www.w3.org/Graphics/SVG/1.1/DTD/svg11.dtd"><svg t="1505369762302" class="icon" style="" viewBox="0 0 1024 1024" version="1.1" xmlns="http://www.w3.org/2000/svg" p-id="6738" xmlns:xlink="http://www.w3.org/1999/xlink" width="200" height="200"><defs><style type="text/css"></style></defs><path d="M-0.00038-0.00038l0 0 0 0zM123.811724 764.794941l826.699948 0q24.138259 0 41.427281-17.323254t17.323254-41.964532-17.323254-41.964532-41.427281-17.323254l-5.237484 0q-16.785052-119.615842-96.517853-211.401132t-195.151429-125.355394l0-1.04027q2.114772-10.507298 2.114772-15.744782 0-49.317739-34.612276-83.391813t-83.930015-34.109257-83.391813 34.109257-34.109257 83.391813q0 5.237484 1.04027 16.785052-115.418628 33.572006-195.151429 125.355394t-96.517853 211.401132l-5.237484 0q-11.548519 0-22.559787 4.733514t-18.900775 12.588789-12.588789 18.900775-4.733514 23.600057q0 24.138259 17.323254 41.427281t41.427281 17.323254zM537.146009 233.960538q24.138259 0 41.427281 17.323254t17.323254 41.427281l0 3.155042-1.04027 1.04027q-14.703561-2.114772-29.375743-3.155042t-28.334522-1.04027-28.334522 1.04027-29.375743 3.155042l-1.04027-1.04027 0-3.155042q0-24.138259 17.323254-41.427281t41.427281-17.323254zM288.51481 549.734798q28.334522-46.160795 71.876575-79.732801t97.056055-48.276518q2.114772-1.04027 4.197214-1.04027l0 0q3.155042-1.04027 5.237484-1.04027 12.588789 0 21.518566 8.929777t8.929777 21.518566q0 7.352256-3.155042 13.63001t-8.929777 10.507298-12.052489 5.237484q-28.334522 8.393477-52.9758 22.559787t-45.120525 33.572006-35.149527 42.501783q-2.114772 5.237484-6.311986 9.433747t-9.433747 6.311986-11.548519 2.114772q-12.588789 0-20.982266-8.393477t-8.393477-20.982266q0-9.433747 5.237484-16.785052zM950.513574 823.546427l-826.699948 0q-24.138259 0-41.427281 17.323254t-17.323254 41.964532 17.323254 41.964532 41.427281 17.323254l826.699948 0q24.138259 0 41.427281-17.323254t17.323254-41.964532-17.323254-41.964532-41.427281-17.323254z" p-id="6739"></path></svg>