<?xml version="1.0" standalone="no"?><!DOCTYPE svg PUBLIC "-//W3C//DTD SVG 1.1//EN" "http://www.w3.org/Graphics/SVG/1.1/DTD/svg11.dtd"><svg t="1505371493769" class="icon" style="" viewBox="0 0 1024 1024" version="1.1" xmlns="http://www.w3.org/2000/svg" p-id="4285" xmlns:xlink="http://www.w3.org/1999/xlink" width="200" height="200"><defs><style type="text/css"></style></defs><path d="M729.4 410.063c-7.484-2.093-9.527-2.38-16.123-0.521-31.819 10.255-69.996 91.667-104.565 186.001C540.491 407.71 451.204 202.001 379.79 177.244c-7.012-2.641-13.815-4.525-23.472-0.862-116.082 38.127-292.43 737.704-292.43 737.704H958.97c-2.222-7.667-137.616-472.41-229.57-504.023zM958.97 914.085l0.03 0.061v-0.061h-0.03zM628.26 291.444c53.727 0 97.347-43.518 97.347-97.374-0.109-53.697-43.62-97.346-97.347-97.346-53.725 0-97.345 43.465-97.345 97.346 0 53.701 43.492 97.374 97.345 97.374z" fill="" p-id="4286"></path></svg>