<?xml version="1.0" standalone="no"?><!DOCTYPE svg PUBLIC "-//W3C//DTD SVG 1.1//EN" "http://www.w3.org/Graphics/SVG/1.1/DTD/svg11.dtd"><svg t="1505369457041" class="icon" style="" viewBox="0 0 1024 1024" version="1.1" xmlns="http://www.w3.org/2000/svg" p-id="2370" xmlns:xlink="http://www.w3.org/1999/xlink" width="200" height="200"><defs><style type="text/css"></style></defs><path d="M979.2 473.6l-19.2 0L531.2 57.6c-12.8-12.8-25.6-12.8-38.4 0L57.6 473.6 44.8 473.6C19.2 473.6 0 492.8 0 518.4l0 38.4c0 25.6 19.2 44.8 44.8 44.8l115.2 0L160 896c0 25.6 19.2 44.8 44.8 44.8l185.6 0c25.6 0 44.8-19.2 44.8-44.8l0-236.8 153.6 0L588.8 896c0 25.6 19.2 44.8 44.8 44.8l185.6 0c25.6 0 44.8-19.2 44.8-44.8L864 601.6l115.2 0c25.6 0 44.8-19.2 44.8-44.8L1024 518.4C1024 492.8 1004.8 473.6 979.2 473.6z" p-id="2371"></path></svg>