<?xml version="1.0" standalone="no"?><!DOCTYPE svg PUBLIC "-//W3C//DTD SVG 1.1//EN" "http://www.w3.org/Graphics/SVG/1.1/DTD/svg11.dtd"><svg t="1505371813945" class="icon" style="" viewBox="0 0 1024 1024" version="1.1" xmlns="http://www.w3.org/2000/svg" p-id="14192" xmlns:xlink="http://www.w3.org/1999/xlink" width="200" height="200"><defs><style type="text/css"></style></defs><path d="M440.005 406.18c16.654-2.655 23.643 9.027 13.892 18.143-51.083 47.967-128.999 127.263-128.999 127.263 14.323-7.965 31.667-13.629 53.93-13.629 50.047 0 76.192 9.911 95.347 30.444 16.912 18.143 25.714 29.294 44.525 29.294 18.897 0 26.662-11.151 43.575-29.294 19.156-20.532 60.747-49.206 116.229-25.311 25.541-28.851 10.268-53.985-10.441-80.977l-17.517-22.922c-34.946-45.489-65.147-84.783-78.781-101.509-36.327-44.692-72.567-37.436-160.063-20.178 0 0-176.717 64.251-177.58 64.516l0.173 49.118c0.604-0.177 129.69-12.832 205.71-24.957M765.999 433.173c58.762 0 106.479-48.941 106.479-109.209 0-60.269-47.717-109.209-106.479-109.209-58.762 0-106.479 48.941-106.479 109.209 0 60.269 47.717 109.209 106.479 109.209M797.149 816.024c-18.897 0-27.181-8.053-44.093-26.108-19.156-20.532-45.388-48.675-95.434-48.675-49.961 0-76.192 28.143-95.347 48.587-16.912 18.143-25.109 26.196-44.006 26.196-18.897 0-27.181-8.053-44.093-26.108-19.156-20.532-45.301-48.675-95.347-48.675-50.047 0-76.278 28.143-95.434 48.675-16.826 18.054-25.109 26.108-44.006 26.108-18.811 0-27.094-8.053-44.006-26.108-19.070-20.532-52.98-48.675-103.027-48.675v72.835c18.897 0 34.86 7.965 51.686 26.108 19.156 20.532 45.388 48.675 95.347 48.675 50.047 0 76.278-28.143 95.347-48.675 16.912-18.143 25.196-26.108 44.093-26.108 18.897 0 27.181 7.965 44.006 26.108 19.156 20.532 45.388 48.675 95.434 48.675 50.047 0 76.192-28.143 95.347-48.675 16.912-18.143 25.196-26.108 44.006-26.108 18.897 0 27.181 7.965 44.093 26.108 19.156 20.532 45.388 48.675 95.434 48.675 49.961 0 76.192-28.143 95.347-48.675 16.912-18.143 32.962-26.108 51.859-26.108v-72.835c-50.047 0-84.044 28.143-103.2 48.675-16.912 18.054-25.109 26.108-44.006 26.108M841.156 641.236c-16.912 18.143-25.109 26.108-44.006 26.108s-27.181-7.965-44.093-26.108c-19.156-20.532-45.388-48.675-95.434-48.675-50.047 0-76.192 28.054-95.347 48.675-16.912 18.143-25.196 26.108-44.006 26.108-18.897 0-27.181-7.965-44.093-26.108-19.156-20.532-45.301-48.675-95.347-48.675-50.047 0-76.278 28.143-95.434 48.675-16.826 18.143-25.109 26.108-44.006 26.108-18.811 0-27.094-7.965-44.006-26.108-19.070-20.532-52.98-44.161-103.027-44.161 0 0-35.465 1.681-35.465 35.842 0 34.161 35.465 36.993 35.465 36.993 18.897 0 34.86 3.452 51.686 21.594 19.156 20.532 45.388 48.675 95.347 48.675 50.047 0 76.278-28.143 95.347-48.675 16.912-18.143 25.196-26.108 44.093-26.108 18.897 0 27.181 7.965 44.006 26.108 19.156 20.532 45.388 48.675 95.434 48.675 50.047 0 76.192-28.143 95.347-48.675 16.912-18.143 25.196-26.108 44.006-26.108 18.897 0 27.181 7.965 44.093 26.108 19.156 20.532 45.388 48.675 95.434 48.675 50.047 0 76.192-28.143 95.347-48.675 16.912-18.143 32.962-21.063 51.859-21.063v-72.747c-50.047 0-84.044 23.010-103.2 43.542z" p-id="14193"></path></svg>