<?xml version="1.0" standalone="no"?><!DOCTYPE svg PUBLIC "-//W3C//DTD SVG 1.1//EN" "http://www.w3.org/Graphics/SVG/1.1/DTD/svg11.dtd"><svg t="1505369864510" class="icon" style="" viewBox="0 0 1024 1024" version="1.1" xmlns="http://www.w3.org/2000/svg" p-id="8254" xmlns:xlink="http://www.w3.org/1999/xlink" width="200" height="200"><defs><style type="text/css"></style></defs><path d="M511.635191 387.705136c-127.129422 6.001691-228.582045 120.098285-228.582045 260.379239 0 195.35734 101.452623 257.449513 228.582045 260.624832 119.377878-3.176342 228.582045-65.267493 228.582046-260.624832 0-140.280954-109.203144-254.377548-228.582046-260.379239zM632.878556 237.21568c0 66.954925-54.290487 121.240295-121.242341 121.240295-66.952878 0-121.242342-54.286394-121.242342-121.240295 0-66.952878 54.289464-121.242342 121.242342-121.242342 66.951855-0.001023 121.242342 54.289464 121.242341 121.242342z" p-id="8255"></path><path d="M223.361649 648.081305c0-89.533153 41.447994-168.238702 104.398721-215.152175-21.451568-11.379165-45.047985-17.699104-69.802785-17.699104-29.841655 0-75.852572 16.228613-105.471147 43.375903-55.383378 43.760666-88.515986 116.484991-88.515986 181.097568 0 135.530766 67.712171 192.109366 135.202285 211.80187 18.450211 8.037047 38.164205 12.626575 58.784848 12.626576 14.045901 0 27.663036-2.24411 40.803311-6.076393-46.311769-39.653115-75.399247-105.680924-75.399247-209.974245z m41.154305-438.845887c-48.960085 0-88.626503 39.667441-88.626503 88.600921 0 48.909943 39.667441 88.600921 88.626503 88.600921 48.920176 0 88.571245-39.690978 88.571245-88.600921-0.001023-48.933479-39.652092-88.600921-88.571245-88.600921z m494.294756 0c-48.964178 0-88.630596 39.667441-88.630596 88.600921 0 48.909943 39.667441 88.600921 88.630596 88.600921 48.920176 0 88.571245-39.690978 88.571245-88.600921 0-48.933479-39.651069-88.600921-88.571245-88.600921z m41.093931 438.845887c0-89.533153-41.439808-168.238702-104.395652-215.152175 21.451568-11.379165 45.053102-17.699104 69.799716-17.699104 29.845749 0 75.892481 16.228613 105.479333 43.375903 55.382355 43.760666 88.506776 116.484991 88.506776 181.097568 0 135.530766-67.708078 192.109366-135.197168 211.80187-18.450211 8.037047-38.168298 12.626575-58.784848 12.626576-14.049994 0-27.668153-2.24411-40.803311-6.076393 46.308699-39.653115 75.395154-105.680924 75.395154-209.974245z" p-id="8256"></path></svg>