<?xml version="1.0"?>
<svg xmlns="http://www.w3.org/2000/svg" xmlns:xlink="http://www.w3.org/1999/xlink" version="1.1" id="Capa_1" x="0px" y="0px" viewBox="0 0 512 512" style="enable-background:new 0 0 512 512;" xml:space="preserve" width="512px" height="512px" class=""><g><g>
	<g>
		<path d="M141.713,141.427C19.469,263.686-14.851,440.157,5.471,492.672c28.012-40.923,60.207-82.771,91.18-121.087    c-26.287-29.414-25.591-74.619,2.633-102.859c17.317-17.332,41.007-24.438,63.643-21.185c-3.294-23.057,4.119-46.58,21.229-63.672    c16.732-16.746,40.787-24.511,63.877-21.199c-3.354-22.737,3.722-46.399,20.98-63.672c28.268-28.268,73.537-28.942,102.951-2.56    c49.544-40.04,84.35-66.367,119.839-90.94C438.733-14.509,263.608,19.506,141.713,141.427z" data-original="#000000" class="active-path" fill="#000000"/>
	</g>
</g><g>
	<g>
		<path d="M205.37,205.085c-13.063,13.063-17.471,33.233-8.415,51.603c19.496-20.41,39.61-40.227,60.038-59.729    C239.604,188.483,218.821,191.634,205.37,205.085z" data-original="#000000" class="active-path" fill="#000000"/>
	</g>
</g><g>
	<g>
		<path d="M120.498,289.941c-15.729,15.742-16.554,39.954-4.068,57.521c18.42-22.016,37.37-43.533,56.772-64.635    C155.91,273.681,134.716,275.737,120.498,289.941z" data-original="#000000" class="active-path" fill="#000000"/>
	</g>
</g><g>
	<g>
		<path d="M511.619,28.279C325.202,157.331,163.226,314.865,28.945,511.55c63.804,8.369,236.923-154.748,282.496-200.396    C357.683,264.925,520.913,92.089,511.619,28.279z" data-original="#000000" class="active-path" fill="#000000"/>
	</g>
</g><g>
	<g>
		<path d="M290.226,120.213c-14.321,14.332-16.304,35.716-7.235,52.739c21.119-19.401,42.632-38.401,64.69-56.847    C330.107,103.67,305.938,104.527,290.226,120.213z" data-original="#000000" class="active-path" fill="#000000"/>
	</g>
</g></g> </svg>
