<?xml version="1.0" encoding="iso-8859-1"?>
<!-- Generator: Adobe Illustrator 19.0.0, SVG Export Plug-In . SVG Version: 6.00 Build 0)  -->
<svg version="1.1" id="Capa_1" xmlns="http://www.w3.org/2000/svg" xmlns:xlink="http://www.w3.org/1999/xlink" x="0px" y="0px"
	 viewBox="0 0 512 512" style="enable-background:new 0 0 512 512;" xml:space="preserve">
<g>
	<g>
		<path d="M353.542,129.75C358.333,122.473,361,113.86,361,105c0-14.397-6.911-27.664-18.057-36.015
			c1.975-13.784-2.52-28.054-12.697-38.231c-8.488-8.488-19.776-13.163-31.785-13.163c-2.154,0-4.311,0.157-6.447,0.468
			C283.665,6.913,270.396,0,256,0s-27.665,6.913-36.015,18.059c-2.136-0.311-4.293-0.468-6.447-0.468
			c-12.009,0-23.297,4.675-31.785,13.163c-10.177,10.178-14.671,24.447-12.697,38.231C157.911,77.336,151,90.603,151,105
			c0,8.86,2.667,17.473,7.458,24.75c-4.791,7.277-7.458,15.89-7.458,24.75s2.667,17.473,7.458,24.75
			C153.667,186.527,151,195.14,151,204s2.667,17.473,7.458,24.75c-1.735,2.636-3.187,5.448-4.34,8.383
			c43.077,29.577,78.045,69.403,101.85,115.54c24.047-46.56,59.277-86.177,101.938-115.479c-1.156-2.957-2.617-5.79-4.364-8.444
			C358.333,221.473,361,212.86,361,204s-2.667-17.473-7.458-24.75c4.791-7.277,7.458-15.89,7.458-24.75
			S358.333,137.027,353.542,129.75z"/>
	</g>
</g>
<g>
	<g>
		<path d="M121,251.559V122H91v225c0,90.981,74.019,165,165,165c1.537,0,3.068-0.025,4.595-0.067
			C260.854,506.98,261,502.004,261,497C261,394.422,206.07,301.871,121,251.559z"/>
	</g>
</g>
<g>
	<g>
		<path d="M391,122v129.632c-53.013,31.404-95.234,79.624-118.96,137.753C284.343,423.186,291,459.484,291,497
			c0,3.78-0.082,7.545-0.216,11.299C365.117,492.284,421,426.051,421,347V122H391z"/>
	</g>
</g>
<g>
</g>
<g>
</g>
<g>
</g>
<g>
</g>
<g>
</g>
<g>
</g>
<g>
</g>
<g>
</g>
<g>
</g>
<g>
</g>
<g>
</g>
<g>
</g>
<g>
</g>
<g>
</g>
<g>
</g>
</svg>
