<?xml version="1.0" encoding="iso-8859-1"?>
<!-- Generator: Adobe Illustrator 19.0.0, SVG Export Plug-In . SVG Version: 6.00 Build 0)  -->
<svg version="1.1" id="Capa_1" xmlns="http://www.w3.org/2000/svg" xmlns:xlink="http://www.w3.org/1999/xlink" x="0px" y="0px"
	 viewBox="0 0 483.275 483.275" style="enable-background:new 0 0 483.275 483.275;" xml:space="preserve">
<g>
	<g>
		<path d="M262.274,201.881c-35.26-82.477-91.431-168.797-91.431-168.797c-14.099-21.667-37.256-21.723-51.46-0.125
			c0,0-119.383,181.53-119.383,274.32C0,387.404,65.186,452.59,145.31,452.59c34.037,0,65.375-11.768,90.17-31.444
			c-13.788-22.408-21.753-48.764-21.753-76.949C213.728,302.775,235.805,250.126,262.274,201.881z"/>
		<path d="M483.275,344.199c0-74.127-95.344-209.67-95.344-209.67c-14.872-21.143-39.351-21.244-54.397-0.224
			c0,0-94.814,132.463-94.814,209.894c0,67.424,54.854,122.278,122.277,122.278C428.421,466.477,483.275,411.623,483.275,344.199z"
			/>
	</g>
</g>
<g>
</g>
<g>
</g>
<g>
</g>
<g>
</g>
<g>
</g>
<g>
</g>
<g>
</g>
<g>
</g>
<g>
</g>
<g>
</g>
<g>
</g>
<g>
</g>
<g>
</g>
<g>
</g>
<g>
</g>
</svg>
