<?xml version="1.0" encoding="iso-8859-1"?>
<!-- Generator: Adobe Illustrator 19.0.0, SVG Export Plug-In . SVG Version: 6.00 Build 0)  -->
<svg version="1.1" id="Layer_1" xmlns="http://www.w3.org/2000/svg" xmlns:xlink="http://www.w3.org/1999/xlink" x="0px" y="0px"
	 viewBox="0 0 512.003 512.003" style="enable-background:new 0 0 512.003 512.003;" xml:space="preserve">
<g>
	<g>
		<path d="M448.522,444.829c-3.331-8.045-7.686-15.612-13.237-22.953c26.682-105.987,26.726-225.956,0.13-331.96
			c5.508-7.316,9.852-14.908,13.27-23.199c4.518-11.833,9.45-28.331,7.533-51.039c-0.697-8.121-7.13-14.565-15.252-15.252
			c-22.708-1.922-39.201,3.01-51.491,7.702c-9.558,3.957-18.234,9.123-26.333,15.692c-71.13-10.853-143.152-10.853-214.282,0
			c-8.11-6.575-16.863-11.774-26.779-15.866c-11.822-4.512-28.25-9.438-51.045-7.528c-8.121,0.686-14.555,7.13-15.252,15.252
			c-1.916,22.708,3.015,39.206,7.696,51.469c3.299,7.968,7.609,15.48,13.107,22.774c-26.605,106.019-26.562,225.989,0.13,331.96
			c-5.551,7.354-9.95,15.007-13.4,23.384c-4.801,12.573-9.438,28.472-7.533,51.045c0.697,8.121,7.13,14.565,15.252,15.252
			c22.621,1.899,38.461-2.738,51.491-7.702c9.82-4.065,18.93-9.536,27.183-16.319c70.575,10.69,142.03,10.69,212.583,0
			c8.262,6.788,17.45,12.29,27.629,16.498c10.603,4.033,23.547,7.964,40.845,7.964c3.233,0,6.64-0.142,10.2-0.441
			c8.121-0.686,14.555-7.13,15.252-15.252C458.123,473.737,453.486,457.838,448.522,444.829z M145.596,165.55
			c-2.46-6.45-5.226-14.669-6.346-25.114c-0.538-5.03,1.235-10.037,4.817-13.613c3.582-3.582,8.578-5.345,13.624-4.79
			c10.521,1.148,18.936,3.984,25.087,6.325c11.719,4.855,21.702,11.534,30.132,20.036c8.627,8.682,15.165,18.56,19.97,30.193
			c2.449,6.478,5.181,14.663,6.331,24.923c0.566,5.051-1.203,10.092-4.801,13.683c-3.151,3.151-7.409,4.894-11.817,4.894
			c-0.621,0-1.246-0.032-1.873-0.104c-10.222-1.154-18.316-3.848-24.891-6.331c-11.653-4.828-21.647-11.479-30.198-19.97
			C157.015,187.132,150.456,177.274,145.596,165.55z M322.886,405.366H189.118c-9.231,0-16.721-7.484-16.721-16.721
			c0-9.237,7.49-16.721,16.721-16.721h133.768c9.231,0,16.721,7.484,16.721,16.721C339.607,397.882,332.117,405.366,322.886,405.366
			z M361.875,240.605c-1.133,10.489-3.98,18.93-6.331,25.108c-4.86,11.719-11.54,21.702-20.031,30.127
			c-8.687,8.621-18.566,15.159-30.198,19.97c-6.488,2.455-14.68,5.192-24.908,6.336c-0.621,0.07-1.241,0.104-1.856,0.104
			c-4.414,0-8.676-1.747-11.833-4.904c-3.593-3.598-5.356-8.638-4.784-13.695c1.17-10.347,3.99-18.741,6.314-24.891
			c4.822-11.659,11.485-21.658,19.987-30.204c8.508-8.606,18.375-15.169,30.121-20.036c6.418-2.443,14.593-5.187,25.087-6.331
			c5.073-0.544,10.048,1.22,13.624,4.796C360.65,230.563,362.419,235.576,361.875,240.605z"/>
	</g>
</g>
<g>
</g>
<g>
</g>
<g>
</g>
<g>
</g>
<g>
</g>
<g>
</g>
<g>
</g>
<g>
</g>
<g>
</g>
<g>
</g>
<g>
</g>
<g>
</g>
<g>
</g>
<g>
</g>
<g>
</g>
</svg>
