<?xml version="1.0" standalone="no"?><!DOCTYPE svg PUBLIC "-//W3C//DTD SVG 1.1//EN" "http://www.w3.org/Graphics/SVG/1.1/DTD/svg11.dtd"><svg t="1513221522544" class="icon" style="" viewBox="0 0 1024 1024" version="1.1" xmlns="http://www.w3.org/2000/svg" p-id="8528" xmlns:xlink="http://www.w3.org/1999/xlink" width="200" height="200"><defs><style type="text/css"></style></defs><path d="M512 1006.933333C238.660267 1006.933333 17.066667 785.339733 17.066667 512S238.660267 17.066667 512 17.066667s494.933333 221.5936 494.933333 494.933333-221.5936 494.933333-494.933333 494.933333m0-1006.933333C229.2224 0 0 229.2224 0 512c0 282.7776 229.2224 512 512 512 282.7776 0 512-229.2224 512-512C1024 229.2224 794.7776 0 512 0"  p-id="8529"></path><path d="M620.663467 566.203733a7.850667 7.850667 0 0 0-3.6864 6.656v45.2608h-98.747734V401.117867a7.8336 7.8336 0 0 0-15.684266 0v217.002666h-95.5392v-45.2608a7.8848 7.8848 0 0 0-3.669334-6.656c-58.1632-36.317867-96.8192-100.795733-96.8192-174.370133 0-56.7808 22.971733-108.100267 60.177067-145.3056A204.782933 204.782933 0 0 1 512 186.333867c56.763733 0 108.100267 22.9888 145.288533 60.194133a204.731733 204.731733 0 0 1 60.177067 145.3056c0.017067 73.557333-38.673067 138.052267-96.802133 174.370133zM596.138667 794.760533H424.789333l-31.914666-36.9664v-123.989333h235.076266v126.1056l-31.812266 34.850133z m-167.1168 42.9056h162.747733v-27.2384h-162.747733v27.2384zM512 170.666667c-122.146133 0-221.149867 99.0208-221.166933 221.166933a220.945067 220.945067 0 0 0 100.522666 185.2928v40.994133h-6.314666a7.953067 7.953067 0 0 0-7.850667 7.850667v134.741333c0 1.877333 0.682667 3.6864 1.8944 5.12l34.269867 39.662934v40.021333a7.850667 7.850667 0 0 0 7.850666 7.816533h178.3808a7.799467 7.799467 0 0 0 7.816534-7.816533v-39.850667l34.1504-37.410133a7.850667 7.850667 0 0 0 2.082133-5.290667V626.005333a7.867733 7.867733 0 0 0-7.850667-7.867733h-3.140266v-40.994133a220.910933 220.910933 0 0 0 100.522666-185.2928C733.115733 269.687467 634.112 170.6496 512 170.6496z"  p-id="8530"></path><path d="M630.613333 260.4032c-33.109333-30.549333-75.9296-45.806933-118.613333-45.806933-42.717867 0-85.504 15.240533-118.613333 45.806933a7.8336 7.8336 0 0 0 10.615466 11.52c30.037333-27.733333 68.983467-41.642667 107.997867-41.642667 39.0144 0 77.943467 13.909333 107.9808 41.642667a7.765333 7.765333 0 0 0 11.0592-0.443733 7.816533 7.816533 0 0 0-0.426667-11.0592zM595.848533 672.477867H424.925867a7.816533 7.816533 0 0 0 0 15.6672h170.922666a7.8336 7.8336 0 1 0 0-15.6672M595.848533 728.32H424.925867a7.8336 7.8336 0 0 0 0 15.6672h170.922666a7.8336 7.8336 0 1 0 0-15.6672"  p-id="8531"></path></svg>
