<?xml version="1.0" standalone="no"?><!DOCTYPE svg PUBLIC "-//W3C//DTD SVG 1.1//EN" "http://www.w3.org/Graphics/SVG/1.1/DTD/svg11.dtd"><svg t="1513221320202" class="icon" style="" viewBox="0 0 1024 1024" version="1.1" xmlns="http://www.w3.org/2000/svg" p-id="1881" xmlns:xlink="http://www.w3.org/1999/xlink" width="200" height="200"><defs><style type="text/css"></style></defs><path d="M928 938.3H98c-5.5 0-10-4.5-10-10V98.2c0-5.5 4.5-10 10-10s10 4.5 10 10v820.1h820c5.5 0 10 4.5 10 10s-4.5 10-10 10z" p-id="1882"></path><path d="M192.4 746c-1.9 0-3.8-0.5-5.5-1.7-4.6-3.1-5.9-9.3-2.8-13.9l127.3-191.7c2.8-4.3 8.4-5.7 13-3.3L444 598.3l189.5-189.5c1.9-1.9 4.4-2.9 7.1-2.9 2.7 0 5.2 1.1 7.1 3l55.4 55.7 120.3-182c3-4.6 9.2-5.9 13.9-2.8 4.6 3 5.9 9.2 2.8 13.9L712.8 485.8c-1.7 2.5-4.4 4.1-7.4 4.4-3 0.3-6-0.8-8.1-2.9L640.5 430 452.9 617.7c-3.1 3.1-7.9 3.8-11.7 1.8L323 557.4 200.7 741.5c-1.9 2.9-5.1 4.5-8.3 4.5z" p-id="1883"></path><path d="M847 331.9l-22.2-33.6-39.6-7.3 79.3-52.8z" p-id="1884"></path></svg>