<?xml version="1.0" standalone="no"?><!DOCTYPE svg PUBLIC "-//W3C//DTD SVG 1.1//EN" "http://www.w3.org/Graphics/SVG/1.1/DTD/svg11.dtd"><svg t="1513221158593" class="icon" style="" viewBox="0 0 1024 1024" version="1.1" xmlns="http://www.w3.org/2000/svg" p-id="10783" xmlns:xlink="http://www.w3.org/1999/xlink" width="200" height="200"><defs><style type="text/css"></style></defs><path d="M242.971777 834.974879c39.078017 17.889439 80.239486 25.690102 109.37506 28.429493v127.923508l-32.745799 0.261966v-95.438653c-11.590989-1.089821-25.091468-3.827165-39.600926-8.243754-14.467503-4.403287-29.939893-10.487865-45.545312-18.296715-66.518996-33.283034-135.366014-97.92631-138.313136-197.721177h32.745798c0.747014 25.297153 5.731538 47.359634 13.837147 66.590627l39.573297 56.570414c17.97949 16.98893 39.006386 30.005384 60.673871 39.924291z m451.067233-292.935726c-12.149714 19.989263-27.458375 40.785915-46.465265 59.767222-19.463284 19.437701-42.800805 36.97103-70.63371 49.757241l32.745798-1.023306c121.927957-56.012711 157.825538-203.006554 157.825538-203.006554l-32.745798 1.023306c0 0.001023-10.81737 44.273343-40.726563 93.482091zM548.503379 811.591309l-36.82572 19.965727-36.825721-20.277835C214.904535 669.336398 83.383082 503.684614 83.383082 319.93873c-0.448208-69.298296 21.25407-136.898927 61.892629-192.791912 21.277606-28.523637 48.539506-51.958372 79.84142-68.6311a232.42763 232.42763 0 0 1 110.168122-26.516933c63.140039-0.734734 124.888382 27.988448 176.392406 64.813145 14.673188-10.719132 93.129051-64.813145 172.988889-64.813145 159.681816 0 255.305687 145.686057 255.305687 286.692534 0 184.369078-131.830491 350.33297-391.468856 492.89999z m354.544898-481.039871c0-128.850623-87.380116-261.97662-233.295393-261.97662-72.975035 0-144.666844 49.430806-158.075225 59.225893-47.063899-33.650401-103.490026-59.897182-161.186076-59.225893a212.397435 212.397435 0 0 0-100.670817 24.230868c-28.602432 15.236006-53.514821 36.650735-72.957639 62.714343-37.134759 51.075259-56.966433 112.848161-56.556087 176.171372 0 167.905104 120.182196 319.275627 357.720218 448.981735l33.651424 18.529005 33.651424-18.244526c237.252519-130.276089 357.718171-281.931091 357.718171-450.406177z m-22.465664 407.969669l-39.404452 56.304353c-18.005073 17.040095-39.070854 30.101575-60.776202 40.052205-39.175231 17.959024-80.425727 25.7822-109.488646 28.526707v127.923508l32.745798 0.281409v-95.459119c11.584849-1.093914 25.112957-3.848655 39.667442-8.29492l45.595454-18.361183c66.468854-33.316803 135.346571-97.92631 138.290623-197.60452h-32.745799c-0.74599 25.315572-5.749958 47.391357-13.884218 66.63156z" fill="" p-id="10784"></path></svg>