<?xml version="1.0" standalone="no"?><!DOCTYPE svg PUBLIC "-//W3C//DTD SVG 1.1//EN" "http://www.w3.org/Graphics/SVG/1.1/DTD/svg11.dtd"><svg t="1513221637469" class="icon" style="" viewBox="0 0 1024 1024" version="1.1" xmlns="http://www.w3.org/2000/svg" p-id="11247" xmlns:xlink="http://www.w3.org/1999/xlink" width="200" height="200"><defs><style type="text/css"></style></defs><path d="M441.6 459.52h-322.56c-9.8816 0-17.92-8.0384-17.92-17.92v-322.56c0-9.8816 8.0384-17.92 17.92-17.92h322.56c9.8816 0 17.92 8.0384 17.92 17.92v322.56c0 9.8816-8.0384 17.92-17.92 17.92z m-314.88-25.6h307.2v-307.2h-307.2v307.2zM904.96 459.52h-322.56c-9.8816 0-17.92-8.0384-17.92-17.92v-322.56c0-9.8816 8.0384-17.92 17.92-17.92h322.56c9.8816 0 17.92 8.0384 17.92 17.92v322.56c0 9.8816-8.0384 17.92-17.92 17.92z m-314.88-25.6h307.2v-307.2h-307.2v307.2zM441.6 922.88h-322.56c-9.8816 0-17.92-8.0384-17.92-17.92v-322.56c0-9.8816 8.0384-17.92 17.92-17.92h322.56c9.8816 0 17.92 8.0384 17.92 17.92v322.56c0 9.8816-8.0384 17.92-17.92 17.92z m-314.88-25.6h307.2v-307.2h-307.2v307.2zM904.96 922.88h-322.56c-9.8816 0-17.92-8.0384-17.92-17.92v-322.56c0-9.8816 8.0384-17.92 17.92-17.92h322.56c9.8816 0 17.92 8.0384 17.92 17.92v322.56c0 9.8816-8.0384 17.92-17.92 17.92z m-314.88-25.6h307.2v-307.2h-307.2v307.2z"  p-id="11248"></path></svg>
