<svg
 xmlns="http://www.w3.org/2000/svg"
 xmlns:xlink="http://www.w3.org/1999/xlink"
 width="53px" height="65px">
<path fill-rule="evenodd"  
 d="M49.686,64.999 L3.313,64.999 C1.483,64.999 -0.000,63.516 -0.000,61.685 L-0.000,3.313 C-0.000,1.483 1.483,-0.001 3.313,-0.001 L49.686,-0.001 C51.516,-0.001 53.000,1.483 53.000,3.313 L53.000,61.685 C53.000,63.516 51.516,64.999 49.686,64.999 ZM51.000,3.313 C51.000,2.588 50.412,1.999 49.686,1.999 L3.313,1.999 C2.588,1.999 2.000,2.588 2.000,3.313 L2.000,61.685 C2.000,62.411 2.588,62.999 3.313,62.999 L49.686,62.999 C50.412,62.999 51.000,62.411 51.000,61.685 L51.000,3.313 ZM46.000,45.000 L8.000,45.000 C7.447,45.000 7.000,44.552 7.000,43.999 C7.000,43.447 7.447,43.000 8.000,43.000 L46.000,43.000 C46.553,43.000 47.000,43.447 47.000,43.999 C47.000,44.552 46.553,45.000 46.000,45.000 ZM38.000,37.000 C38.553,37.000 39.000,37.447 39.000,37.999 C39.000,38.552 38.553,38.999 38.000,38.999 L16.000,38.999 C15.447,38.999 15.000,38.552 15.000,37.999 C15.000,37.447 15.447,37.000 16.000,37.000 L38.000,37.000 ZM46.000,33.000 L9.000,33.000 C8.447,33.000 8.000,32.552 8.000,32.000 C8.000,31.447 8.447,30.999 9.000,30.999 L46.000,30.999 C46.553,30.999 47.000,31.447 47.000,32.000 C47.000,32.552 46.553,33.000 46.000,33.000 ZM38.000,25.999 C38.553,25.999 39.000,26.447 39.000,26.999 C39.000,27.552 38.553,27.999 38.000,27.999 L16.000,27.999 C15.447,27.999 15.000,27.552 15.000,26.999 C15.000,26.447 15.447,25.999 16.000,25.999 L38.000,25.999 ZM45.465,21.999 L9.052,21.999 C8.499,21.999 8.052,21.552 8.052,21.000 C8.052,20.448 8.499,19.999 9.052,19.999 L45.465,19.999 C46.018,19.999 46.465,20.448 46.465,21.000 C46.465,21.552 46.018,21.999 45.465,21.999 ZM38.000,15.999 L16.000,15.999 C15.447,15.999 15.000,15.552 15.000,14.999 C15.000,14.447 15.447,13.999 16.000,13.999 L38.000,13.999 C38.553,13.999 39.000,14.447 39.000,14.999 C39.000,15.552 38.553,15.999 38.000,15.999 ZM11.852,49.000 L42.664,49.000 C43.217,49.000 43.664,49.447 43.664,50.000 C43.664,50.552 43.217,50.999 42.664,50.999 L11.852,50.999 C11.300,50.999 10.852,50.552 10.852,50.000 C10.852,49.447 11.300,49.000 11.852,49.000 Z"/>
</svg>
