<?xml version="1.0" encoding="utf-8"?>
<!-- Generator: Adobe Illustrator 21.0.0, SVG Export Plug-In . SVG Version: 6.00 Build 0)  -->
<svg version="1.1" id="Capa_1" xmlns="http://www.w3.org/2000/svg" xmlns:xlink="http://www.w3.org/1999/xlink" x="0px" y="0px"
	 viewBox="0 0 512 512" style="enable-background:new 0 0 512 512;" xml:space="preserve">
<path d="M395.6,278.3c2.6-4.9,4.9-11.8,8.5-16.8c10.3,20.8,26.4,38.6,34.4,60.5c7,18.9,6.5,39.6-0.4,58.5
	c-3.9,10.7-10,20.5-17.8,28.7c-10.3-15.2-22.6-28.6-37.6-37.9c-4-10.7-8.8-21.4-10.5-32.8c-1.9-12.5,1-23.7,7.2-34.5
	C384.4,295.2,390.9,287.3,395.6,278.3z M330.4,200c12.8,7.1,24,18.8,32.6,30c5.4,7,9.7,15,13.4,23c3.2,6.9,5,14.4,8.7,20.9
	c-5.1,9.3-11.7,17.6-16.7,27c-9.9,18.4-9.4,38.2-3,56.9c-3-2.1-6-4-8.5-6.5c-6-6.1-10.9-13.3-16.7-19.6c-6.4-7-13.4-13.8-20.9-19.8
	c-1.8-3.2-3.8-6.3-5.2-9.7c-1.7-4.4-2.9-8.8-3.5-13.5c-1.1-9.2-0.7-18.9,1.2-28C316.2,240.2,328.9,220.9,330.4,200z M247.7,148.7
	c5.5,2.4,10.6,5.7,15.9,8.3c9.1,4.5,17.5,9.5,24.9,16.5c6.7,6.3,12.3,13.6,17.3,21.3c3.4,5.2,6.7,10.6,10.9,15.1
	c-1.5,6.5-3.7,12.8-6.2,19.4c-4.5,11.8-9,23.4-10.6,36c-1,7.6-1.2,15.3-0.2,22.9c-5.5-6.6-11.5-12.7-17.1-18.4
	c-6.3-6.4-14-11.2-20.4-17.2c-4.9-4.7-7.8-13.4-10.1-19.5c-3.2-8.5-4.9-17.5-5.2-26.5C245.8,187.2,249.2,167.9,247.7,148.7z
	 M178.1,126.1c0.1-2.3,0.2-4.8,0.3-7.3c11.2,5.4,22.1,12.6,31.6,19.9c6,4.6,11.7,9.8,16.2,15.9c5.2,7,9.4,14.9,9,23.7
	c-0.6,11.3-1.1,22.6,0.2,33.9c0.4,3.3,0.9,6.5,1.6,9.7c-3.9-4.6-8.1-9.1-11.7-13.4c-9.8-11.5-20.3-22.5-32.8-31
	c-1-0.7-1.9-1.3-2.9-1.9c-2.8-4.2-6-8-7.9-12.8c-2.2-5.8-3.1-12-3.5-18.2C177.8,138.4,177.9,132.2,178.1,126.1z M144,109.8
	c4.1-5.3,16.7,5.1,22.9,10.2c0.1,2.7,0.2,5.4,0.2,8.1c0,6,0.1,12.1,0.6,18.1c-1.9-1.4-4-2.4-5.6-3.3c-5.1-2.6-10.4-4.9-15.9-6.7
	c0-3.5-1.1-7.4-1.5-10.2C144,122.5,141.5,113.1,144,109.8z M95.6,25.1c10.5,13.8,16.6,30.7,22.3,46.9c3.4,9.7,6.6,19.4,9.4,29.3
	c0.8,2.8,1.4,5.7,2.1,8.5c-3-5.9-6.2-11.7-8.9-17.5c-4.1-8.9-8-17.9-12.2-26.8C102.7,53.9,94.7,38.9,95.6,25.1z M69.6,54.8
	C57.8,44.4,45.3,31.9,39.3,17c4.8,1.2,11.4,7.5,13.5,9.4c6.7,6,12.9,12.6,18.7,19.4c6.8,8.1,13.1,16.8,19.2,25.5
	c0.3,0.5,0.6,0.9,0.9,1.4C84.2,66.7,76.6,61,69.6,54.8z M110.7,110.7c-11.4-8.4-23.5-15.8-35.6-23.2C62.9,80,50.3,72.8,37.5,66.4
	c-7-3.5-14.5-6.2-21.4-9.9c24.4,2.4,47.4,15.6,68,28c11.6,7,25.1,14.2,33.1,25.3c4.4,6.1,7.9,12.2,12.5,17.7c0,0,0,0.1,0,0.1
	c0.1,0.2,0.1,0.5,0.2,0.7C124,122,118,116,110.7,110.7z M118.5,142.4c8.6-1.8,18.7,1.3,26.3,4.1c4.9,1.7,9.4,3.9,14,6.3
	c3.4,1.8,7,2.3,9.6,5.3c1.5,1.7,2.8,9,4.3,9.5c-5.4-1.9-11-3.2-16.6-4.1c-8-1.2-15.4-1.2-22.9-0.5c-0.9-3.8-5.1-7.9-7.1-10.3
	C123.4,149.4,120.8,146,118.5,142.4z M151.4,198.3c-5.9-9.7-14.1-18.7-22.9-26.4c9.3-2.3,21-0.1,29.3,1.8c12,2.8,22.9,7.3,32.7,14.7
	c10.8,8.2,19.9,18.4,28.5,28.8c4.7,5.7,9.4,12.6,14.8,18.5c-11.7-5.3-24-9-36.8-10c-8.3-0.6-16.6-0.1-24.9,0.3
	c-0.1-0.3-0.3-0.5-0.5-0.7c-4.2-3.8-8.4-6.9-11.5-11.7C156.9,208.7,154.5,203.3,151.4,198.3z M202.1,297.1
	c-4.7-5.4-8.6-11.4-12.4-17.4c-4.7-7.5-9.2-15.1-14.1-22.4c-4.4-6.5-9.1-13.8-14.6-20c4.4-0.4,9-0.2,12.6-0.3
	c7.8-0.3,15.6-0.7,23.3-0.1c15.8,1.2,30.9,7.7,44.5,15.6c13.1,7.6,25,17.2,35.4,28.2c3.8,4,7.4,8.4,11,12.8
	c-8.1-2.8-16.7-4.2-25.5-3.5c-13.1,1.1-25.9,4.8-37.9,10c-4.1,1.8-8.2,3.8-12.1,6.1C208.4,304.5,204.8,300.1,202.1,297.1z
	 M240.4,353.8c-10.7-10.4-21.3-21.1-34.8-27.4c8.2-9.3,20.8-15.3,32.1-19.3c13.9-4.9,29.3-8.2,43.7-4c18,5.3,33.4,18.3,46.3,31.5
	c6.9,7,12.8,14.9,19.4,22.2c0.7,0.8,1.5,1.5,2.2,2.3c-16.4-2.4-33.4-1-49.1,4.4c-8,2.8-15.3,6.7-22.6,10.9c-0.6,0.4-1.3,0.7-1.9,1.1
	C261,374.5,250.5,363.5,240.4,353.8z M402.1,423.1c-10.1,5.4-21.1,7.3-32.4,8.8c-14.5,1.9-29.6,2.9-44.1,0.6
	c-25.8-4.1-45.7-19.2-60.5-39.8c4.9-2,10.2-3.4,14.8-6c7-3.9,13.7-8.3,21.3-11.1c14.7-5.4,30.7-7.3,46.2-4.9
	c14.8,2.3,29,8,40.5,17.7c9.6,8.1,17.1,18,25.3,27.3C409.9,418.4,406.1,420.9,402.1,423.1z M497.2,479c-3.6,5.6-10.1,13.1-17.6,12.2
	c-7.7-0.9-14.5-11.7-19-17.3c-5.6-7-10.8-14.3-16.7-21.1c-4.8-5.5-10.1-9.9-15.7-14.6c-2.8-2.4-5.6-4.8-8.4-7.2
	c-0.9-0.8-2.1-1.6-3.2-2.5c5.2-3.7,10-7.9,14.3-12.6c1.9,2.7,4.9,5,7.6,7c6.2,4.4,13.1,7.9,19.7,11.7c13.3,7.6,28.7,15.2,38.4,27.5
	C501.1,467.8,501.2,472.9,497.2,479z"/>
</svg>
