<?xml version="1.0" standalone="no"?><!DOCTYPE svg PUBLIC "-//W3C//DTD SVG 1.1//EN" "http://www.w3.org/Graphics/SVG/1.1/DTD/svg11.dtd"><svg t="1513220986233" class="icon" style="" viewBox="0 0 1024 1024" version="1.1" xmlns="http://www.w3.org/2000/svg" p-id="5696" xmlns:xlink="http://www.w3.org/1999/xlink" width="200" height="200"><defs><style type="text/css"></style></defs><path d="M514.1 66.6c-247.3 0-447.8 200.5-447.8 447.8s200.5 447.8 447.8 447.8 447.8-200.5 447.8-447.8S761.5 66.6 514.1 66.6z m0 866.8c-231.4 0-419-187.6-419-419s187.6-419 419-419 419 187.6 419 419-187.5 419-419 419z" p-id="5697"></path><path d="M357.4 438.8c-14 0-23.7 2.1-29.4 3.9-3.2 1-5 1.8-5.6 2-13.1 6.2-21.1 18.5-21.1 32.2 0 10.5 4.4 20.2 12.3 27.2 1.6 1.6 5.3 4.9 15.1 13 24.9 20.2 35 28.9 46 40.4 22 23 20.3 47.3 15.9 58l-12 37.1c-3.4 10.4-5.3 20.5-5.4 29.2 0 3.3 0.2 5.3 0.2 5.8 1.9 14.5 11.1 25.8 24.1 30.1 10 3.2 20.6 2.1 29.7-3.2 2-1.1 6.3-3.5 17-10.4l4.6-3c23.8-15.4 34.6-22.4 48.6-28.6 12.6-5.5 31.7-13.8 52.7-1.9l1.5 1 37 26.9c11.2 8.2 20.4 12.2 26.1 14.2 3.2 1.1 5.1 1.5 5.6 1.6 14.2 2.6 27.9-2.6 36-13.7 6.1-8.4 8.3-19 6.1-29.2-0.4-2.4-1.4-7.3-4.6-19.4l-1.4-5.1c-7.3-27.5-10.7-40-12.2-55.3-1-9.8-3.6-35.9 15.1-51.2 4-3.2 29.9-21.9 37.8-27.5 11.2-8.1 17.8-15.6 21.4-20.4 2-2.7 3-4.4 3.3-4.9 7-12.7 6.2-27.4-1.9-38.5-6.1-8.4-15.5-13.8-25.9-14.8l-0.9-0.1c-1.5-0.2-6.4-0.8-19-1.5l-12.7-0.7c-23.6-1.2-35.4-1.8-49.2-5.2-29.3-7.1-42.9-27.1-46.2-37.8l-11.9-36.6c-4.3-13.3-9.3-21.9-12.8-26.8-2-2.7-3.3-4.2-3.7-4.6-9.9-10.6-24.1-14.4-37.2-10.1-9.8 3.2-17.9 10.5-22.1 20.1-1 2.1-3.1 6.6-7.7 18.4l-2 5.2c-10.2 26.3-14.8 38.4-22.5 51.5-6.9 11.9-17.5 29.8-41.5 32.5l-1.8 0.1h-45.4v0.1z m51.5 313.5c-7.2 0-14.4-1.1-21.4-3.4-25.2-8.2-43-29.9-46.4-56.6 0 0-0.6-3.7-0.6-10.8 0.2-12.2 2.6-25.2 7-38.9l12.5-38.3c0.6-1.7 3.2-11.4-8.9-24.1-9.2-9.6-17.6-17-43-37.6-11.4-9.3-15.6-13.2-16.8-14.5-14.2-12.7-22.6-31.5-22.6-51.1 0-26.5 15.1-50.1 39.5-61.7 0 0 3.3-1.7 10.1-3.9 11.5-3.6 24.6-5.3 39.2-5.3H402c5.6-0.9 9.1-4.5 16.1-16.4 6.4-10.9 10.4-21.4 20.2-46.7l2-5.3c5.1-13 7.6-18.5 8.6-20.6 7.6-17.3 22.9-31.1 41.6-37.2 25.3-8.2 52.4-1.1 70.9 18.6 0 0 2.6 2.6 6.8 8.4 7 9.9 12.7 21.9 17.2 35.6l11.9 36.8c0.1 0.2 4.6 11.6 22.8 16 10.8 2.6 20.9 3.2 43.1 4.3l12.8 0.7c13 0.7 19.1 1.4 21.8 1.8 19.5 2.1 37.2 12.3 48.7 28.1 15.6 21.5 17.2 49.5 4.3 73.1 0 0-1.7 3.3-5.9 9.1-7.3 9.7-16.9 18.9-28.6 27.4-16 11.5-33.9 24.4-36.2 26.3-3.5 2.8-4.5 10.3-3.3 22.7 1.3 12.5 4.2 23.5 11.2 50l1.4 5.1c3.6 13.7 4.8 19.5 5.1 21.8 4 18.4-0.2 38.5-11.8 54.5-15.6 21.4-41.7 31.7-68.2 26.7-0.1 0-3.7-0.6-10.5-2.8-11.5-3.9-23.2-10.2-34.8-18.7l-36.1-26.2c-5.1-2.6-10-1.7-22.7 3.8-11.5 5.1-21 11.2-43.9 26l-4.6 3c-12.4 8-17.4 10.7-19 11.6-10.1 5.6-22 8.7-34 8.7z" p-id="5698"></path></svg>